ISO-10303-21;
HEADER;
FILE_DESCRIPTION(('STEP AP214'),'1');
FILE_NAME('cctmp_7EF498DE-9EE2-4CD1-8D04-10DC9B9D72C9_2025_06_20_16_14_27_0405_79120..stp','2025-06-20T14:14:27',('igus GmbH'),('CADClick - www.CADClick.com'),'Spatial InterOp 3D',' ','unknown authorization');
FILE_SCHEMA(('AUTOMOTIVE_DESIGN'));
ENDSEC;
DATA;
#1=MECHANICAL_DESIGN_GEOMETRIC_PRESENTATION_REPRESENTATION(' ',(#10,#11,#12,#13,#14,#15,#16,#17,#18,#19,#20,#21,#22,#23,#24,#25,#26,#27,#28,#29,#30,#31,#32,#33,#34,#35,#36,#37,#38,#39,#40,#41,#42,#43,#44,#45,#46,#47,#48,#49,#50,#51,#52,#53,#54,#55,#56,#57,#58,#59,#60,#61,#62,#63,#64,#65,#66,#67,#68,#69,#70),#6);
#2=PRODUCT_DEFINITION_CONTEXT('',#71,'design');
#3=APPLICATION_PROTOCOL_DEFINITION('INTERNATIONAL STANDARD','automotive_design',1994,#71);
#4=PRODUCT_CATEGORY_RELATIONSHIP('NONE','NONE',#72,#73);
#5=SHAPE_DEFINITION_REPRESENTATION(#74,#75);
#6= (GEOMETRIC_REPRESENTATION_CONTEXT(3)GLOBAL_UNCERTAINTY_ASSIGNED_CONTEXT((#78))GLOBAL_UNIT_ASSIGNED_CONTEXT((#80,#81,#82))REPRESENTATION_CONTEXT('NONE','WORKSPACE'));
#10=STYLED_ITEM('',(#84),#85);
#11=STYLED_ITEM('',(#86),#87);
#12=STYLED_ITEM('',(#88),#89);
#13=STYLED_ITEM('',(#90),#91);
#14=STYLED_ITEM('',(#92),#93);
#15=STYLED_ITEM('',(#94),#95);
#16=STYLED_ITEM('',(#96),#97);
#17=STYLED_ITEM('',(#98),#99);
#18=STYLED_ITEM('',(#100),#101);
#19=STYLED_ITEM('',(#102),#103);
#20=STYLED_ITEM('',(#104),#105);
#21=STYLED_ITEM('',(#106),#107);
#22=STYLED_ITEM('',(#108),#109);
#23=STYLED_ITEM('',(#110),#111);
#24=STYLED_ITEM('',(#112),#113);
#25=STYLED_ITEM('',(#114),#115);
#26=STYLED_ITEM('',(#116),#117);
#27=STYLED_ITEM('',(#118),#119);
#28=STYLED_ITEM('',(#120),#121);
#29=STYLED_ITEM('',(#122),#123);
#30=STYLED_ITEM('',(#124),#125);
#31=STYLED_ITEM('',(#126),#127);
#32=STYLED_ITEM('',(#128),#129);
#33=STYLED_ITEM('',(#130),#131);
#34=STYLED_ITEM('',(#132),#133);
#35=STYLED_ITEM('',(#134),#135);
#36=STYLED_ITEM('',(#136),#137);
#37=STYLED_ITEM('',(#138),#139);
#38=STYLED_ITEM('',(#140),#141);
#39=STYLED_ITEM('',(#142),#143);
#40=STYLED_ITEM('',(#144),#145);
#41=STYLED_ITEM('',(#146),#147);
#42=STYLED_ITEM('',(#148),#149);
#43=STYLED_ITEM('',(#150),#151);
#44=STYLED_ITEM('',(#152),#153);
#45=STYLED_ITEM('',(#154),#155);
#46=STYLED_ITEM('',(#156),#157);
#47=STYLED_ITEM('',(#158),#159);
#48=STYLED_ITEM('',(#160),#161);
#49=STYLED_ITEM('',(#162),#163);
#50=STYLED_ITEM('',(#164),#165);
#51=STYLED_ITEM('',(#166),#167);
#52=STYLED_ITEM('',(#168),#169);
#53=STYLED_ITEM('',(#170),#171);
#54=STYLED_ITEM('',(#172),#173);
#55=STYLED_ITEM('',(#174),#175);
#56=STYLED_ITEM('',(#176),#177);
#57=STYLED_ITEM('',(#178),#179);
#58=STYLED_ITEM('',(#180),#181);
#59=STYLED_ITEM('',(#182),#183);
#60=STYLED_ITEM('',(#184),#185);
#61=STYLED_ITEM('',(#186),#187);
#62=STYLED_ITEM('',(#188),#189);
#63=STYLED_ITEM('',(#190),#191);
#64=STYLED_ITEM('',(#192),#193);
#65=STYLED_ITEM('',(#194),#195);
#66=STYLED_ITEM('',(#196),#197);
#67=STYLED_ITEM('',(#198),#199);
#68=STYLED_ITEM('',(#200),#201);
#69=STYLED_ITEM('',(#202),#203);
#70=STYLED_ITEM('',(#204),#205);
#71=APPLICATION_CONTEXT(' ');
#72=PRODUCT_CATEGORY('part','NONE');
#73=PRODUCT_RELATED_PRODUCT_CATEGORY('detail',' ',(#206));
#74=PRODUCT_DEFINITION_SHAPE('NONE','NONE',#207);
#75=ADVANCED_BREP_SHAPE_REPRESENTATION('2025_06_20_16_14_27_0405',(#205,#208),#6);
#78=UNCERTAINTY_MEASURE_WITH_UNIT(LENGTH_MEASURE(1.0E-06),#80,'','');
#80= (CONVERSION_BASED_UNIT('MILLIMETRE',#211)LENGTH_UNIT()NAMED_UNIT(#214));
#81= (NAMED_UNIT(#216)PLANE_ANGLE_UNIT()SI_UNIT($,.RADIAN.));
#82= (NAMED_UNIT(#216)SOLID_ANGLE_UNIT()SI_UNIT($,.STERADIAN.));
#84=PRESENTATION_STYLE_ASSIGNMENT((#222));
#85=ADVANCED_FACE('',(#223),#224,.F.);
#86=PRESENTATION_STYLE_ASSIGNMENT((#225));
#87=ADVANCED_FACE('',(#226),#227,.F.);
#88=PRESENTATION_STYLE_ASSIGNMENT((#228));
#89=ADVANCED_FACE('',(#229),#230,.F.);
#90=PRESENTATION_STYLE_ASSIGNMENT((#231));
#91=ADVANCED_FACE('',(#232),#233,.F.);
#92=PRESENTATION_STYLE_ASSIGNMENT((#234));
#93=ADVANCED_FACE('',(#235),#236,.F.);
#94=PRESENTATION_STYLE_ASSIGNMENT((#237));
#95=ADVANCED_FACE('',(#238),#239,.F.);
#96=PRESENTATION_STYLE_ASSIGNMENT((#240));
#97=ADVANCED_FACE('',(#241),#242,.T.);
#98=PRESENTATION_STYLE_ASSIGNMENT((#243));
#99=ADVANCED_FACE('',(#244,#245),#246,.T.);
#100=PRESENTATION_STYLE_ASSIGNMENT((#247));
#101=ADVANCED_FACE('',(#248),#249,.T.);
#102=PRESENTATION_STYLE_ASSIGNMENT((#250));
#103=ADVANCED_FACE('',(#251),#252,.T.);
#104=PRESENTATION_STYLE_ASSIGNMENT((#253));
#105=ADVANCED_FACE('',(#254),#255,.T.);
#106=PRESENTATION_STYLE_ASSIGNMENT((#256));
#107=ADVANCED_FACE('',(#257),#258,.T.);
#108=PRESENTATION_STYLE_ASSIGNMENT((#259));
#109=ADVANCED_FACE('',(#260),#261,.F.);
#110=PRESENTATION_STYLE_ASSIGNMENT((#262));
#111=ADVANCED_FACE('',(#263),#264,.F.);
#112=PRESENTATION_STYLE_ASSIGNMENT((#265));
#113=ADVANCED_FACE('',(#266),#267,.T.);
#114=PRESENTATION_STYLE_ASSIGNMENT((#268));
#115=ADVANCED_FACE('',(#269),#270,.F.);
#116=PRESENTATION_STYLE_ASSIGNMENT((#271));
#117=ADVANCED_FACE('',(#272),#273,.F.);
#118=PRESENTATION_STYLE_ASSIGNMENT((#274));
#119=ADVANCED_FACE('',(#275),#276,.F.);
#120=PRESENTATION_STYLE_ASSIGNMENT((#277));
#121=ADVANCED_FACE('',(#278),#279,.T.);
#122=PRESENTATION_STYLE_ASSIGNMENT((#280));
#123=ADVANCED_FACE('',(#281),#282,.F.);
#124=PRESENTATION_STYLE_ASSIGNMENT((#283));
#125=ADVANCED_FACE('',(#284),#285,.F.);
#126=PRESENTATION_STYLE_ASSIGNMENT((#286));
#127=ADVANCED_FACE('',(#287),#288,.F.);
#128=PRESENTATION_STYLE_ASSIGNMENT((#289));
#129=ADVANCED_FACE('',(#290),#291,.T.);
#130=PRESENTATION_STYLE_ASSIGNMENT((#292));
#131=ADVANCED_FACE('',(#293),#294,.T.);
#132=PRESENTATION_STYLE_ASSIGNMENT((#295));
#133=ADVANCED_FACE('',(#296),#297,.F.);
#134=PRESENTATION_STYLE_ASSIGNMENT((#298));
#135=ADVANCED_FACE('',(#299),#300,.T.);
#136=PRESENTATION_STYLE_ASSIGNMENT((#301));
#137=ADVANCED_FACE('',(#302),#303,.T.);
#138=PRESENTATION_STYLE_ASSIGNMENT((#304));
#139=ADVANCED_FACE('',(#305),#306,.F.);
#140=PRESENTATION_STYLE_ASSIGNMENT((#307));
#141=ADVANCED_FACE('',(#308),#309,.T.);
#142=PRESENTATION_STYLE_ASSIGNMENT((#310));
#143=ADVANCED_FACE('',(#311),#312,.F.);
#144=PRESENTATION_STYLE_ASSIGNMENT((#313));
#145=ADVANCED_FACE('',(#314),#315,.T.);
#146=PRESENTATION_STYLE_ASSIGNMENT((#316));
#147=ADVANCED_FACE('',(#317),#318,.T.);
#148=PRESENTATION_STYLE_ASSIGNMENT((#319));
#149=ADVANCED_FACE('',(#320),#321,.T.);
#150=PRESENTATION_STYLE_ASSIGNMENT((#322));
#151=ADVANCED_FACE('',(#323),#324,.T.);
#152=PRESENTATION_STYLE_ASSIGNMENT((#325));
#153=ADVANCED_FACE('',(#326),#327,.T.);
#154=PRESENTATION_STYLE_ASSIGNMENT((#328));
#155=ADVANCED_FACE('',(#329),#330,.F.);
#156=PRESENTATION_STYLE_ASSIGNMENT((#331));
#157=ADVANCED_FACE('',(#332),#333,.T.);
#158=PRESENTATION_STYLE_ASSIGNMENT((#334));
#159=ADVANCED_FACE('',(#335),#336,.T.);
#160=PRESENTATION_STYLE_ASSIGNMENT((#337));
#161=ADVANCED_FACE('',(#338),#339,.F.);
#162=PRESENTATION_STYLE_ASSIGNMENT((#340));
#163=ADVANCED_FACE('',(#341),#342,.T.);
#164=PRESENTATION_STYLE_ASSIGNMENT((#343));
#165=ADVANCED_FACE('',(#344),#345,.T.);
#166=PRESENTATION_STYLE_ASSIGNMENT((#346));
#167=ADVANCED_FACE('',(#347,#348),#349,.T.);
#168=PRESENTATION_STYLE_ASSIGNMENT((#350));
#169=ADVANCED_FACE('',(#351),#352,.T.);
#170=PRESENTATION_STYLE_ASSIGNMENT((#353));
#171=ADVANCED_FACE('',(#354),#355,.T.);
#172=PRESENTATION_STYLE_ASSIGNMENT((#356));
#173=ADVANCED_FACE('',(#357),#358,.T.);
#174=PRESENTATION_STYLE_ASSIGNMENT((#359));
#175=ADVANCED_FACE('',(#360),#361,.F.);
#176=PRESENTATION_STYLE_ASSIGNMENT((#362));
#177=ADVANCED_FACE('',(#363),#364,.F.);
#178=PRESENTATION_STYLE_ASSIGNMENT((#365));
#179=ADVANCED_FACE('',(#366,#367),#368,.F.);
#180=PRESENTATION_STYLE_ASSIGNMENT((#369));
#181=ADVANCED_FACE('',(#370),#371,.F.);
#182=PRESENTATION_STYLE_ASSIGNMENT((#372));
#183=ADVANCED_FACE('',(#373),#374,.F.);
#184=PRESENTATION_STYLE_ASSIGNMENT((#375));
#185=ADVANCED_FACE('',(#376),#377,.F.);
#186=PRESENTATION_STYLE_ASSIGNMENT((#378));
#187=ADVANCED_FACE('',(#379,#380),#381,.F.);
#188=PRESENTATION_STYLE_ASSIGNMENT((#382));
#189=ADVANCED_FACE('',(#383),#384,.F.);
#190=PRESENTATION_STYLE_ASSIGNMENT((#385));
#191=ADVANCED_FACE('',(#386),#387,.F.);
#192=PRESENTATION_STYLE_ASSIGNMENT((#388));
#193=ADVANCED_FACE('',(#389,#390,#391),#392,.T.);
#194=PRESENTATION_STYLE_ASSIGNMENT((#393));
#195=ADVANCED_FACE('',(#394),#395,.T.);
#196=PRESENTATION_STYLE_ASSIGNMENT((#396));
#197=ADVANCED_FACE('',(#397,#398,#399),#400,.T.);
#198=PRESENTATION_STYLE_ASSIGNMENT((#401));
#199=ADVANCED_FACE('',(#402),#403,.T.);
#200=PRESENTATION_STYLE_ASSIGNMENT((#404));
#201=ADVANCED_FACE('',(#405),#406,.T.);
#202=PRESENTATION_STYLE_ASSIGNMENT((#407));
#203=ADVANCED_FACE('',(#408),#409,.F.);
#204=PRESENTATION_STYLE_ASSIGNMENT((#410));
#205=MANIFOLD_SOLID_BREP('2025_06_20_16_14_27_0405',#411);
#206=PRODUCT('2025_06_20_16_14_27_0405','2025_06_20_16_14_27_0405','PART-2025_06_20_16_14_27_0405-DESC',(#412));
#207=PRODUCT_DEFINITION('','NONE',#413,#2);
#208=AXIS2_PLACEMENT_3D('',#414,#415,#416);
#211=LENGTH_MEASURE_WITH_UNIT(LENGTH_MEASURE(1.0),#417);
#214=DIMENSIONAL_EXPONENTS(1.0,0.0,0.0,0.0,0.0,0.0,0.0);
#216=DIMENSIONAL_EXPONENTS(0.0,0.0,0.0,0.0,0.0,0.0,0.0);
#222=SURFACE_STYLE_USAGE(.BOTH.,#418);
#223=FACE_OUTER_BOUND('',#419,.T.);
#224=CYLINDRICAL_SURFACE('',#420,2.25);
#225=SURFACE_STYLE_USAGE(.BOTH.,#421);
#226=FACE_OUTER_BOUND('',#422,.T.);
#227=CONICAL_SURFACE('',#423,2.35,0.785398163397448);
#228=SURFACE_STYLE_USAGE(.BOTH.,#424);
#229=FACE_OUTER_BOUND('',#425,.T.);
#230=CYLINDRICAL_SURFACE('',#426,4.25);
#231=SURFACE_STYLE_USAGE(.BOTH.,#427);
#232=FACE_OUTER_BOUND('',#428,.T.);
#233=CYLINDRICAL_SURFACE('',#429,2.25);
#234=SURFACE_STYLE_USAGE(.BOTH.,#430);
#235=FACE_OUTER_BOUND('',#431,.T.);
#236=CONICAL_SURFACE('',#432,2.35,0.785398163397448);
#237=SURFACE_STYLE_USAGE(.BOTH.,#433);
#238=FACE_OUTER_BOUND('',#434,.T.);
#239=CYLINDRICAL_SURFACE('',#435,4.25);
#240=SURFACE_STYLE_USAGE(.BOTH.,#436);
#241=FACE_OUTER_BOUND('',#437,.T.);
#242=PLANE('',#438);
#243=SURFACE_STYLE_USAGE(.BOTH.,#439);
#244=FACE_BOUND('',#440,.T.);
#245=FACE_OUTER_BOUND('',#441,.T.);
#246=PLANE('',#442);
#247=SURFACE_STYLE_USAGE(.BOTH.,#443);
#248=FACE_OUTER_BOUND('',#444,.T.);
#249=PLANE('',#445);
#250=SURFACE_STYLE_USAGE(.BOTH.,#446);
#251=FACE_OUTER_BOUND('',#447,.T.);
#252=PLANE('',#448);
#253=SURFACE_STYLE_USAGE(.BOTH.,#449);
#254=FACE_OUTER_BOUND('',#450,.T.);
#255=PLANE('',#451);
#256=SURFACE_STYLE_USAGE(.BOTH.,#452);
#257=FACE_OUTER_BOUND('',#453,.T.);
#258=PLANE('',#454);
#259=SURFACE_STYLE_USAGE(.BOTH.,#455);
#260=FACE_OUTER_BOUND('',#456,.T.);
#261=PLANE('',#457);
#262=SURFACE_STYLE_USAGE(.BOTH.,#458);
#263=FACE_OUTER_BOUND('',#459,.T.);
#264=PLANE('',#460);
#265=SURFACE_STYLE_USAGE(.BOTH.,#461);
#266=FACE_OUTER_BOUND('',#462,.T.);
#267=PLANE('',#463);
#268=SURFACE_STYLE_USAGE(.BOTH.,#464);
#269=FACE_OUTER_BOUND('',#465,.T.);
#270=PLANE('',#466);
#271=SURFACE_STYLE_USAGE(.BOTH.,#467);
#272=FACE_OUTER_BOUND('',#468,.T.);
#273=PLANE('',#469);
#274=SURFACE_STYLE_USAGE(.BOTH.,#470);
#275=FACE_OUTER_BOUND('',#471,.T.);
#276=PLANE('',#472);
#277=SURFACE_STYLE_USAGE(.BOTH.,#473);
#278=FACE_OUTER_BOUND('',#474,.T.);
#279=PLANE('',#475);
#280=SURFACE_STYLE_USAGE(.BOTH.,#476);
#281=FACE_OUTER_BOUND('',#477,.T.);
#282=PLANE('',#478);
#283=SURFACE_STYLE_USAGE(.BOTH.,#479);
#284=FACE_OUTER_BOUND('',#480,.T.);
#285=PLANE('',#481);
#286=SURFACE_STYLE_USAGE(.BOTH.,#482);
#287=FACE_OUTER_BOUND('',#483,.T.);
#288=PLANE('',#484);
#289=SURFACE_STYLE_USAGE(.BOTH.,#485);
#290=FACE_OUTER_BOUND('',#486,.T.);
#291=PLANE('',#487);
#292=SURFACE_STYLE_USAGE(.BOTH.,#488);
#293=FACE_OUTER_BOUND('',#489,.T.);
#294=PLANE('',#490);
#295=SURFACE_STYLE_USAGE(.BOTH.,#491);
#296=FACE_OUTER_BOUND('',#492,.T.);
#297=PLANE('',#493);
#298=SURFACE_STYLE_USAGE(.BOTH.,#494);
#299=FACE_OUTER_BOUND('',#495,.T.);
#300=PLANE('',#496);
#301=SURFACE_STYLE_USAGE(.BOTH.,#497);
#302=FACE_OUTER_BOUND('',#498,.T.);
#303=PLANE('',#499);
#304=SURFACE_STYLE_USAGE(.BOTH.,#500);
#305=FACE_OUTER_BOUND('',#501,.T.);
#306=PLANE('',#502);
#307=SURFACE_STYLE_USAGE(.BOTH.,#503);
#308=FACE_OUTER_BOUND('',#504,.T.);
#309=PLANE('',#505);
#310=SURFACE_STYLE_USAGE(.BOTH.,#506);
#311=FACE_OUTER_BOUND('',#507,.T.);
#312=PLANE('',#508);
#313=SURFACE_STYLE_USAGE(.BOTH.,#509);
#314=FACE_OUTER_BOUND('',#510,.T.);
#315=PLANE('',#511);
#316=SURFACE_STYLE_USAGE(.BOTH.,#512);
#317=FACE_OUTER_BOUND('',#513,.T.);
#318=PLANE('',#514);
#319=SURFACE_STYLE_USAGE(.BOTH.,#515);
#320=FACE_OUTER_BOUND('',#516,.T.);
#321=PLANE('',#517);
#322=SURFACE_STYLE_USAGE(.BOTH.,#518);
#323=FACE_OUTER_BOUND('',#519,.T.);
#324=PLANE('',#520);
#325=SURFACE_STYLE_USAGE(.BOTH.,#521);
#326=FACE_OUTER_BOUND('',#522,.T.);
#327=PLANE('',#523);
#328=SURFACE_STYLE_USAGE(.BOTH.,#524);
#329=FACE_OUTER_BOUND('',#525,.T.);
#330=PLANE('',#526);
#331=SURFACE_STYLE_USAGE(.BOTH.,#527);
#332=FACE_OUTER_BOUND('',#528,.T.);
#333=PLANE('',#529);
#334=SURFACE_STYLE_USAGE(.BOTH.,#530);
#335=FACE_OUTER_BOUND('',#531,.T.);
#336=PLANE('',#532);
#337=SURFACE_STYLE_USAGE(.BOTH.,#533);
#338=FACE_OUTER_BOUND('',#534,.T.);
#339=PLANE('',#535);
#340=SURFACE_STYLE_USAGE(.BOTH.,#536);
#341=FACE_OUTER_BOUND('',#537,.T.);
#342=PLANE('',#538);
#343=SURFACE_STYLE_USAGE(.BOTH.,#539);
#344=FACE_OUTER_BOUND('',#540,.T.);
#345=PLANE('',#541);
#346=SURFACE_STYLE_USAGE(.BOTH.,#542);
#347=FACE_BOUND('',#543,.T.);
#348=FACE_OUTER_BOUND('',#544,.T.);
#349=PLANE('',#545);
#350=SURFACE_STYLE_USAGE(.BOTH.,#546);
#351=FACE_OUTER_BOUND('',#547,.T.);
#352=PLANE('',#548);
#353=SURFACE_STYLE_USAGE(.BOTH.,#549);
#354=FACE_OUTER_BOUND('',#550,.T.);
#355=PLANE('',#551);
#356=SURFACE_STYLE_USAGE(.BOTH.,#552);
#357=FACE_OUTER_BOUND('',#553,.T.);
#358=PLANE('',#554);
#359=SURFACE_STYLE_USAGE(.BOTH.,#555);
#360=FACE_OUTER_BOUND('',#556,.T.);
#361=CYLINDRICAL_SURFACE('',#557,0.800000000000002);
#362=SURFACE_STYLE_USAGE(.BOTH.,#558);
#363=FACE_OUTER_BOUND('',#559,.T.);
#364=CYLINDRICAL_SURFACE('',#560,4.25);
#365=SURFACE_STYLE_USAGE(.BOTH.,#561);
#366=FACE_BOUND('',#562,.T.);
#367=FACE_OUTER_BOUND('',#563,.T.);
#368=PLANE('',#564);
#369=SURFACE_STYLE_USAGE(.BOTH.,#565);
#370=FACE_OUTER_BOUND('',#566,.T.);
#371=CONICAL_SURFACE('',#567,2.35,0.785398163397448);
#372=SURFACE_STYLE_USAGE(.BOTH.,#568);
#373=FACE_OUTER_BOUND('',#569,.T.);
#374=CYLINDRICAL_SURFACE('',#570,2.25);
#375=SURFACE_STYLE_USAGE(.BOTH.,#571);
#376=FACE_OUTER_BOUND('',#572,.T.);
#377=CYLINDRICAL_SURFACE('',#573,4.25);
#378=SURFACE_STYLE_USAGE(.BOTH.,#574);
#379=FACE_BOUND('',#575,.T.);
#380=FACE_OUTER_BOUND('',#576,.T.);
#381=PLANE('',#577);
#382=SURFACE_STYLE_USAGE(.BOTH.,#578);
#383=FACE_OUTER_BOUND('',#579,.T.);
#384=CONICAL_SURFACE('',#580,2.35,0.785398163397448);
#385=SURFACE_STYLE_USAGE(.BOTH.,#581);
#386=FACE_OUTER_BOUND('',#582,.T.);
#387=CYLINDRICAL_SURFACE('',#583,2.25);
#388=SURFACE_STYLE_USAGE(.BOTH.,#584);
#389=FACE_OUTER_BOUND('',#585,.T.);
#390=FACE_BOUND('',#586,.T.);
#391=FACE_BOUND('',#587,.T.);
#392=PLANE('',#588);
#393=SURFACE_STYLE_USAGE(.BOTH.,#589);
#394=FACE_OUTER_BOUND('',#590,.T.);
#395=CYLINDRICAL_SURFACE('',#591,0.500000000000001);
#396=SURFACE_STYLE_USAGE(.BOTH.,#592);
#397=FACE_BOUND('',#593,.T.);
#398=FACE_BOUND('',#594,.T.);
#399=FACE_OUTER_BOUND('',#595,.T.);
#400=PLANE('',#596);
#401=SURFACE_STYLE_USAGE(.BOTH.,#597);
#402=FACE_OUTER_BOUND('',#598,.T.);
#403=CYLINDRICAL_SURFACE('',#599,0.500000000000001);
#404=SURFACE_STYLE_USAGE(.BOTH.,#600);
#405=FACE_OUTER_BOUND('',#601,.T.);
#406=PLANE('',#602);
#407=SURFACE_STYLE_USAGE(.BOTH.,#603);
#408=FACE_OUTER_BOUND('',#604,.T.);
#409=PLANE('',#605);
#410=SURFACE_STYLE_USAGE(.BOTH.,#606);
#411=CLOSED_SHELL('',(#85,#87,#89,#91,#93,#95,#97,#99,#101,#103,#105,#107,#109,#111,#113,#115,#117,#119,#121,#123,#125,#127,#129,#131,#133,#135,#137,#139,#141,#143,#145,#147,#149,#151,#153,#155,#157,#159,#161,#163,#165,#167,#169,#171,#173,#175,#177,#179,#181,#183,#185,#187,#189,#191,#193,#195,#197,#199,#201,#203));
#412=PRODUCT_CONTEXT('',#71,'mechanical');
#413=PRODUCT_DEFINITION_FORMATION_WITH_SPECIFIED_SOURCE(' ','NONE',#206,.NOT_KNOWN.);
#414=CARTESIAN_POINT('',(0.0,0.0,0.0));
#415=DIRECTION('',(0.0,0.0,1.0));
#416=DIRECTION('',(1.0,0.0,0.0));
#417= (NAMED_UNIT(#214)LENGTH_UNIT()SI_UNIT(.MILLI.,.METRE.));
#418=SURFACE_SIDE_STYLE('',(#608));
#419=EDGE_LOOP('',(#609,#610,#611,#612));
#420=AXIS2_PLACEMENT_3D('',#613,#614,#615);
#421=SURFACE_SIDE_STYLE('',(#616));
#422=EDGE_LOOP('',(#617,#618,#619,#620));
#423=AXIS2_PLACEMENT_3D('',#621,#622,#623);
#424=SURFACE_SIDE_STYLE('',(#624));
#425=EDGE_LOOP('',(#625,#626,#627,#628));
#426=AXIS2_PLACEMENT_3D('',#629,#630,#631);
#427=SURFACE_SIDE_STYLE('',(#632));
#428=EDGE_LOOP('',(#633,#634,#635,#636));
#429=AXIS2_PLACEMENT_3D('',#637,#638,#639);
#430=SURFACE_SIDE_STYLE('',(#640));
#431=EDGE_LOOP('',(#641,#642,#643,#644));
#432=AXIS2_PLACEMENT_3D('',#645,#646,#647);
#433=SURFACE_SIDE_STYLE('',(#648));
#434=EDGE_LOOP('',(#649,#650,#651,#652));
#435=AXIS2_PLACEMENT_3D('',#653,#654,#655);
#436=SURFACE_SIDE_STYLE('',(#656));
#437=EDGE_LOOP('',(#657,#658,#659,#660));
#438=AXIS2_PLACEMENT_3D('',#661,#662,#663);
#439=SURFACE_SIDE_STYLE('',(#664));
#440=EDGE_LOOP('',(#665,#666,#667,#668,#669,#670,#671,#672));
#441=EDGE_LOOP('',(#673,#674,#675,#676,#677,#678,#679,#680,#681,#682,#683,#684));
#442=AXIS2_PLACEMENT_3D('',#685,#686,#687);
#443=SURFACE_SIDE_STYLE('',(#688));
#444=EDGE_LOOP('',(#689,#690,#691,#692));
#445=AXIS2_PLACEMENT_3D('',#693,#694,#695);
#446=SURFACE_SIDE_STYLE('',(#696));
#447=EDGE_LOOP('',(#697,#698,#699,#700,#701,#702));
#448=AXIS2_PLACEMENT_3D('',#703,#704,#705);
#449=SURFACE_SIDE_STYLE('',(#706));
#450=EDGE_LOOP('',(#707,#708,#709,#710));
#451=AXIS2_PLACEMENT_3D('',#711,#712,#713);
#452=SURFACE_SIDE_STYLE('',(#714));
#453=EDGE_LOOP('',(#715,#716,#717,#718));
#454=AXIS2_PLACEMENT_3D('',#719,#720,#721);
#455=SURFACE_SIDE_STYLE('',(#722));
#456=EDGE_LOOP('',(#723,#724,#725,#726));
#457=AXIS2_PLACEMENT_3D('',#727,#728,#729);
#458=SURFACE_SIDE_STYLE('',(#730));
#459=EDGE_LOOP('',(#731,#732,#733,#734));
#460=AXIS2_PLACEMENT_3D('',#735,#736,#737);
#461=SURFACE_SIDE_STYLE('',(#738));
#462=EDGE_LOOP('',(#739,#740,#741,#742));
#463=AXIS2_PLACEMENT_3D('',#743,#744,#745);
#464=SURFACE_SIDE_STYLE('',(#746));
#465=EDGE_LOOP('',(#747,#748,#749,#750));
#466=AXIS2_PLACEMENT_3D('',#751,#752,#753);
#467=SURFACE_SIDE_STYLE('',(#754));
#468=EDGE_LOOP('',(#755,#756,#757,#758,#759,#760,#761,#762,#763,#764,#765,#766));
#469=AXIS2_PLACEMENT_3D('',#767,#768,#769);
#470=SURFACE_SIDE_STYLE('',(#770));
#471=EDGE_LOOP('',(#771,#772,#773,#774));
#472=AXIS2_PLACEMENT_3D('',#775,#776,#777);
#473=SURFACE_SIDE_STYLE('',(#778));
#474=EDGE_LOOP('',(#779,#780,#781,#782));
#475=AXIS2_PLACEMENT_3D('',#783,#784,#785);
#476=SURFACE_SIDE_STYLE('',(#786));
#477=EDGE_LOOP('',(#787,#788,#789,#790));
#478=AXIS2_PLACEMENT_3D('',#791,#792,#793);
#479=SURFACE_SIDE_STYLE('',(#794));
#480=EDGE_LOOP('',(#795,#796,#797,#798));
#481=AXIS2_PLACEMENT_3D('',#799,#800,#801);
#482=SURFACE_SIDE_STYLE('',(#802));
#483=EDGE_LOOP('',(#803,#804,#805,#806));
#484=AXIS2_PLACEMENT_3D('',#807,#808,#809);
#485=SURFACE_SIDE_STYLE('',(#810));
#486=EDGE_LOOP('',(#811,#812,#813,#814,#815,#816));
#487=AXIS2_PLACEMENT_3D('',#817,#818,#819);
#488=SURFACE_SIDE_STYLE('',(#820));
#489=EDGE_LOOP('',(#821,#822,#823,#824));
#490=AXIS2_PLACEMENT_3D('',#825,#826,#827);
#491=SURFACE_SIDE_STYLE('',(#828));
#492=EDGE_LOOP('',(#829,#830,#831,#832));
#493=AXIS2_PLACEMENT_3D('',#833,#834,#835);
#494=SURFACE_SIDE_STYLE('',(#836));
#495=EDGE_LOOP('',(#837,#838,#839,#840,#841,#842));
#496=AXIS2_PLACEMENT_3D('',#843,#844,#845);
#497=SURFACE_SIDE_STYLE('',(#846));
#498=EDGE_LOOP('',(#847,#848,#849,#850));
#499=AXIS2_PLACEMENT_3D('',#851,#852,#853);
#500=SURFACE_SIDE_STYLE('',(#854));
#501=EDGE_LOOP('',(#855,#856,#857,#858));
#502=AXIS2_PLACEMENT_3D('',#859,#860,#861);
#503=SURFACE_SIDE_STYLE('',(#862));
#504=EDGE_LOOP('',(#863,#864,#865,#866,#867,#868));
#505=AXIS2_PLACEMENT_3D('',#869,#870,#871);
#506=SURFACE_SIDE_STYLE('',(#872));
#507=EDGE_LOOP('',(#873,#874,#875,#876));
#508=AXIS2_PLACEMENT_3D('',#877,#878,#879);
#509=SURFACE_SIDE_STYLE('',(#880));
#510=EDGE_LOOP('',(#881,#882,#883,#884,#885,#886,#887,#888,#889,#890,#891,#892));
#511=AXIS2_PLACEMENT_3D('',#893,#894,#895);
#512=SURFACE_SIDE_STYLE('',(#896));
#513=EDGE_LOOP('',(#897,#898,#899,#900));
#514=AXIS2_PLACEMENT_3D('',#901,#902,#903);
#515=SURFACE_SIDE_STYLE('',(#904));
#516=EDGE_LOOP('',(#905,#906,#907,#908));
#517=AXIS2_PLACEMENT_3D('',#909,#910,#911);
#518=SURFACE_SIDE_STYLE('',(#912));
#519=EDGE_LOOP('',(#913,#914,#915,#916,#917,#918));
#520=AXIS2_PLACEMENT_3D('',#919,#920,#921);
#521=SURFACE_SIDE_STYLE('',(#922));
#522=EDGE_LOOP('',(#923,#924,#925,#926));
#523=AXIS2_PLACEMENT_3D('',#927,#928,#929);
#524=SURFACE_SIDE_STYLE('',(#930));
#525=EDGE_LOOP('',(#931,#932,#933,#934));
#526=AXIS2_PLACEMENT_3D('',#935,#936,#937);
#527=SURFACE_SIDE_STYLE('',(#938));
#528=EDGE_LOOP('',(#939,#940,#941,#942));
#529=AXIS2_PLACEMENT_3D('',#943,#944,#945);
#530=SURFACE_SIDE_STYLE('',(#946));
#531=EDGE_LOOP('',(#947,#948,#949,#950,#951,#952));
#532=AXIS2_PLACEMENT_3D('',#953,#954,#955);
#533=SURFACE_SIDE_STYLE('',(#956));
#534=EDGE_LOOP('',(#957,#958,#959,#960));
#535=AXIS2_PLACEMENT_3D('',#961,#962,#963);
#536=SURFACE_SIDE_STYLE('',(#964));
#537=EDGE_LOOP('',(#965,#966,#967,#968));
#538=AXIS2_PLACEMENT_3D('',#969,#970,#971);
#539=SURFACE_SIDE_STYLE('',(#972));
#540=EDGE_LOOP('',(#973,#974,#975,#976,#977,#978));
#541=AXIS2_PLACEMENT_3D('',#979,#980,#981);
#542=SURFACE_SIDE_STYLE('',(#982));
#543=EDGE_LOOP('',(#983,#984,#985,#986));
#544=EDGE_LOOP('',(#987,#988,#989,#990));
#545=AXIS2_PLACEMENT_3D('',#991,#992,#993);
#546=SURFACE_SIDE_STYLE('',(#994));
#547=EDGE_LOOP('',(#995,#996,#997,#998,#999,#1000));
#548=AXIS2_PLACEMENT_3D('',#1001,#1002,#1003);
#549=SURFACE_SIDE_STYLE('',(#1004));
#550=EDGE_LOOP('',(#1005,#1006,#1007,#1008,#1009,#1010));
#551=AXIS2_PLACEMENT_3D('',#1011,#1012,#1013);
#552=SURFACE_SIDE_STYLE('',(#1014));
#553=EDGE_LOOP('',(#1015,#1016,#1017,#1018,#1019,#1020,#1021,#1022));
#554=AXIS2_PLACEMENT_3D('',#1023,#1024,#1025);
#555=SURFACE_SIDE_STYLE('',(#1026));
#556=EDGE_LOOP('',(#1027,#1028,#1029,#1030));
#557=AXIS2_PLACEMENT_3D('',#1031,#1032,#1033);
#558=SURFACE_SIDE_STYLE('',(#1034));
#559=EDGE_LOOP('',(#1035,#1036,#1037,#1038));
#560=AXIS2_PLACEMENT_3D('',#1039,#1040,#1041);
#561=SURFACE_SIDE_STYLE('',(#1042));
#562=EDGE_LOOP('',(#1043,#1044));
#563=EDGE_LOOP('',(#1045,#1046));
#564=AXIS2_PLACEMENT_3D('',#1047,#1048,#1049);
#565=SURFACE_SIDE_STYLE('',(#1050));
#566=EDGE_LOOP('',(#1051,#1052,#1053,#1054));
#567=AXIS2_PLACEMENT_3D('',#1055,#1056,#1057);
#568=SURFACE_SIDE_STYLE('',(#1058));
#569=EDGE_LOOP('',(#1059,#1060,#1061,#1062));
#570=AXIS2_PLACEMENT_3D('',#1063,#1064,#1065);
#571=SURFACE_SIDE_STYLE('',(#1066));
#572=EDGE_LOOP('',(#1067,#1068,#1069,#1070));
#573=AXIS2_PLACEMENT_3D('',#1071,#1072,#1073);
#574=SURFACE_SIDE_STYLE('',(#1074));
#575=EDGE_LOOP('',(#1075,#1076));
#576=EDGE_LOOP('',(#1077,#1078));
#577=AXIS2_PLACEMENT_3D('',#1079,#1080,#1081);
#578=SURFACE_SIDE_STYLE('',(#1082));
#579=EDGE_LOOP('',(#1083,#1084,#1085,#1086));
#580=AXIS2_PLACEMENT_3D('',#1087,#1088,#1089);
#581=SURFACE_SIDE_STYLE('',(#1090));
#582=EDGE_LOOP('',(#1091,#1092,#1093,#1094));
#583=AXIS2_PLACEMENT_3D('',#1095,#1096,#1097);
#584=SURFACE_SIDE_STYLE('',(#1098));
#585=EDGE_LOOP('',(#1099,#1100,#1101,#1102));
#586=EDGE_LOOP('',(#1103,#1104));
#587=EDGE_LOOP('',(#1105,#1106));
#588=AXIS2_PLACEMENT_3D('',#1107,#1108,#1109);
#589=SURFACE_SIDE_STYLE('',(#1110));
#590=EDGE_LOOP('',(#1111,#1112,#1113,#1114));
#591=AXIS2_PLACEMENT_3D('',#1115,#1116,#1117);
#592=SURFACE_SIDE_STYLE('',(#1118));
#593=EDGE_LOOP('',(#1119,#1120));
#594=EDGE_LOOP('',(#1121,#1122));
#595=EDGE_LOOP('',(#1123,#1124,#1125,#1126));
#596=AXIS2_PLACEMENT_3D('',#1127,#1128,#1129);
#597=SURFACE_SIDE_STYLE('',(#1130));
#598=EDGE_LOOP('',(#1131,#1132,#1133,#1134));
#599=AXIS2_PLACEMENT_3D('',#1135,#1136,#1137);
#600=SURFACE_SIDE_STYLE('',(#1138));
#601=EDGE_LOOP('',(#1139,#1140,#1141,#1142));
#602=AXIS2_PLACEMENT_3D('',#1143,#1144,#1145);
#603=SURFACE_SIDE_STYLE('',(#1146));
#604=EDGE_LOOP('',(#1147,#1148,#1149,#1150,#1151,#1152));
#605=AXIS2_PLACEMENT_3D('',#1153,#1154,#1155);
#606=SURFACE_SIDE_STYLE('',(#1156));
#608=SURFACE_STYLE_FILL_AREA(#1157);
#609=ORIENTED_EDGE('',*,*,#1158,.F.);
#610=ORIENTED_EDGE('',*,*,#1159,.F.);
#611=ORIENTED_EDGE('',*,*,#1160,.F.);
#612=ORIENTED_EDGE('',*,*,#1161,.F.);
#613=CARTESIAN_POINT('',(0.0,-10.0,9.4));
#614=DIRECTION('',(0.0,0.0,1.0));
#615=DIRECTION('',(1.0,0.0,0.0));
#616=SURFACE_STYLE_FILL_AREA(#1162);
#617=ORIENTED_EDGE('',*,*,#1163,.F.);
#618=ORIENTED_EDGE('',*,*,#1161,.T.);
#619=ORIENTED_EDGE('',*,*,#1164,.F.);
#620=ORIENTED_EDGE('',*,*,#1165,.F.);
#621=CARTESIAN_POINT('',(0.0,-10.0,8.1));
#622=DIRECTION('',(-0.0,-0.0,-1.0));
#623=DIRECTION('',(1.0,0.0,0.0));
#624=SURFACE_STYLE_FILL_AREA(#1166);
#625=ORIENTED_EDGE('',*,*,#1167,.F.);
#626=ORIENTED_EDGE('',*,*,#1168,.T.);
#627=ORIENTED_EDGE('',*,*,#1169,.F.);
#628=ORIENTED_EDGE('',*,*,#1170,.F.);
#629=CARTESIAN_POINT('',(0.0,-10.0,6.85));
#630=DIRECTION('',(0.0,0.0,1.0));
#631=DIRECTION('',(1.0,0.0,0.0));
#632=SURFACE_STYLE_FILL_AREA(#1171);
#633=ORIENTED_EDGE('',*,*,#1172,.F.);
#634=ORIENTED_EDGE('',*,*,#1173,.F.);
#635=ORIENTED_EDGE('',*,*,#1174,.F.);
#636=ORIENTED_EDGE('',*,*,#1175,.F.);
#637=CARTESIAN_POINT('',(0.0,10.0,9.4));
#638=DIRECTION('',(0.0,0.0,1.0));
#639=DIRECTION('',(1.0,0.0,0.0));
#640=SURFACE_STYLE_FILL_AREA(#1176);
#641=ORIENTED_EDGE('',*,*,#1177,.F.);
#642=ORIENTED_EDGE('',*,*,#1175,.T.);
#643=ORIENTED_EDGE('',*,*,#1178,.F.);
#644=ORIENTED_EDGE('',*,*,#1179,.F.);
#645=CARTESIAN_POINT('',(0.0,10.0,8.1));
#646=DIRECTION('',(-0.0,-0.0,-1.0));
#647=DIRECTION('',(1.0,0.0,0.0));
#648=SURFACE_STYLE_FILL_AREA(#1180);
#649=ORIENTED_EDGE('',*,*,#1181,.F.);
#650=ORIENTED_EDGE('',*,*,#1182,.T.);
#651=ORIENTED_EDGE('',*,*,#1183,.F.);
#652=ORIENTED_EDGE('',*,*,#1184,.F.);
#653=CARTESIAN_POINT('',(0.0,10.0,6.85));
#654=DIRECTION('',(0.0,0.0,1.0));
#655=DIRECTION('',(1.0,0.0,0.0));
#656=SURFACE_STYLE_FILL_AREA(#1185);
#657=ORIENTED_EDGE('',*,*,#1186,.F.);
#658=ORIENTED_EDGE('',*,*,#1187,.T.);
#659=ORIENTED_EDGE('',*,*,#1188,.T.);
#660=ORIENTED_EDGE('',*,*,#1189,.F.);
#661=CARTESIAN_POINT('',(-7.0,0.0,7.1));
#662=DIRECTION('',(1.0,0.0,-0.0));
#663=DIRECTION('',(0.0,0.0,1.0));
#664=SURFACE_STYLE_FILL_AREA(#1190);
#665=ORIENTED_EDGE('',*,*,#1191,.F.);
#666=ORIENTED_EDGE('',*,*,#1192,.F.);
#667=ORIENTED_EDGE('',*,*,#1193,.F.);
#668=ORIENTED_EDGE('',*,*,#1194,.F.);
#669=ORIENTED_EDGE('',*,*,#1195,.F.);
#670=ORIENTED_EDGE('',*,*,#1196,.T.);
#671=ORIENTED_EDGE('',*,*,#1197,.T.);
#672=ORIENTED_EDGE('',*,*,#1198,.T.);
#673=ORIENTED_EDGE('',*,*,#1199,.T.);
#674=ORIENTED_EDGE('',*,*,#1200,.F.);
#675=ORIENTED_EDGE('',*,*,#1201,.T.);
#676=ORIENTED_EDGE('',*,*,#1202,.T.);
#677=ORIENTED_EDGE('',*,*,#1203,.T.);
#678=ORIENTED_EDGE('',*,*,#1204,.T.);
#679=ORIENTED_EDGE('',*,*,#1205,.T.);
#680=ORIENTED_EDGE('',*,*,#1206,.T.);
#681=ORIENTED_EDGE('',*,*,#1207,.F.);
#682=ORIENTED_EDGE('',*,*,#1208,.F.);
#683=ORIENTED_EDGE('',*,*,#1209,.T.);
#684=ORIENTED_EDGE('',*,*,#1210,.T.);
#685=CARTESIAN_POINT('',(0.0,-20.0,7.71995));
#686=DIRECTION('',(0.0,0.0,1.0));
#687=DIRECTION('',(1.0,-0.0,0.0));
#688=SURFACE_STYLE_FILL_AREA(#1211);
#689=ORIENTED_EDGE('',*,*,#1212,.F.);
#690=ORIENTED_EDGE('',*,*,#1198,.F.);
#691=ORIENTED_EDGE('',*,*,#1213,.T.);
#692=ORIENTED_EDGE('',*,*,#1214,.F.);
#693=CARTESIAN_POINT('',(0.0,-15.0,7.1));
#694=DIRECTION('',(0.0,1.0,0.0));
#695=DIRECTION('',(0.0,0.0,-1.0));
#696=SURFACE_STYLE_FILL_AREA(#1215);
#697=ORIENTED_EDGE('',*,*,#1216,.F.);
#698=ORIENTED_EDGE('',*,*,#1217,.T.);
#699=ORIENTED_EDGE('',*,*,#1218,.T.);
#700=ORIENTED_EDGE('',*,*,#1219,.F.);
#701=ORIENTED_EDGE('',*,*,#1220,.T.);
#702=ORIENTED_EDGE('',*,*,#1187,.F.);
#703=CARTESIAN_POINT('',(0.0,-15.0,7.1));
#704=DIRECTION('',(0.0,1.0,0.0));
#705=DIRECTION('',(0.0,0.0,-1.0));
#706=SURFACE_STYLE_FILL_AREA(#1221);
#707=ORIENTED_EDGE('',*,*,#1222,.F.);
#708=ORIENTED_EDGE('',*,*,#1223,.F.);
#709=ORIENTED_EDGE('',*,*,#1224,.F.);
#710=ORIENTED_EDGE('',*,*,#1196,.F.);
#711=CARTESIAN_POINT('',(0.0,15.0,7.1));
#712=DIRECTION('',(0.0,-1.0,0.0));
#713=DIRECTION('',(0.0,0.0,1.0));
#714=SURFACE_STYLE_FILL_AREA(#1225);
#715=ORIENTED_EDGE('',*,*,#1226,.F.);
#716=ORIENTED_EDGE('',*,*,#1213,.F.);
#717=ORIENTED_EDGE('',*,*,#1197,.F.);
#718=ORIENTED_EDGE('',*,*,#1224,.T.);
#719=CARTESIAN_POINT('',(7.0,0.0,7.1));
#720=DIRECTION('',(-1.0,0.0,0.0));
#721=DIRECTION('',(0.0,0.0,-1.0));
#722=SURFACE_STYLE_FILL_AREA(#1227);
#723=ORIENTED_EDGE('',*,*,#1199,.F.);
#724=ORIENTED_EDGE('',*,*,#1228,.F.);
#725=ORIENTED_EDGE('',*,*,#1229,.F.);
#726=ORIENTED_EDGE('',*,*,#1230,.T.);
#727=CARTESIAN_POINT('',(6.0,-19.5,7.85));
#728=DIRECTION('',(-1.0,0.0,0.0));
#729=DIRECTION('',(0.0,0.0,-1.0));
#730=SURFACE_STYLE_FILL_AREA(#1231);
#731=ORIENTED_EDGE('',*,*,#1210,.F.);
#732=ORIENTED_EDGE('',*,*,#1232,.F.);
#733=ORIENTED_EDGE('',*,*,#1233,.F.);
#734=ORIENTED_EDGE('',*,*,#1228,.T.);
#735=CARTESIAN_POINT('',(0.0,-19.0,7.85));
#736=DIRECTION('',(0.0,-1.0,0.0));
#737=DIRECTION('',(0.0,0.0,1.0));
#738=SURFACE_STYLE_FILL_AREA(#1234);
#739=ORIENTED_EDGE('',*,*,#1235,.T.);
#740=ORIENTED_EDGE('',*,*,#1236,.T.);
#741=ORIENTED_EDGE('',*,*,#1229,.T.);
#742=ORIENTED_EDGE('',*,*,#1233,.T.);
#743=CARTESIAN_POINT('',(0.0,-19.5,8.85));
#744=DIRECTION('',(0.0,0.0,1.0));
#745=DIRECTION('',(-1.0,0.0,0.0));
#746=SURFACE_STYLE_FILL_AREA(#1237);
#747=ORIENTED_EDGE('',*,*,#1209,.F.);
#748=ORIENTED_EDGE('',*,*,#1238,.F.);
#749=ORIENTED_EDGE('',*,*,#1235,.F.);
#750=ORIENTED_EDGE('',*,*,#1232,.T.);
#751=CARTESIAN_POINT('',(-6.0,-19.5,7.85));
#752=DIRECTION('',(1.0,0.0,-0.0));
#753=DIRECTION('',(0.0,0.0,1.0));
#754=SURFACE_STYLE_FILL_AREA(#1239);
#755=ORIENTED_EDGE('',*,*,#1200,.T.);
#756=ORIENTED_EDGE('',*,*,#1230,.F.);
#757=ORIENTED_EDGE('',*,*,#1236,.F.);
#758=ORIENTED_EDGE('',*,*,#1238,.T.);
#759=ORIENTED_EDGE('',*,*,#1208,.T.);
#760=ORIENTED_EDGE('',*,*,#1240,.T.);
#761=ORIENTED_EDGE('',*,*,#1241,.T.);
#762=ORIENTED_EDGE('',*,*,#1242,.T.);
#763=ORIENTED_EDGE('',*,*,#1243,.T.);
#764=ORIENTED_EDGE('',*,*,#1244,.T.);
#765=ORIENTED_EDGE('',*,*,#1245,.T.);
#766=ORIENTED_EDGE('',*,*,#1246,.T.);
#767=CARTESIAN_POINT('',(-1.11022302462516E-16,-20.0,6.035));
#768=DIRECTION('',(0.0,1.0,0.0));
#769=DIRECTION('',(-1.0,0.0,0.0));
#770=SURFACE_STYLE_FILL_AREA(#1247);
#771=ORIENTED_EDGE('',*,*,#1203,.F.);
#772=ORIENTED_EDGE('',*,*,#1248,.F.);
#773=ORIENTED_EDGE('',*,*,#1249,.F.);
#774=ORIENTED_EDGE('',*,*,#1250,.T.);
#775=CARTESIAN_POINT('',(6.0,19.5,7.85));
#776=DIRECTION('',(-1.0,0.0,0.0));
#777=DIRECTION('',(0.0,0.0,-1.0));
#778=SURFACE_STYLE_FILL_AREA(#1251);
#779=ORIENTED_EDGE('',*,*,#1252,.T.);
#780=ORIENTED_EDGE('',*,*,#1253,.T.);
#781=ORIENTED_EDGE('',*,*,#1249,.T.);
#782=ORIENTED_EDGE('',*,*,#1254,.T.);
#783=CARTESIAN_POINT('',(0.0,19.5,8.85));
#784=DIRECTION('',(0.0,0.0,1.0));
#785=DIRECTION('',(-1.0,0.0,0.0));
#786=SURFACE_STYLE_FILL_AREA(#1255);
#787=ORIENTED_EDGE('',*,*,#1204,.F.);
#788=ORIENTED_EDGE('',*,*,#1250,.F.);
#789=ORIENTED_EDGE('',*,*,#1253,.F.);
#790=ORIENTED_EDGE('',*,*,#1256,.T.);
#791=CARTESIAN_POINT('',(0.0,19.0,7.85));
#792=DIRECTION('',(0.0,1.0,0.0));
#793=DIRECTION('',(0.0,0.0,-1.0));
#794=SURFACE_STYLE_FILL_AREA(#1257);
#795=ORIENTED_EDGE('',*,*,#1205,.F.);
#796=ORIENTED_EDGE('',*,*,#1256,.F.);
#797=ORIENTED_EDGE('',*,*,#1252,.F.);
#798=ORIENTED_EDGE('',*,*,#1258,.T.);
#799=CARTESIAN_POINT('',(-6.0,19.5,7.85));
#800=DIRECTION('',(1.0,0.0,-0.0));
#801=DIRECTION('',(0.0,0.0,1.0));
#802=SURFACE_STYLE_FILL_AREA(#1259);
#803=ORIENTED_EDGE('',*,*,#1260,.F.);
#804=ORIENTED_EDGE('',*,*,#1245,.F.);
#805=ORIENTED_EDGE('',*,*,#1261,.F.);
#806=ORIENTED_EDGE('',*,*,#1262,.F.);
#807=CARTESIAN_POINT('',(11.7115,-19.5,7.85));
#808=DIRECTION('',(-0.866156744758905,0.499772441725888,0.0));
#809=DIRECTION('',(0.499772441725888,0.866156744758905,0.0));
#810=SURFACE_STYLE_FILL_AREA(#1263);
#811=ORIENTED_EDGE('',*,*,#1260,.T.);
#812=ORIENTED_EDGE('',*,*,#1264,.T.);
#813=ORIENTED_EDGE('',*,*,#1265,.T.);
#814=ORIENTED_EDGE('',*,*,#1266,.T.);
#815=ORIENTED_EDGE('',*,*,#1201,.F.);
#816=ORIENTED_EDGE('',*,*,#1246,.F.);
#817=CARTESIAN_POINT('',(11.66145,-20.0,7.43145));
#818=DIRECTION('',(0.707106781186548,0.0,0.707106781186548));
#819=DIRECTION('',(0.707106781186548,-0.0,-0.707106781186548));
#820=SURFACE_STYLE_FILL_AREA(#1267);
#821=ORIENTED_EDGE('',*,*,#1262,.T.);
#822=ORIENTED_EDGE('',*,*,#1268,.T.);
#823=ORIENTED_EDGE('',*,*,#1269,.T.);
#824=ORIENTED_EDGE('',*,*,#1264,.F.);
#825=CARTESIAN_POINT('',(11.94995,-20.0,6.035));
#826=DIRECTION('',(1.0,0.0,0.0));
#827=DIRECTION('',(0.0,-0.0,-1.0));
#828=SURFACE_STYLE_FILL_AREA(#1270);
#829=ORIENTED_EDGE('',*,*,#1271,.F.);
#830=ORIENTED_EDGE('',*,*,#1272,.F.);
#831=ORIENTED_EDGE('',*,*,#1273,.F.);
#832=ORIENTED_EDGE('',*,*,#1274,.F.);
#833=CARTESIAN_POINT('',(-11.7115,19.5,7.85));
#834=DIRECTION('',(0.866156744758905,-0.499772441725888,0.0));
#835=DIRECTION('',(-0.499772441725888,-0.866156744758905,0.0));
#836=SURFACE_STYLE_FILL_AREA(#1275);
#837=ORIENTED_EDGE('',*,*,#1271,.T.);
#838=ORIENTED_EDGE('',*,*,#1276,.F.);
#839=ORIENTED_EDGE('',*,*,#1277,.T.);
#840=ORIENTED_EDGE('',*,*,#1240,.F.);
#841=ORIENTED_EDGE('',*,*,#1207,.T.);
#842=ORIENTED_EDGE('',*,*,#1278,.T.);
#843=CARTESIAN_POINT('',(-11.66145,-20.0,7.43145));
#844=DIRECTION('',(-0.707106781186548,0.0,0.707106781186548));
#845=DIRECTION('',(0.707106781186548,0.0,0.707106781186548));
#846=SURFACE_STYLE_FILL_AREA(#1279);
#847=ORIENTED_EDGE('',*,*,#1274,.T.);
#848=ORIENTED_EDGE('',*,*,#1280,.F.);
#849=ORIENTED_EDGE('',*,*,#1281,.T.);
#850=ORIENTED_EDGE('',*,*,#1276,.T.);
#851=CARTESIAN_POINT('',(-11.94995,-20.0,6.035));
#852=DIRECTION('',(-1.0,0.0,0.0));
#853=DIRECTION('',(0.0,0.0,1.0));
#854=SURFACE_STYLE_FILL_AREA(#1282);
#855=ORIENTED_EDGE('',*,*,#1283,.F.);
#856=ORIENTED_EDGE('',*,*,#1241,.F.);
#857=ORIENTED_EDGE('',*,*,#1277,.F.);
#858=ORIENTED_EDGE('',*,*,#1281,.F.);
#859=CARTESIAN_POINT('',(-11.7115,-19.5,4.35));
#860=DIRECTION('',(0.866156744758905,0.499772441725888,0.0));
#861=DIRECTION('',(-0.499772441725888,0.866156744758905,0.0));
#862=SURFACE_STYLE_FILL_AREA(#1284);
#863=ORIENTED_EDGE('',*,*,#1273,.T.);
#864=ORIENTED_EDGE('',*,*,#1285,.T.);
#865=ORIENTED_EDGE('',*,*,#1286,.F.);
#866=ORIENTED_EDGE('',*,*,#1242,.F.);
#867=ORIENTED_EDGE('',*,*,#1283,.T.);
#868=ORIENTED_EDGE('',*,*,#1280,.T.);
#869=CARTESIAN_POINT('',(-11.66145,-20.0,4.63855));
#870=DIRECTION('',(-0.707106781186548,0.0,-0.707106781186548));
#871=DIRECTION('',(-0.707106781186548,0.0,0.707106781186548));
#872=SURFACE_STYLE_FILL_AREA(#1287);
#873=ORIENTED_EDGE('',*,*,#1265,.F.);
#874=ORIENTED_EDGE('',*,*,#1269,.F.);
#875=ORIENTED_EDGE('',*,*,#1288,.F.);
#876=ORIENTED_EDGE('',*,*,#1289,.F.);
#877=CARTESIAN_POINT('',(11.7115,19.5,4.35));
#878=DIRECTION('',(-0.866156744758905,-0.499772441725888,0.0));
#879=DIRECTION('',(0.499772441725888,-0.866156744758905,0.0));
#880=SURFACE_STYLE_FILL_AREA(#1290);
#881=ORIENTED_EDGE('',*,*,#1206,.F.);
#882=ORIENTED_EDGE('',*,*,#1258,.F.);
#883=ORIENTED_EDGE('',*,*,#1254,.F.);
#884=ORIENTED_EDGE('',*,*,#1248,.T.);
#885=ORIENTED_EDGE('',*,*,#1202,.F.);
#886=ORIENTED_EDGE('',*,*,#1266,.F.);
#887=ORIENTED_EDGE('',*,*,#1289,.T.);
#888=ORIENTED_EDGE('',*,*,#1291,.F.);
#889=ORIENTED_EDGE('',*,*,#1292,.F.);
#890=ORIENTED_EDGE('',*,*,#1285,.F.);
#891=ORIENTED_EDGE('',*,*,#1272,.T.);
#892=ORIENTED_EDGE('',*,*,#1278,.F.);
#893=CARTESIAN_POINT('',(-2.4980018054066E-16,20.0,6.035));
#894=DIRECTION('',(0.0,1.0,0.0));
#895=DIRECTION('',(-1.0,0.0,0.0));
#896=SURFACE_STYLE_FILL_AREA(#1293);
#897=ORIENTED_EDGE('',*,*,#1294,.F.);
#898=ORIENTED_EDGE('',*,*,#1295,.F.);
#899=ORIENTED_EDGE('',*,*,#1188,.F.);
#900=ORIENTED_EDGE('',*,*,#1220,.F.);
#901=CARTESIAN_POINT('',(0.0,0.0,5.35));
#902=DIRECTION('',(0.0,0.0,1.0));
#903=DIRECTION('',(-1.0,0.0,0.0));
#904=SURFACE_STYLE_FILL_AREA(#1296);
#905=ORIENTED_EDGE('',*,*,#1297,.F.);
#906=ORIENTED_EDGE('',*,*,#1218,.F.);
#907=ORIENTED_EDGE('',*,*,#1298,.F.);
#908=ORIENTED_EDGE('',*,*,#1299,.F.);
#909=CARTESIAN_POINT('',(0.0,0.0,5.35));
#910=DIRECTION('',(0.0,0.0,1.0));
#911=DIRECTION('',(-1.0,0.0,0.0));
#912=SURFACE_STYLE_FILL_AREA(#1300);
#913=ORIENTED_EDGE('',*,*,#1301,.F.);
#914=ORIENTED_EDGE('',*,*,#1189,.T.);
#915=ORIENTED_EDGE('',*,*,#1295,.T.);
#916=ORIENTED_EDGE('',*,*,#1302,.F.);
#917=ORIENTED_EDGE('',*,*,#1299,.T.);
#918=ORIENTED_EDGE('',*,*,#1303,.F.);
#919=CARTESIAN_POINT('',(0.0,15.0,7.1));
#920=DIRECTION('',(0.0,-1.0,0.0));
#921=DIRECTION('',(0.0,0.0,1.0));
#922=SURFACE_STYLE_FILL_AREA(#1304);
#923=ORIENTED_EDGE('',*,*,#1305,.F.);
#924=ORIENTED_EDGE('',*,*,#1303,.T.);
#925=ORIENTED_EDGE('',*,*,#1298,.T.);
#926=ORIENTED_EDGE('',*,*,#1217,.F.);
#927=CARTESIAN_POINT('',(7.0,0.0,7.1));
#928=DIRECTION('',(-1.0,0.0,0.0));
#929=DIRECTION('',(0.0,0.0,-1.0));
#930=SURFACE_STYLE_FILL_AREA(#1306);
#931=ORIENTED_EDGE('',*,*,#1302,.T.);
#932=ORIENTED_EDGE('',*,*,#1307,.F.);
#933=ORIENTED_EDGE('',*,*,#1308,.F.);
#934=ORIENTED_EDGE('',*,*,#1309,.F.);
#935=CARTESIAN_POINT('',(0.0,0.0,5.35));
#936=DIRECTION('',(0.0,0.0,1.0));
#937=DIRECTION('',(-1.0,0.0,0.0));
#938=SURFACE_STYLE_FILL_AREA(#1310);
#939=ORIENTED_EDGE('',*,*,#1311,.F.);
#940=ORIENTED_EDGE('',*,*,#1312,.F.);
#941=ORIENTED_EDGE('',*,*,#1313,.T.);
#942=ORIENTED_EDGE('',*,*,#1314,.T.);
#943=CARTESIAN_POINT('',(0.0,-16.75,4.85));
#944=DIRECTION('',(0.0,1.0,0.0));
#945=DIRECTION('',(0.0,0.0,-1.0));
#946=SURFACE_STYLE_FILL_AREA(#1315);
#947=ORIENTED_EDGE('',*,*,#1316,.F.);
#948=ORIENTED_EDGE('',*,*,#1314,.F.);
#949=ORIENTED_EDGE('',*,*,#1317,.T.);
#950=ORIENTED_EDGE('',*,*,#1297,.T.);
#951=ORIENTED_EDGE('',*,*,#1309,.T.);
#952=ORIENTED_EDGE('',*,*,#1318,.T.);
#953=CARTESIAN_POINT('',(5.2,0.0,4.85));
#954=DIRECTION('',(-1.0,0.0,0.0));
#955=DIRECTION('',(0.0,0.0,-1.0));
#956=SURFACE_STYLE_FILL_AREA(#1319);
#957=ORIENTED_EDGE('',*,*,#1219,.T.);
#958=ORIENTED_EDGE('',*,*,#1317,.F.);
#959=ORIENTED_EDGE('',*,*,#1313,.F.);
#960=ORIENTED_EDGE('',*,*,#1320,.F.);
#961=CARTESIAN_POINT('',(0.0,0.0,5.35));
#962=DIRECTION('',(0.0,0.0,1.0));
#963=DIRECTION('',(-1.0,0.0,0.0));
#964=SURFACE_STYLE_FILL_AREA(#1321);
#965=ORIENTED_EDGE('',*,*,#1322,.F.);
#966=ORIENTED_EDGE('',*,*,#1318,.F.);
#967=ORIENTED_EDGE('',*,*,#1308,.T.);
#968=ORIENTED_EDGE('',*,*,#1323,.T.);
#969=CARTESIAN_POINT('',(0.0,16.75,4.85));
#970=DIRECTION('',(0.0,-1.0,0.0));
#971=DIRECTION('',(0.0,0.0,1.0));
#972=SURFACE_STYLE_FILL_AREA(#1324);
#973=ORIENTED_EDGE('',*,*,#1325,.F.);
#974=ORIENTED_EDGE('',*,*,#1323,.F.);
#975=ORIENTED_EDGE('',*,*,#1307,.T.);
#976=ORIENTED_EDGE('',*,*,#1294,.T.);
#977=ORIENTED_EDGE('',*,*,#1320,.T.);
#978=ORIENTED_EDGE('',*,*,#1312,.T.);
#979=CARTESIAN_POINT('',(-5.2,0.0,4.85));
#980=DIRECTION('',(1.0,0.0,-0.0));
#981=DIRECTION('',(0.0,0.0,1.0));
#982=SURFACE_STYLE_FILL_AREA(#1326);
#983=ORIENTED_EDGE('',*,*,#1322,.T.);
#984=ORIENTED_EDGE('',*,*,#1325,.T.);
#985=ORIENTED_EDGE('',*,*,#1311,.T.);
#986=ORIENTED_EDGE('',*,*,#1316,.T.);
#987=ORIENTED_EDGE('',*,*,#1292,.T.);
#988=ORIENTED_EDGE('',*,*,#1327,.F.);
#989=ORIENTED_EDGE('',*,*,#1243,.F.);
#990=ORIENTED_EDGE('',*,*,#1286,.T.);
#991=CARTESIAN_POINT('',(8.28645,-20.0,4.35005));
#992=DIRECTION('',(0.0,0.0,-1.0));
#993=DIRECTION('',(-1.0,0.0,0.0));
#994=SURFACE_STYLE_FILL_AREA(#1328);
#995=ORIENTED_EDGE('',*,*,#1261,.T.);
#996=ORIENTED_EDGE('',*,*,#1244,.F.);
#997=ORIENTED_EDGE('',*,*,#1327,.T.);
#998=ORIENTED_EDGE('',*,*,#1291,.T.);
#999=ORIENTED_EDGE('',*,*,#1288,.T.);
#1000=ORIENTED_EDGE('',*,*,#1268,.F.);
#1001=CARTESIAN_POINT('',(11.66145,-20.0,4.63855));
#1002=DIRECTION('',(0.707106781186548,0.0,-0.707106781186548));
#1003=DIRECTION('',(-0.707106781186548,0.0,-0.707106781186548));
#1004=SURFACE_STYLE_FILL_AREA(#1329);
#1005=ORIENTED_EDGE('',*,*,#1192,.T.);
#1006=ORIENTED_EDGE('',*,*,#1330,.F.);
#1007=ORIENTED_EDGE('',*,*,#1331,.T.);
#1008=ORIENTED_EDGE('',*,*,#1332,.F.);
#1009=ORIENTED_EDGE('',*,*,#1333,.T.);
#1010=ORIENTED_EDGE('',*,*,#1334,.F.);
#1011=CARTESIAN_POINT('',(-0.000468075261056002,-15.05,7.14819321502029));
#1012=DIRECTION('',(0.0,-1.0,0.0));
#1013=DIRECTION('',(1.0,0.0,0.0));
#1014=SURFACE_STYLE_FILL_AREA(#1335);
#1015=ORIENTED_EDGE('',*,*,#1191,.T.);
#1016=ORIENTED_EDGE('',*,*,#1212,.T.);
#1017=ORIENTED_EDGE('',*,*,#1336,.T.);
#1018=ORIENTED_EDGE('',*,*,#1222,.T.);
#1019=ORIENTED_EDGE('',*,*,#1195,.T.);
#1020=ORIENTED_EDGE('',*,*,#1337,.T.);
#1021=ORIENTED_EDGE('',*,*,#1338,.F.);
#1022=ORIENTED_EDGE('',*,*,#1330,.T.);
#1023=CARTESIAN_POINT('',(6.995,-15.05,8.2));
#1024=DIRECTION('',(1.0,0.0,0.0));
#1025=DIRECTION('',(0.0,0.0,-1.0));
#1026=SURFACE_STYLE_FILL_AREA(#1339);
#1027=ORIENTED_EDGE('',*,*,#1214,.T.);
#1028=ORIENTED_EDGE('',*,*,#1226,.T.);
#1029=ORIENTED_EDGE('',*,*,#1223,.T.);
#1030=ORIENTED_EDGE('',*,*,#1336,.F.);
#1031=CARTESIAN_POINT('',(7.795,-15.05,7.4));
#1032=DIRECTION('',(0.0,1.0,-0.0));
#1033=DIRECTION('',(-1.0,-0.0,-2.77555756156289E-15));
#1034=SURFACE_STYLE_FILL_AREA(#1340);
#1035=ORIENTED_EDGE('',*,*,#1181,.T.);
#1036=ORIENTED_EDGE('',*,*,#1341,.F.);
#1037=ORIENTED_EDGE('',*,*,#1183,.T.);
#1038=ORIENTED_EDGE('',*,*,#1342,.T.);
#1039=CARTESIAN_POINT('',(0.0,10.0,6.85));
#1040=DIRECTION('',(0.0,0.0,1.0));
#1041=DIRECTION('',(1.0,0.0,0.0));
#1042=SURFACE_STYLE_FILL_AREA(#1343);
#1043=ORIENTED_EDGE('',*,*,#1179,.T.);
#1044=ORIENTED_EDGE('',*,*,#1344,.T.);
#1045=ORIENTED_EDGE('',*,*,#1182,.F.);
#1046=ORIENTED_EDGE('',*,*,#1342,.F.);
#1047=CARTESIAN_POINT('',(3.35,10.0,8.0));
#1048=DIRECTION('',(0.0,0.0,1.0));
#1049=DIRECTION('',(1.0,0.0,0.0));
#1050=SURFACE_STYLE_FILL_AREA(#1345);
#1051=ORIENTED_EDGE('',*,*,#1177,.T.);
#1052=ORIENTED_EDGE('',*,*,#1344,.F.);
#1053=ORIENTED_EDGE('',*,*,#1178,.T.);
#1054=ORIENTED_EDGE('',*,*,#1346,.T.);
#1055=CARTESIAN_POINT('',(0.0,10.0,8.1));
#1056=DIRECTION('',(-0.0,-0.0,-1.0));
#1057=DIRECTION('',(1.0,0.0,0.0));
#1058=SURFACE_STYLE_FILL_AREA(#1347);
#1059=ORIENTED_EDGE('',*,*,#1172,.T.);
#1060=ORIENTED_EDGE('',*,*,#1346,.F.);
#1061=ORIENTED_EDGE('',*,*,#1174,.T.);
#1062=ORIENTED_EDGE('',*,*,#1348,.F.);
#1063=CARTESIAN_POINT('',(0.0,10.0,9.4));
#1064=DIRECTION('',(0.0,0.0,1.0));
#1065=DIRECTION('',(1.0,0.0,0.0));
#1066=SURFACE_STYLE_FILL_AREA(#1349);
#1067=ORIENTED_EDGE('',*,*,#1167,.T.);
#1068=ORIENTED_EDGE('',*,*,#1350,.F.);
#1069=ORIENTED_EDGE('',*,*,#1169,.T.);
#1070=ORIENTED_EDGE('',*,*,#1351,.T.);
#1071=CARTESIAN_POINT('',(0.0,-10.0,6.85));
#1072=DIRECTION('',(0.0,0.0,1.0));
#1073=DIRECTION('',(1.0,0.0,0.0));
#1074=SURFACE_STYLE_FILL_AREA(#1352);
#1075=ORIENTED_EDGE('',*,*,#1165,.T.);
#1076=ORIENTED_EDGE('',*,*,#1353,.T.);
#1077=ORIENTED_EDGE('',*,*,#1168,.F.);
#1078=ORIENTED_EDGE('',*,*,#1351,.F.);
#1079=CARTESIAN_POINT('',(3.35,-10.0,8.0));
#1080=DIRECTION('',(0.0,0.0,1.0));
#1081=DIRECTION('',(1.0,0.0,0.0));
#1082=SURFACE_STYLE_FILL_AREA(#1354);
#1083=ORIENTED_EDGE('',*,*,#1163,.T.);
#1084=ORIENTED_EDGE('',*,*,#1353,.F.);
#1085=ORIENTED_EDGE('',*,*,#1164,.T.);
#1086=ORIENTED_EDGE('',*,*,#1355,.T.);
#1087=CARTESIAN_POINT('',(0.0,-10.0,8.1));
#1088=DIRECTION('',(-0.0,-0.0,-1.0));
#1089=DIRECTION('',(1.0,0.0,0.0));
#1090=SURFACE_STYLE_FILL_AREA(#1356);
#1091=ORIENTED_EDGE('',*,*,#1158,.T.);
#1092=ORIENTED_EDGE('',*,*,#1355,.F.);
#1093=ORIENTED_EDGE('',*,*,#1160,.T.);
#1094=ORIENTED_EDGE('',*,*,#1357,.F.);
#1095=CARTESIAN_POINT('',(0.0,-10.0,9.4));
#1096=DIRECTION('',(0.0,0.0,1.0));
#1097=DIRECTION('',(1.0,0.0,0.0));
#1098=SURFACE_STYLE_FILL_AREA(#1358);
#1099=ORIENTED_EDGE('',*,*,#1216,.T.);
#1100=ORIENTED_EDGE('',*,*,#1186,.T.);
#1101=ORIENTED_EDGE('',*,*,#1301,.T.);
#1102=ORIENTED_EDGE('',*,*,#1305,.T.);
#1103=ORIENTED_EDGE('',*,*,#1184,.T.);
#1104=ORIENTED_EDGE('',*,*,#1341,.T.);
#1105=ORIENTED_EDGE('',*,*,#1170,.T.);
#1106=ORIENTED_EDGE('',*,*,#1350,.T.);
#1107=CARTESIAN_POINT('',(5.4025,-15.05,5.7));
#1108=DIRECTION('',(0.0,0.0,-1.0));
#1109=DIRECTION('',(-1.0,0.0,0.0));
#1110=SURFACE_STYLE_FILL_AREA(#1359);
#1111=ORIENTED_EDGE('',*,*,#1360,.T.);
#1112=ORIENTED_EDGE('',*,*,#1361,.F.);
#1113=ORIENTED_EDGE('',*,*,#1331,.F.);
#1114=ORIENTED_EDGE('',*,*,#1338,.T.);
#1115=CARTESIAN_POINT('',(6.495,-15.05,9.0));
#1116=DIRECTION('',(-0.0,1.0,0.0));
#1117=DIRECTION('',(1.0,0.0,1.77635683940025E-15));
#1118=SURFACE_STYLE_FILL_AREA(#1362);
#1119=ORIENTED_EDGE('',*,*,#1173,.T.);
#1120=ORIENTED_EDGE('',*,*,#1348,.T.);
#1121=ORIENTED_EDGE('',*,*,#1159,.T.);
#1122=ORIENTED_EDGE('',*,*,#1357,.T.);
#1123=ORIENTED_EDGE('',*,*,#1363,.T.);
#1124=ORIENTED_EDGE('',*,*,#1364,.F.);
#1125=ORIENTED_EDGE('',*,*,#1332,.T.);
#1126=ORIENTED_EDGE('',*,*,#1361,.T.);
#1127=CARTESIAN_POINT('',(-0.00500000000000078,-15.05,9.5));
#1128=DIRECTION('',(0.0,0.0,1.0));
#1129=DIRECTION('',(1.0,0.0,0.0));
#1130=SURFACE_STYLE_FILL_AREA(#1365);
#1131=ORIENTED_EDGE('',*,*,#1366,.T.);
#1132=ORIENTED_EDGE('',*,*,#1367,.F.);
#1133=ORIENTED_EDGE('',*,*,#1333,.F.);
#1134=ORIENTED_EDGE('',*,*,#1364,.T.);
#1135=CARTESIAN_POINT('',(-6.505,-15.05,9.0));
#1136=DIRECTION('',(0.0,1.0,0.0));
#1137=DIRECTION('',(-1.77635683940025E-15,0.0,1.0));
#1138=SURFACE_STYLE_FILL_AREA(#1368);
#1139=ORIENTED_EDGE('',*,*,#1193,.T.);
#1140=ORIENTED_EDGE('',*,*,#1334,.T.);
#1141=ORIENTED_EDGE('',*,*,#1367,.T.);
#1142=ORIENTED_EDGE('',*,*,#1369,.T.);
#1143=CARTESIAN_POINT('',(-7.005,-15.05,8.2));
#1144=DIRECTION('',(-1.0,0.0,0.0));
#1145=DIRECTION('',(0.0,0.0,1.0));
#1146=SURFACE_STYLE_FILL_AREA(#1370);
#1147=ORIENTED_EDGE('',*,*,#1194,.T.);
#1148=ORIENTED_EDGE('',*,*,#1369,.F.);
#1149=ORIENTED_EDGE('',*,*,#1366,.F.);
#1150=ORIENTED_EDGE('',*,*,#1363,.F.);
#1151=ORIENTED_EDGE('',*,*,#1360,.F.);
#1152=ORIENTED_EDGE('',*,*,#1337,.F.);
#1153=CARTESIAN_POINT('',(-0.000468075261055988,15.05,7.14819321502029));
#1154=DIRECTION('',(0.0,-1.0,0.0));
#1155=DIRECTION('',(1.0,0.0,0.0));
#1156=SURFACE_STYLE_FILL_AREA(#1371);
#1157=FILL_AREA_STYLE('',(#1372));
#1158=EDGE_CURVE('',#1373,#1374,#1375,.T.);
#1159=EDGE_CURVE('',#1376,#1373,#1377,.T.);
#1160=EDGE_CURVE('',#1378,#1376,#1379,.T.);
#1161=EDGE_CURVE('',#1374,#1378,#1380,.T.);
#1162=FILL_AREA_STYLE('',(#1381));
#1163=EDGE_CURVE('',#1374,#1382,#1383,.T.);
#1164=EDGE_CURVE('',#1384,#1378,#1385,.T.);
#1165=EDGE_CURVE('',#1382,#1384,#1386,.T.);
#1166=FILL_AREA_STYLE('',(#1387));
#1167=EDGE_CURVE('',#1388,#1389,#1390,.T.);
#1168=EDGE_CURVE('',#1388,#1391,#1392,.T.);
#1169=EDGE_CURVE('',#1393,#1391,#1394,.T.);
#1170=EDGE_CURVE('',#1389,#1393,#1395,.T.);
#1171=FILL_AREA_STYLE('',(#1396));
#1172=EDGE_CURVE('',#1397,#1398,#1399,.T.);
#1173=EDGE_CURVE('',#1400,#1397,#1401,.T.);
#1174=EDGE_CURVE('',#1402,#1400,#1403,.T.);
#1175=EDGE_CURVE('',#1398,#1402,#1404,.T.);
#1176=FILL_AREA_STYLE('',(#1405));
#1177=EDGE_CURVE('',#1398,#1406,#1407,.T.);
#1178=EDGE_CURVE('',#1408,#1402,#1409,.T.);
#1179=EDGE_CURVE('',#1406,#1408,#1410,.T.);
#1180=FILL_AREA_STYLE('',(#1411));
#1181=EDGE_CURVE('',#1412,#1413,#1414,.T.);
#1182=EDGE_CURVE('',#1412,#1415,#1416,.T.);
#1183=EDGE_CURVE('',#1417,#1415,#1418,.T.);
#1184=EDGE_CURVE('',#1413,#1417,#1419,.T.);
#1185=FILL_AREA_STYLE('',(#1420));
#1186=EDGE_CURVE('',#1421,#1422,#1423,.T.);
#1187=EDGE_CURVE('',#1421,#1424,#1425,.T.);
#1188=EDGE_CURVE('',#1424,#1426,#1427,.T.);
#1189=EDGE_CURVE('',#1422,#1426,#1428,.T.);
#1190=FILL_AREA_STYLE('',(#1429));
#1191=EDGE_CURVE('',#1430,#1431,#1432,.T.);
#1192=EDGE_CURVE('',#1433,#1430,#1434,.T.);
#1193=EDGE_CURVE('',#1435,#1433,#1436,.T.);
#1194=EDGE_CURVE('',#1437,#1435,#1438,.T.);
#1195=EDGE_CURVE('',#1439,#1437,#1440,.T.);
#1196=EDGE_CURVE('',#1439,#1441,#1442,.T.);
#1197=EDGE_CURVE('',#1441,#1443,#1444,.T.);
#1198=EDGE_CURVE('',#1443,#1431,#1445,.T.);
#1199=EDGE_CURVE('',#1446,#1447,#1448,.T.);
#1200=EDGE_CURVE('',#1449,#1447,#1450,.T.);
#1201=EDGE_CURVE('',#1449,#1451,#1452,.T.);
#1202=EDGE_CURVE('',#1451,#1453,#1454,.T.);
#1203=EDGE_CURVE('',#1453,#1455,#1456,.T.);
#1204=EDGE_CURVE('',#1455,#1457,#1458,.T.);
#1205=EDGE_CURVE('',#1457,#1459,#1460,.T.);
#1206=EDGE_CURVE('',#1459,#1461,#1462,.T.);
#1207=EDGE_CURVE('',#1463,#1461,#1464,.T.);
#1208=EDGE_CURVE('',#1465,#1463,#1466,.T.);
#1209=EDGE_CURVE('',#1465,#1467,#1468,.T.);
#1210=EDGE_CURVE('',#1467,#1446,#1469,.T.);
#1211=FILL_AREA_STYLE('',(#1470));
#1212=EDGE_CURVE('',#1431,#1471,#1472,.T.);
#1213=EDGE_CURVE('',#1443,#1473,#1474,.T.);
#1214=EDGE_CURVE('',#1471,#1473,#1475,.T.);
#1215=FILL_AREA_STYLE('',(#1476));
#1216=EDGE_CURVE('',#1477,#1421,#1478,.T.);
#1217=EDGE_CURVE('',#1477,#1479,#1480,.T.);
#1218=EDGE_CURVE('',#1479,#1481,#1482,.T.);
#1219=EDGE_CURVE('',#1483,#1481,#1484,.T.);
#1220=EDGE_CURVE('',#1483,#1424,#1485,.T.);
#1221=FILL_AREA_STYLE('',(#1486));
#1222=EDGE_CURVE('',#1487,#1439,#1488,.T.);
#1223=EDGE_CURVE('',#1489,#1487,#1490,.T.);
#1224=EDGE_CURVE('',#1441,#1489,#1491,.T.);
#1225=FILL_AREA_STYLE('',(#1492));
#1226=EDGE_CURVE('',#1473,#1489,#1493,.T.);
#1227=FILL_AREA_STYLE('',(#1494));
#1228=EDGE_CURVE('',#1495,#1446,#1496,.T.);
#1229=EDGE_CURVE('',#1497,#1495,#1498,.T.);
#1230=EDGE_CURVE('',#1497,#1447,#1499,.T.);
#1231=FILL_AREA_STYLE('',(#1500));
#1232=EDGE_CURVE('',#1501,#1467,#1502,.T.);
#1233=EDGE_CURVE('',#1495,#1501,#1503,.T.);
#1234=FILL_AREA_STYLE('',(#1504));
#1235=EDGE_CURVE('',#1501,#1505,#1506,.T.);
#1236=EDGE_CURVE('',#1505,#1497,#1507,.T.);
#1237=FILL_AREA_STYLE('',(#1508));
#1238=EDGE_CURVE('',#1505,#1465,#1509,.T.);
#1239=FILL_AREA_STYLE('',(#1510));
#1240=EDGE_CURVE('',#1463,#1511,#1512,.T.);
#1241=EDGE_CURVE('',#1511,#1513,#1514,.T.);
#1242=EDGE_CURVE('',#1513,#1515,#1516,.T.);
#1243=EDGE_CURVE('',#1515,#1517,#1518,.T.);
#1244=EDGE_CURVE('',#1517,#1519,#1520,.T.);
#1245=EDGE_CURVE('',#1519,#1521,#1522,.T.);
#1246=EDGE_CURVE('',#1521,#1449,#1523,.T.);
#1247=FILL_AREA_STYLE('',(#1524));
#1248=EDGE_CURVE('',#1525,#1453,#1526,.T.);
#1249=EDGE_CURVE('',#1527,#1525,#1528,.T.);
#1250=EDGE_CURVE('',#1527,#1455,#1529,.T.);
#1251=FILL_AREA_STYLE('',(#1530));
#1252=EDGE_CURVE('',#1531,#1532,#1533,.T.);
#1253=EDGE_CURVE('',#1532,#1527,#1534,.T.);
#1254=EDGE_CURVE('',#1525,#1531,#1535,.T.);
#1255=FILL_AREA_STYLE('',(#1536));
#1256=EDGE_CURVE('',#1532,#1457,#1537,.T.);
#1257=FILL_AREA_STYLE('',(#1538));
#1258=EDGE_CURVE('',#1531,#1459,#1539,.T.);
#1259=FILL_AREA_STYLE('',(#1540));
#1260=EDGE_CURVE('',#1521,#1541,#1542,.T.);
#1261=EDGE_CURVE('',#1543,#1519,#1544,.T.);
#1262=EDGE_CURVE('',#1541,#1543,#1545,.T.);
#1263=FILL_AREA_STYLE('',(#1546));
#1264=EDGE_CURVE('',#1541,#1547,#1548,.T.);
#1265=EDGE_CURVE('',#1547,#1549,#1550,.T.);
#1266=EDGE_CURVE('',#1549,#1451,#1551,.T.);
#1267=FILL_AREA_STYLE('',(#1552));
#1268=EDGE_CURVE('',#1543,#1553,#1554,.T.);
#1269=EDGE_CURVE('',#1553,#1547,#1555,.T.);
#1270=FILL_AREA_STYLE('',(#1556));
#1271=EDGE_CURVE('',#1557,#1558,#1559,.T.);
#1272=EDGE_CURVE('',#1560,#1557,#1561,.T.);
#1273=EDGE_CURVE('',#1562,#1560,#1563,.T.);
#1274=EDGE_CURVE('',#1558,#1562,#1564,.T.);
#1275=FILL_AREA_STYLE('',(#1565));
#1276=EDGE_CURVE('',#1566,#1558,#1567,.T.);
#1277=EDGE_CURVE('',#1566,#1511,#1568,.T.);
#1278=EDGE_CURVE('',#1461,#1557,#1569,.T.);
#1279=FILL_AREA_STYLE('',(#1570));
#1280=EDGE_CURVE('',#1571,#1562,#1572,.T.);
#1281=EDGE_CURVE('',#1571,#1566,#1573,.T.);
#1282=FILL_AREA_STYLE('',(#1574));
#1283=EDGE_CURVE('',#1513,#1571,#1575,.T.);
#1284=FILL_AREA_STYLE('',(#1576));
#1285=EDGE_CURVE('',#1560,#1577,#1578,.T.);
#1286=EDGE_CURVE('',#1515,#1577,#1579,.T.);
#1287=FILL_AREA_STYLE('',(#1580));
#1288=EDGE_CURVE('',#1581,#1553,#1582,.T.);
#1289=EDGE_CURVE('',#1549,#1581,#1583,.T.);
#1290=FILL_AREA_STYLE('',(#1584));
#1291=EDGE_CURVE('',#1585,#1581,#1586,.T.);
#1292=EDGE_CURVE('',#1577,#1585,#1587,.T.);
#1293=FILL_AREA_STYLE('',(#1588));
#1294=EDGE_CURVE('',#1589,#1483,#1590,.T.);
#1295=EDGE_CURVE('',#1426,#1589,#1591,.T.);
#1296=FILL_AREA_STYLE('',(#1592));
#1297=EDGE_CURVE('',#1481,#1593,#1594,.T.);
#1298=EDGE_CURVE('',#1595,#1479,#1596,.T.);
#1299=EDGE_CURVE('',#1593,#1595,#1597,.T.);
#1300=FILL_AREA_STYLE('',(#1598));
#1301=EDGE_CURVE('',#1422,#1599,#1600,.T.);
#1302=EDGE_CURVE('',#1593,#1589,#1601,.T.);
#1303=EDGE_CURVE('',#1599,#1595,#1602,.T.);
#1304=FILL_AREA_STYLE('',(#1603));
#1305=EDGE_CURVE('',#1599,#1477,#1604,.T.);
#1306=FILL_AREA_STYLE('',(#1605));
#1307=EDGE_CURVE('',#1606,#1589,#1607,.T.);
#1308=EDGE_CURVE('',#1608,#1606,#1609,.T.);
#1309=EDGE_CURVE('',#1593,#1608,#1610,.T.);
#1310=FILL_AREA_STYLE('',(#1611));
#1311=EDGE_CURVE('',#1612,#1613,#1614,.T.);
#1312=EDGE_CURVE('',#1615,#1612,#1616,.T.);
#1313=EDGE_CURVE('',#1615,#1617,#1618,.T.);
#1314=EDGE_CURVE('',#1617,#1613,#1619,.T.);
#1315=FILL_AREA_STYLE('',(#1620));
#1316=EDGE_CURVE('',#1613,#1621,#1622,.T.);
#1317=EDGE_CURVE('',#1617,#1481,#1623,.T.);
#1318=EDGE_CURVE('',#1608,#1621,#1624,.T.);
#1319=FILL_AREA_STYLE('',(#1625));
#1320=EDGE_CURVE('',#1483,#1615,#1626,.T.);
#1321=FILL_AREA_STYLE('',(#1627));
#1322=EDGE_CURVE('',#1621,#1628,#1629,.T.);
#1323=EDGE_CURVE('',#1606,#1628,#1630,.T.);
#1324=FILL_AREA_STYLE('',(#1631));
#1325=EDGE_CURVE('',#1628,#1612,#1632,.T.);
#1326=FILL_AREA_STYLE('',(#1633));
#1327=EDGE_CURVE('',#1517,#1585,#1634,.T.);
#1328=FILL_AREA_STYLE('',(#1635));
#1329=FILL_AREA_STYLE('',(#1636));
#1330=EDGE_CURVE('',#1637,#1430,#1638,.T.);
#1331=EDGE_CURVE('',#1637,#1639,#1640,.T.);
#1332=EDGE_CURVE('',#1641,#1639,#1642,.T.);
#1333=EDGE_CURVE('',#1641,#1643,#1644,.T.);
#1334=EDGE_CURVE('',#1433,#1643,#1645,.T.);
#1335=FILL_AREA_STYLE('',(#1646));
#1336=EDGE_CURVE('',#1471,#1487,#1647,.T.);
#1337=EDGE_CURVE('',#1437,#1648,#1649,.T.);
#1338=EDGE_CURVE('',#1637,#1648,#1650,.T.);
#1339=FILL_AREA_STYLE('',(#1651));
#1340=FILL_AREA_STYLE('',(#1652));
#1341=EDGE_CURVE('',#1417,#1413,#1653,.T.);
#1342=EDGE_CURVE('',#1415,#1412,#1654,.T.);
#1343=FILL_AREA_STYLE('',(#1655));
#1344=EDGE_CURVE('',#1408,#1406,#1656,.T.);
#1345=FILL_AREA_STYLE('',(#1657));
#1346=EDGE_CURVE('',#1402,#1398,#1658,.T.);
#1347=FILL_AREA_STYLE('',(#1659));
#1348=EDGE_CURVE('',#1397,#1400,#1660,.T.);
#1349=FILL_AREA_STYLE('',(#1661));
#1350=EDGE_CURVE('',#1393,#1389,#1662,.T.);
#1351=EDGE_CURVE('',#1391,#1388,#1663,.T.);
#1352=FILL_AREA_STYLE('',(#1664));
#1353=EDGE_CURVE('',#1384,#1382,#1665,.T.);
#1354=FILL_AREA_STYLE('',(#1666));
#1355=EDGE_CURVE('',#1378,#1374,#1667,.T.);
#1356=FILL_AREA_STYLE('',(#1668));
#1357=EDGE_CURVE('',#1373,#1376,#1669,.T.);
#1358=FILL_AREA_STYLE('',(#1670));
#1359=FILL_AREA_STYLE('',(#1671));
#1360=EDGE_CURVE('',#1648,#1672,#1673,.T.);
#1361=EDGE_CURVE('',#1639,#1672,#1674,.T.);
#1362=FILL_AREA_STYLE('',(#1675));
#1363=EDGE_CURVE('',#1672,#1676,#1677,.T.);
#1364=EDGE_CURVE('',#1641,#1676,#1678,.T.);
#1365=FILL_AREA_STYLE('',(#1679));
#1366=EDGE_CURVE('',#1676,#1680,#1681,.T.);
#1367=EDGE_CURVE('',#1643,#1680,#1682,.T.);
#1368=FILL_AREA_STYLE('',(#1683));
#1369=EDGE_CURVE('',#1680,#1435,#1684,.T.);
#1370=FILL_AREA_STYLE('',(#1685));
#1371=FILL_AREA_STYLE('',(#1686));
#1372=FILL_AREA_STYLE_COLOUR('',#1687);
#1373=VERTEX_POINT('',#1688);
#1374=VERTEX_POINT('',#1689);
#1375=LINE('',#1690,#1691);
#1376=VERTEX_POINT('',#1692);
#1377=CIRCLE('',#1693,2.25);
#1378=VERTEX_POINT('',#1694);
#1379=LINE('',#1695,#1696);
#1380=CIRCLE('',#1697,2.25);
#1381=FILL_AREA_STYLE_COLOUR('',#1698);
#1382=VERTEX_POINT('',#1699);
#1383=LINE('',#1700,#1701);
#1384=VERTEX_POINT('',#1702);
#1385=LINE('',#1703,#1704);
#1386=CIRCLE('',#1705,2.45);
#1387=FILL_AREA_STYLE_COLOUR('',#1706);
#1388=VERTEX_POINT('',#1707);
#1389=VERTEX_POINT('',#1708);
#1390=LINE('',#1709,#1710);
#1391=VERTEX_POINT('',#1711);
#1392=CIRCLE('',#1712,4.25);
#1393=VERTEX_POINT('',#1713);
#1394=LINE('',#1714,#1715);
#1395=CIRCLE('',#1716,4.25);
#1396=FILL_AREA_STYLE_COLOUR('',#1717);
#1397=VERTEX_POINT('',#1718);
#1398=VERTEX_POINT('',#1719);
#1399=LINE('',#1720,#1721);
#1400=VERTEX_POINT('',#1722);
#1401=CIRCLE('',#1723,2.25);
#1402=VERTEX_POINT('',#1724);
#1403=LINE('',#1725,#1726);
#1404=CIRCLE('',#1727,2.25);
#1405=FILL_AREA_STYLE_COLOUR('',#1728);
#1406=VERTEX_POINT('',#1729);
#1407=LINE('',#1730,#1731);
#1408=VERTEX_POINT('',#1732);
#1409=LINE('',#1733,#1734);
#1410=CIRCLE('',#1735,2.45);
#1411=FILL_AREA_STYLE_COLOUR('',#1736);
#1412=VERTEX_POINT('',#1737);
#1413=VERTEX_POINT('',#1738);
#1414=LINE('',#1739,#1740);
#1415=VERTEX_POINT('',#1741);
#1416=CIRCLE('',#1742,4.25);
#1417=VERTEX_POINT('',#1743);
#1418=LINE('',#1744,#1745);
#1419=CIRCLE('',#1746,4.25);
#1420=FILL_AREA_STYLE_COLOUR('',#1747);
#1421=VERTEX_POINT('',#1748);
#1422=VERTEX_POINT('',#1749);
#1423=LINE('',#1750,#1751);
#1424=VERTEX_POINT('',#1752);
#1425=LINE('',#1753,#1754);
#1426=VERTEX_POINT('',#1755);
#1427=LINE('',#1756,#1757);
#1428=LINE('',#1758,#1759);
#1429=FILL_AREA_STYLE_COLOUR('',#1760);
#1430=VERTEX_POINT('',#1761);
#1431=VERTEX_POINT('',#1762);
#1432=LINE('',#1763,#1764);
#1433=VERTEX_POINT('',#1765);
#1434=LINE('',#1766,#1767);
#1435=VERTEX_POINT('',#1768);
#1436=LINE('',#1769,#1770);
#1437=VERTEX_POINT('',#1771);
#1438=LINE('',#1772,#1773);
#1439=VERTEX_POINT('',#1774);
#1440=LINE('',#1775,#1776);
#1441=VERTEX_POINT('',#1777);
#1442=LINE('',#1778,#1779);
#1443=VERTEX_POINT('',#1780);
#1444=LINE('',#1781,#1782);
#1445=LINE('',#1783,#1784);
#1446=VERTEX_POINT('',#1785);
#1447=VERTEX_POINT('',#1786);
#1448=LINE('',#1787,#1788);
#1449=VERTEX_POINT('',#1789);
#1450=LINE('',#1790,#1791);
#1451=VERTEX_POINT('',#1792);
#1452=LINE('',#1793,#1794);
#1453=VERTEX_POINT('',#1795);
#1454=LINE('',#1796,#1797);
#1455=VERTEX_POINT('',#1798);
#1456=LINE('',#1799,#1800);
#1457=VERTEX_POINT('',#1801);
#1458=LINE('',#1802,#1803);
#1459=VERTEX_POINT('',#1804);
#1460=LINE('',#1805,#1806);
#1461=VERTEX_POINT('',#1807);
#1462=LINE('',#1808,#1809);
#1463=VERTEX_POINT('',#1810);
#1464=LINE('',#1811,#1812);
#1465=VERTEX_POINT('',#1813);
#1466=LINE('',#1814,#1815);
#1467=VERTEX_POINT('',#1816);
#1468=LINE('',#1817,#1818);
#1469=LINE('',#1819,#1820);
#1470=FILL_AREA_STYLE_COLOUR('',#1821);
#1471=VERTEX_POINT('',#1822);
#1472=LINE('',#1823,#1824);
#1473=VERTEX_POINT('',#1825);
#1474=LINE('',#1826,#1827);
#1475=CIRCLE('',#1828,0.800000000000002);
#1476=FILL_AREA_STYLE_COLOUR('',#1829);
#1477=VERTEX_POINT('',#1830);
#1478=LINE('',#1831,#1832);
#1479=VERTEX_POINT('',#1833);
#1480=LINE('',#1834,#1835);
#1481=VERTEX_POINT('',#1836);
#1482=LINE('',#1837,#1838);
#1483=VERTEX_POINT('',#1839);
#1484=LINE('',#1840,#1841);
#1485=LINE('',#1842,#1843);
#1486=FILL_AREA_STYLE_COLOUR('',#1844);
#1487=VERTEX_POINT('',#1845);
#1488=LINE('',#1846,#1847);
#1489=VERTEX_POINT('',#1848);
#1490=CIRCLE('',#1849,0.800000000000002);
#1491=LINE('',#1850,#1851);
#1492=FILL_AREA_STYLE_COLOUR('',#1852);
#1493=LINE('',#1853,#1854);
#1494=FILL_AREA_STYLE_COLOUR('',#1855);
#1495=VERTEX_POINT('',#1856);
#1496=LINE('',#1857,#1858);
#1497=VERTEX_POINT('',#1859);
#1498=LINE('',#1860,#1861);
#1499=LINE('',#1862,#1863);
#1500=FILL_AREA_STYLE_COLOUR('',#1864);
#1501=VERTEX_POINT('',#1865);
#1502=LINE('',#1866,#1867);
#1503=LINE('',#1868,#1869);
#1504=FILL_AREA_STYLE_COLOUR('',#1870);
#1505=VERTEX_POINT('',#1871);
#1506=LINE('',#1872,#1873);
#1507=LINE('',#1874,#1875);
#1508=FILL_AREA_STYLE_COLOUR('',#1876);
#1509=LINE('',#1877,#1878);
#1510=FILL_AREA_STYLE_COLOUR('',#1879);
#1511=VERTEX_POINT('',#1880);
#1512=LINE('',#1881,#1882);
#1513=VERTEX_POINT('',#1883);
#1514=LINE('',#1884,#1885);
#1515=VERTEX_POINT('',#1886);
#1516=LINE('',#1887,#1888);
#1517=VERTEX_POINT('',#1889);
#1518=LINE('',#1890,#1891);
#1519=VERTEX_POINT('',#1892);
#1520=LINE('',#1893,#1894);
#1521=VERTEX_POINT('',#1895);
#1522=LINE('',#1896,#1897);
#1523=LINE('',#1898,#1899);
#1524=FILL_AREA_STYLE_COLOUR('',#1900);
#1525=VERTEX_POINT('',#1901);
#1526=LINE('',#1902,#1903);
#1527=VERTEX_POINT('',#1904);
#1528=LINE('',#1905,#1906);
#1529=LINE('',#1907,#1908);
#1530=FILL_AREA_STYLE_COLOUR('',#1909);
#1531=VERTEX_POINT('',#1910);
#1532=VERTEX_POINT('',#1911);
#1533=LINE('',#1912,#1913);
#1534=LINE('',#1914,#1915);
#1535=LINE('',#1916,#1917);
#1536=FILL_AREA_STYLE_COLOUR('',#1918);
#1537=LINE('',#1919,#1920);
#1538=FILL_AREA_STYLE_COLOUR('',#1921);
#1539=LINE('',#1922,#1923);
#1540=FILL_AREA_STYLE_COLOUR('',#1924);
#1541=VERTEX_POINT('',#1925);
#1542=LINE('',#1926,#1927);
#1543=VERTEX_POINT('',#1928);
#1544=LINE('',#1929,#1930);
#1545=LINE('',#1931,#1932);
#1546=FILL_AREA_STYLE_COLOUR('',#1933);
#1547=VERTEX_POINT('',#1934);
#1548=LINE('',#1935,#1936);
#1549=VERTEX_POINT('',#1937);
#1550=LINE('',#1938,#1939);
#1551=LINE('',#1940,#1941);
#1552=FILL_AREA_STYLE_COLOUR('',#1942);
#1553=VERTEX_POINT('',#1943);
#1554=LINE('',#1944,#1945);
#1555=LINE('',#1946,#1947);
#1556=FILL_AREA_STYLE_COLOUR('',#1948);
#1557=VERTEX_POINT('',#1949);
#1558=VERTEX_POINT('',#1950);
#1559=LINE('',#1951,#1952);
#1560=VERTEX_POINT('',#1953);
#1561=LINE('',#1954,#1955);
#1562=VERTEX_POINT('',#1956);
#1563=LINE('',#1957,#1958);
#1564=LINE('',#1959,#1960);
#1565=FILL_AREA_STYLE_COLOUR('',#1961);
#1566=VERTEX_POINT('',#1962);
#1567=LINE('',#1963,#1964);
#1568=LINE('',#1965,#1966);
#1569=LINE('',#1967,#1968);
#1570=FILL_AREA_STYLE_COLOUR('',#1969);
#1571=VERTEX_POINT('',#1970);
#1572=LINE('',#1971,#1972);
#1573=LINE('',#1973,#1974);
#1574=FILL_AREA_STYLE_COLOUR('',#1975);
#1575=LINE('',#1976,#1977);
#1576=FILL_AREA_STYLE_COLOUR('',#1978);
#1577=VERTEX_POINT('',#1979);
#1578=LINE('',#1980,#1981);
#1579=LINE('',#1982,#1983);
#1580=FILL_AREA_STYLE_COLOUR('',#1984);
#1581=VERTEX_POINT('',#1985);
#1582=LINE('',#1986,#1987);
#1583=LINE('',#1988,#1989);
#1584=FILL_AREA_STYLE_COLOUR('',#1990);
#1585=VERTEX_POINT('',#1991);
#1586=LINE('',#1992,#1993);
#1587=LINE('',#1994,#1995);
#1588=FILL_AREA_STYLE_COLOUR('',#1996);
#1589=VERTEX_POINT('',#1997);
#1590=LINE('',#1998,#1999);
#1591=LINE('',#2000,#2001);
#1592=FILL_AREA_STYLE_COLOUR('',#2002);
#1593=VERTEX_POINT('',#2003);
#1594=LINE('',#2004,#2005);
#1595=VERTEX_POINT('',#2006);
#1596=LINE('',#2007,#2008);
#1597=LINE('',#2009,#2010);
#1598=FILL_AREA_STYLE_COLOUR('',#2011);
#1599=VERTEX_POINT('',#2012);
#1600=LINE('',#2013,#2014);
#1601=LINE('',#2015,#2016);
#1602=LINE('',#2017,#2018);
#1603=FILL_AREA_STYLE_COLOUR('',#2019);
#1604=LINE('',#2020,#2021);
#1605=FILL_AREA_STYLE_COLOUR('',#2022);
#1606=VERTEX_POINT('',#2023);
#1607=LINE('',#2024,#2025);
#1608=VERTEX_POINT('',#2026);
#1609=LINE('',#2027,#2028);
#1610=LINE('',#2029,#2030);
#1611=FILL_AREA_STYLE_COLOUR('',#2031);
#1612=VERTEX_POINT('',#2032);
#1613=VERTEX_POINT('',#2033);
#1614=LINE('',#2034,#2035);
#1615=VERTEX_POINT('',#2036);
#1616=LINE('',#2037,#2038);
#1617=VERTEX_POINT('',#2039);
#1618=LINE('',#2040,#2041);
#1619=LINE('',#2042,#2043);
#1620=FILL_AREA_STYLE_COLOUR('',#2044);
#1621=VERTEX_POINT('',#2045);
#1622=LINE('',#2046,#2047);
#1623=LINE('',#2048,#2049);
#1624=LINE('',#2050,#2051);
#1625=FILL_AREA_STYLE_COLOUR('',#2052);
#1626=LINE('',#2053,#2054);
#1627=FILL_AREA_STYLE_COLOUR('',#2055);
#1628=VERTEX_POINT('',#2056);
#1629=LINE('',#2057,#2058);
#1630=LINE('',#2059,#2060);
#1631=FILL_AREA_STYLE_COLOUR('',#2061);
#1632=LINE('',#2062,#2063);
#1633=FILL_AREA_STYLE_COLOUR('',#2064);
#1634=LINE('',#2065,#2066);
#1635=FILL_AREA_STYLE_COLOUR('',#2067);
#1636=FILL_AREA_STYLE_COLOUR('',#2068);
#1637=VERTEX_POINT('',#2069);
#1638=LINE('',#2070,#2071);
#1639=VERTEX_POINT('',#2072);
#1640=CIRCLE('',#2073,0.500000000000001);
#1641=VERTEX_POINT('',#2074);
#1642=LINE('',#2075,#2076);
#1643=VERTEX_POINT('',#2077);
#1644=CIRCLE('',#2078,0.500000000000001);
#1645=LINE('',#2079,#2080);
#1646=FILL_AREA_STYLE_COLOUR('',#2081);
#1647=LINE('',#2082,#2083);
#1648=VERTEX_POINT('',#2084);
#1649=LINE('',#2085,#2086);
#1650=LINE('',#2087,#2088);
#1651=FILL_AREA_STYLE_COLOUR('',#2089);
#1652=FILL_AREA_STYLE_COLOUR('',#2090);
#1653=CIRCLE('',#2091,4.25);
#1654=CIRCLE('',#2092,4.25);
#1655=FILL_AREA_STYLE_COLOUR('',#2093);
#1656=CIRCLE('',#2094,2.45);
#1657=FILL_AREA_STYLE_COLOUR('',#2095);
#1658=CIRCLE('',#2096,2.25);
#1659=FILL_AREA_STYLE_COLOUR('',#2097);
#1660=CIRCLE('',#2098,2.25);
#1661=FILL_AREA_STYLE_COLOUR('',#2099);
#1662=CIRCLE('',#2100,4.25);
#1663=CIRCLE('',#2101,4.25);
#1664=FILL_AREA_STYLE_COLOUR('',#2102);
#1665=CIRCLE('',#2103,2.45);
#1666=FILL_AREA_STYLE_COLOUR('',#2104);
#1667=CIRCLE('',#2105,2.25);
#1668=FILL_AREA_STYLE_COLOUR('',#2106);
#1669=CIRCLE('',#2107,2.25);
#1670=FILL_AREA_STYLE_COLOUR('',#2108);
#1671=FILL_AREA_STYLE_COLOUR('',#2109);
#1672=VERTEX_POINT('',#2110);
#1673=CIRCLE('',#2111,0.500000000000001);
#1674=LINE('',#2112,#2113);
#1675=FILL_AREA_STYLE_COLOUR('',#2114);
#1676=VERTEX_POINT('',#2115);
#1677=LINE('',#2116,#2117);
#1678=LINE('',#2118,#2119);
#1679=FILL_AREA_STYLE_COLOUR('',#2120);
#1680=VERTEX_POINT('',#2121);
#1681=CIRCLE('',#2122,0.500000000000001);
#1682=LINE('',#2123,#2124);
#1683=FILL_AREA_STYLE_COLOUR('',#2125);
#1684=LINE('',#2126,#2127);
#1685=FILL_AREA_STYLE_COLOUR('',#2128);
#1686=FILL_AREA_STYLE_COLOUR('',#2129);
#1687=COLOUR_RGB('',0.752941191196442,0.752941191196442,0.752941191196442);
#1688=CARTESIAN_POINT('',(2.25,-10.0,9.5));
#1689=CARTESIAN_POINT('',(2.25,-10.0,8.2));
#1690=CARTESIAN_POINT('',(2.25,-10.0,9.4));
#1691=VECTOR('',#2130,1.0);
#1692=CARTESIAN_POINT('',(-2.25,-10.0,9.5));
#1693=AXIS2_PLACEMENT_3D('',#2131,#2132,#2133);
#1694=CARTESIAN_POINT('',(-2.25,-10.0,8.2));
#1695=CARTESIAN_POINT('',(-2.25,-10.0,9.4));
#1696=VECTOR('',#2134,1.0);
#1697=AXIS2_PLACEMENT_3D('',#2135,#2136,#2137);
#1698=COLOUR_RGB('',0.752941191196442,0.752941191196442,0.752941191196442);
#1699=CARTESIAN_POINT('',(2.45,-10.0,8.0));
#1700=CARTESIAN_POINT('',(2.35,-10.0,8.1));
#1701=VECTOR('',#2138,1.0);
#1702=CARTESIAN_POINT('',(-2.45,-10.0,8.0));
#1703=CARTESIAN_POINT('',(-2.35,-10.0,8.1));
#1704=VECTOR('',#2139,1.0);
#1705=AXIS2_PLACEMENT_3D('',#2140,#2141,#2142);
#1706=COLOUR_RGB('',0.752941191196442,0.752941191196442,0.752941191196442);
#1707=CARTESIAN_POINT('',(4.25,-10.0,8.0));
#1708=CARTESIAN_POINT('',(4.25,-10.0,5.7));
#1709=CARTESIAN_POINT('',(4.25,-10.0,6.85));
#1710=VECTOR('',#2143,1.0);
#1711=CARTESIAN_POINT('',(-4.25,-10.0,8.0));
#1712=AXIS2_PLACEMENT_3D('',#2144,#2145,#2146);
#1713=CARTESIAN_POINT('',(-4.25,-10.0,5.7));
#1714=CARTESIAN_POINT('',(-4.25,-10.0,6.85));
#1715=VECTOR('',#2147,1.0);
#1716=AXIS2_PLACEMENT_3D('',#2148,#2149,#2150);
#1717=COLOUR_RGB('',0.752941191196442,0.752941191196442,0.752941191196442);
#1718=CARTESIAN_POINT('',(2.25,10.0,9.5));
#1719=CARTESIAN_POINT('',(2.25,10.0,8.2));
#1720=CARTESIAN_POINT('',(2.25,10.0,9.4));
#1721=VECTOR('',#2151,1.0);
#1722=CARTESIAN_POINT('',(-2.25,10.0,9.5));
#1723=AXIS2_PLACEMENT_3D('',#2152,#2153,#2154);
#1724=CARTESIAN_POINT('',(-2.25,10.0,8.2));
#1725=CARTESIAN_POINT('',(-2.25,10.0,9.4));
#1726=VECTOR('',#2155,1.0);
#1727=AXIS2_PLACEMENT_3D('',#2156,#2157,#2158);
#1728=COLOUR_RGB('',0.752941191196442,0.752941191196442,0.752941191196442);
#1729=CARTESIAN_POINT('',(2.45,10.0,8.0));
#1730=CARTESIAN_POINT('',(2.35,10.0,8.1));
#1731=VECTOR('',#2159,1.0);
#1732=CARTESIAN_POINT('',(-2.45,10.0,8.0));
#1733=CARTESIAN_POINT('',(-2.35,10.0,8.1));
#1734=VECTOR('',#2160,1.0);
#1735=AXIS2_PLACEMENT_3D('',#2161,#2162,#2163);
#1736=COLOUR_RGB('',0.752941191196442,0.752941191196442,0.752941191196442);
#1737=CARTESIAN_POINT('',(4.25,10.0,8.0));
#1738=CARTESIAN_POINT('',(4.25,10.0,5.7));
#1739=CARTESIAN_POINT('',(4.25,10.0,6.85));
#1740=VECTOR('',#2164,1.0);
#1741=CARTESIAN_POINT('',(-4.25,10.0,8.0));
#1742=AXIS2_PLACEMENT_3D('',#2165,#2166,#2167);
#1743=CARTESIAN_POINT('',(-4.25,10.0,5.7));
#1744=CARTESIAN_POINT('',(-4.25,10.0,6.85));
#1745=VECTOR('',#2168,1.0);
#1746=AXIS2_PLACEMENT_3D('',#2169,#2170,#2171);
#1747=COLOUR_RGB('',1.0,1.0,0.501960813999176);
#1748=CARTESIAN_POINT('',(-7.0,-15.0,5.7));
#1749=CARTESIAN_POINT('',(-7.0,15.0,5.7));
#1750=CARTESIAN_POINT('',(-7.0,-7.525,5.7));
#1751=VECTOR('',#2172,1.0);
#1752=CARTESIAN_POINT('',(-7.0,-15.0,5.35));
#1753=CARTESIAN_POINT('',(-7.0,-15.0,7.1));
#1754=VECTOR('',#2173,1.0);
#1755=CARTESIAN_POINT('',(-7.0,15.0,5.35));
#1756=CARTESIAN_POINT('',(-7.0,0.0,5.35));
#1757=VECTOR('',#2174,1.0);
#1758=CARTESIAN_POINT('',(-7.0,15.0,7.1));
#1759=VECTOR('',#2175,1.0);
#1760=COLOUR_RGB('',1.0,1.0,0.501960813999176);
#1761=CARTESIAN_POINT('',(6.995,-15.05,7.71995));
#1762=CARTESIAN_POINT('',(6.995,-15.0,7.71995));
#1763=CARTESIAN_POINT('',(6.995,-17.525,7.71995));
#1764=VECTOR('',#2176,1.0);
#1765=CARTESIAN_POINT('',(-7.005,-15.05,7.71995));
#1766=CARTESIAN_POINT('',(-0.000234037630528001,-15.05,7.71995));
#1767=VECTOR('',#2177,1.0);
#1768=CARTESIAN_POINT('',(-7.005,15.05,7.71995));
#1769=CARTESIAN_POINT('',(-7.005,-17.525,7.71995));
#1770=VECTOR('',#2178,1.0);
#1771=CARTESIAN_POINT('',(6.995,15.05,7.71995));
#1772=CARTESIAN_POINT('',(-0.000234037630527994,15.05,7.71995));
#1773=VECTOR('',#2179,1.0);
#1774=CARTESIAN_POINT('',(6.995,15.0,7.71995));
#1775=CARTESIAN_POINT('',(6.995,-17.525,7.71995));
#1776=VECTOR('',#2180,1.0);
#1777=CARTESIAN_POINT('',(7.0,15.0,7.71995));
#1778=CARTESIAN_POINT('',(0.0,15.0,7.71995));
#1779=VECTOR('',#2181,1.0);
#1780=CARTESIAN_POINT('',(7.0,-15.0,7.71995));
#1781=CARTESIAN_POINT('',(7.0,-10.0,7.71995));
#1782=VECTOR('',#2182,1.0);
#1783=CARTESIAN_POINT('',(0.0,-15.0,7.71995));
#1784=VECTOR('',#2183,1.0);
#1785=CARTESIAN_POINT('',(6.0,-19.0,7.71995));
#1786=CARTESIAN_POINT('',(6.0,-20.0,7.71995));
#1787=CARTESIAN_POINT('',(6.0,-19.75,7.71995));
#1788=VECTOR('',#2184,1.0);
#1789=CARTESIAN_POINT('',(11.37295,-20.0,7.71995));
#1790=CARTESIAN_POINT('',(11.37295,-20.0,7.71995));
#1791=VECTOR('',#2185,1.0);
#1792=CARTESIAN_POINT('',(11.37295,20.0,7.71995));
#1793=CARTESIAN_POINT('',(11.37295,-20.0,7.71995));
#1794=VECTOR('',#2186,1.0);
#1795=CARTESIAN_POINT('',(6.0,20.0,7.71995));
#1796=CARTESIAN_POINT('',(11.37295,20.0,7.71995));
#1797=VECTOR('',#2187,1.0);
#1798=CARTESIAN_POINT('',(6.0,19.0,7.71995));
#1799=CARTESIAN_POINT('',(6.0,-0.25,7.71995));
#1800=VECTOR('',#2188,1.0);
#1801=CARTESIAN_POINT('',(-6.0,19.0,7.71995));
#1802=CARTESIAN_POINT('',(0.0,19.0,7.71995));
#1803=VECTOR('',#2189,1.0);
#1804=CARTESIAN_POINT('',(-6.0,20.0,7.71995));
#1805=CARTESIAN_POINT('',(-6.0,-0.25,7.71995));
#1806=VECTOR('',#2190,1.0);
#1807=CARTESIAN_POINT('',(-11.37295,20.0,7.71995));
#1808=CARTESIAN_POINT('',(11.37295,20.0,7.71995));
#1809=VECTOR('',#2191,1.0);
#1810=CARTESIAN_POINT('',(-11.37295,-20.0,7.71995));
#1811=CARTESIAN_POINT('',(-11.37295,-20.0,7.71995));
#1812=VECTOR('',#2192,1.0);
#1813=CARTESIAN_POINT('',(-6.0,-20.0,7.71995));
#1814=CARTESIAN_POINT('',(11.37295,-20.0,7.71995));
#1815=VECTOR('',#2193,1.0);
#1816=CARTESIAN_POINT('',(-6.0,-19.0,7.71995));
#1817=CARTESIAN_POINT('',(-6.0,-19.75,7.71995));
#1818=VECTOR('',#2194,1.0);
#1819=CARTESIAN_POINT('',(0.0,-19.0,7.71995));
#1820=VECTOR('',#2195,1.0);
#1821=COLOUR_RGB('',1.0,1.0,0.501960813999176);
#1822=CARTESIAN_POINT('',(6.995,-15.0,7.4));
#1823=CARTESIAN_POINT('',(6.995,-15.0,7.65));
#1824=VECTOR('',#2196,1.0);
#1825=CARTESIAN_POINT('',(7.0,-15.0,7.31069714450253));
#1826=CARTESIAN_POINT('',(7.0,-15.0,7.1));
#1827=VECTOR('',#2197,1.0);
#1828=AXIS2_PLACEMENT_3D('',#2198,#2199,#2200);
#1829=COLOUR_RGB('',1.0,1.0,0.501960813999176);
#1830=CARTESIAN_POINT('',(7.0,-15.0,5.7));
#1831=CARTESIAN_POINT('',(2.70125,-15.0,5.7));
#1832=VECTOR('',#2201,1.0);
#1833=CARTESIAN_POINT('',(7.0,-15.0,5.35));
#1834=CARTESIAN_POINT('',(7.0,-15.0,7.1));
#1835=VECTOR('',#2202,1.0);
#1836=CARTESIAN_POINT('',(5.2,-15.0,5.35));
#1837=CARTESIAN_POINT('',(0.0,-15.0,5.35));
#1838=VECTOR('',#2203,1.0);
#1839=CARTESIAN_POINT('',(-5.2,-15.0,5.35));
#1840=CARTESIAN_POINT('',(0.0,-15.0,5.35));
#1841=VECTOR('',#2204,1.0);
#1842=CARTESIAN_POINT('',(0.0,-15.0,5.35));
#1843=VECTOR('',#2205,1.0);
#1844=COLOUR_RGB('',1.0,1.0,0.501960813999176);
#1845=CARTESIAN_POINT('',(6.995,15.0,7.4));
#1846=CARTESIAN_POINT('',(6.995,15.0,7.65));
#1847=VECTOR('',#2206,1.0);
#1848=CARTESIAN_POINT('',(7.0,15.0,7.31069714450253));
#1849=AXIS2_PLACEMENT_3D('',#2207,#2208,#2209);
#1850=CARTESIAN_POINT('',(7.0,15.0,7.1));
#1851=VECTOR('',#2210,1.0);
#1852=COLOUR_RGB('',1.0,1.0,0.501960813999176);
#1853=CARTESIAN_POINT('',(7.0,0.0,7.31069714450253));
#1854=VECTOR('',#2211,1.0);
#1855=COLOUR_RGB('',1.0,1.0,0.501960813999176);
#1856=CARTESIAN_POINT('',(6.0,-19.0,8.85));
#1857=CARTESIAN_POINT('',(6.0,-19.0,7.85));
#1858=VECTOR('',#2212,1.0);
#1859=CARTESIAN_POINT('',(6.0,-20.0,8.85));
#1860=CARTESIAN_POINT('',(6.0,-19.5,8.85));
#1861=VECTOR('',#2213,1.0);
#1862=CARTESIAN_POINT('',(6.0,-20.0,7.85));
#1863=VECTOR('',#2214,1.0);
#1864=COLOUR_RGB('',1.0,1.0,0.501960813999176);
#1865=CARTESIAN_POINT('',(-6.0,-19.0,8.85));
#1866=CARTESIAN_POINT('',(-6.0,-19.0,7.85));
#1867=VECTOR('',#2215,1.0);
#1868=CARTESIAN_POINT('',(0.0,-19.0,8.85));
#1869=VECTOR('',#2216,1.0);
#1870=COLOUR_RGB('',1.0,1.0,0.501960813999176);
#1871=CARTESIAN_POINT('',(-6.0,-20.0,8.85));
#1872=CARTESIAN_POINT('',(-6.0,-19.5,8.85));
#1873=VECTOR('',#2217,1.0);
#1874=CARTESIAN_POINT('',(0.0,-20.0,8.85));
#1875=VECTOR('',#2218,1.0);
#1876=COLOUR_RGB('',1.0,1.0,0.501960813999176);
#1877=CARTESIAN_POINT('',(-6.0,-20.0,7.85));
#1878=VECTOR('',#2219,1.0);
#1879=COLOUR_RGB('',1.0,1.0,0.501960813999176);
#1880=CARTESIAN_POINT('',(-11.423,-20.0,7.6699));
#1881=CARTESIAN_POINT('',(-11.37295,-20.0,7.71995));
#1882=VECTOR('',#2220,1.0);
#1883=CARTESIAN_POINT('',(-11.423,-20.0,4.4001));
#1884=CARTESIAN_POINT('',(-11.423,-20.0,5.1925));
#1885=VECTOR('',#2221,1.0);
#1886=CARTESIAN_POINT('',(-11.37295,-20.0,4.35005));
#1887=CARTESIAN_POINT('',(-11.94995,-20.0,4.92705));
#1888=VECTOR('',#2222,1.0);
#1889=CARTESIAN_POINT('',(11.37295,-20.0,4.35005));
#1890=CARTESIAN_POINT('',(-11.37295,-20.0,4.35005));
#1891=VECTOR('',#2223,1.0);
#1892=CARTESIAN_POINT('',(11.423,-20.0,4.4001));
#1893=CARTESIAN_POINT('',(11.37295,-20.0,4.35005));
#1894=VECTOR('',#2224,1.0);
#1895=CARTESIAN_POINT('',(11.423,-20.0,7.6699));
#1896=CARTESIAN_POINT('',(11.423,-20.0,6.9425));
#1897=VECTOR('',#2225,1.0);
#1898=CARTESIAN_POINT('',(11.94995,-20.0,7.14295));
#1899=VECTOR('',#2226,1.0);
#1900=COLOUR_RGB('',1.0,1.0,0.501960813999176);
#1901=CARTESIAN_POINT('',(6.0,20.0,8.85));
#1902=CARTESIAN_POINT('',(6.0,20.0,7.85));
#1903=VECTOR('',#2227,1.0);
#1904=CARTESIAN_POINT('',(6.0,19.0,8.85));
#1905=CARTESIAN_POINT('',(6.0,19.5,8.85));
#1906=VECTOR('',#2228,1.0);
#1907=CARTESIAN_POINT('',(6.0,19.0,7.85));
#1908=VECTOR('',#2229,1.0);
#1909=COLOUR_RGB('',1.0,1.0,0.501960813999176);
#1910=CARTESIAN_POINT('',(-6.0,20.0,8.85));
#1911=CARTESIAN_POINT('',(-6.0,19.0,8.85));
#1912=CARTESIAN_POINT('',(-6.0,19.5,8.85));
#1913=VECTOR('',#2230,1.0);
#1914=CARTESIAN_POINT('',(0.0,19.0,8.85));
#1915=VECTOR('',#2231,1.0);
#1916=CARTESIAN_POINT('',(0.0,20.0,8.85));
#1917=VECTOR('',#2232,1.0);
#1918=COLOUR_RGB('',1.0,1.0,0.501960813999176);
#1919=CARTESIAN_POINT('',(-6.0,19.0,7.85));
#1920=VECTOR('',#2233,1.0);
#1921=COLOUR_RGB('',1.0,1.0,0.501960813999176);
#1922=CARTESIAN_POINT('',(-6.0,20.0,7.85));
#1923=VECTOR('',#2234,1.0);
#1924=COLOUR_RGB('',1.0,1.0,0.501960813999176);
#1925=CARTESIAN_POINT('',(11.94995,-19.0867417677643,7.14295));
#1926=CARTESIAN_POINT('',(11.5680793956328,-19.7485625725602,7.52482060436724));
#1927=VECTOR('',#2235,1.0);
#1928=CARTESIAN_POINT('',(11.94995,-19.0867417677643,4.92705));
#1929=CARTESIAN_POINT('',(11.9308150759849,-19.1199045476865,4.90791507598487));
#1930=VECTOR('',#2236,1.0);
#1931=CARTESIAN_POINT('',(11.94995,-19.0867417677643,6.9425));
#1932=VECTOR('',#2237,1.0);
#1933=COLOUR_RGB('',1.0,1.0,0.501960813999176);
#1934=CARTESIAN_POINT('',(11.94995,19.0867417677643,7.14295));
#1935=CARTESIAN_POINT('',(11.94995,-20.0,7.14295));
#1936=VECTOR('',#2238,1.0);
#1937=CARTESIAN_POINT('',(11.423,20.0,7.6699));
#1938=CARTESIAN_POINT('',(18.8451856976105,7.13659324504249,0.247714302389518));
#1939=VECTOR('',#2239,1.0);
#1940=CARTESIAN_POINT('',(11.94995,20.0,7.14295));
#1941=VECTOR('',#2240,1.0);
#1942=COLOUR_RGB('',1.0,1.0,0.501960813999176);
#1943=CARTESIAN_POINT('',(11.94995,19.0867417677643,4.92705));
#1944=CARTESIAN_POINT('',(11.94995,-20.0,4.92705));
#1945=VECTOR('',#2241,1.0);
#1946=CARTESIAN_POINT('',(11.94995,19.0867417677643,5.1925));
#1947=VECTOR('',#2242,1.0);
#1948=COLOUR_RGB('',1.0,1.0,0.501960813999176);
#1949=CARTESIAN_POINT('',(-11.423,20.0,7.6699));
#1950=CARTESIAN_POINT('',(-11.94995,19.0867417677643,7.14295));
#1951=CARTESIAN_POINT('',(-18.4954405512655,7.74273734616036,0.597459448734523));
#1952=VECTOR('',#2243,1.0);
#1953=CARTESIAN_POINT('',(-11.423,20.0,4.4001));
#1954=CARTESIAN_POINT('',(-11.423,20.0,6.9425));
#1955=VECTOR('',#2244,1.0);
#1956=CARTESIAN_POINT('',(-11.94995,19.0867417677643,4.92705));
#1957=CARTESIAN_POINT('',(-18.8581762316176,7.11407932128669,11.8352762316176));
#1958=VECTOR('',#2245,1.0);
#1959=CARTESIAN_POINT('',(-11.94995,19.0867417677643,6.9425));
#1960=VECTOR('',#2246,1.0);
#1961=COLOUR_RGB('',1.0,1.0,0.501960813999176);
#1962=CARTESIAN_POINT('',(-11.94995,-19.0867417677643,7.14295));
#1963=CARTESIAN_POINT('',(-11.94995,-20.0,7.14295));
#1964=VECTOR('',#2247,1.0);
#1965=CARTESIAN_POINT('',(-11.9178245419778,-19.1424184714423,7.17507545802223));
#1966=VECTOR('',#2248,1.0);
#1967=CARTESIAN_POINT('',(-11.37295,20.0,7.71995));
#1968=VECTOR('',#2249,1.0);
#1969=COLOUR_RGB('',1.0,1.0,0.501960813999176);
#1970=CARTESIAN_POINT('',(-11.94995,-19.0867417677643,4.92705));
#1971=CARTESIAN_POINT('',(-11.94995,-20.0,4.92705));
#1972=VECTOR('',#2250,1.0);
#1973=CARTESIAN_POINT('',(-11.94995,-19.0867417677643,5.1925));
#1974=VECTOR('',#2251,1.0);
#1975=COLOUR_RGB('',1.0,1.0,0.501960813999176);
#1976=CARTESIAN_POINT('',(-11.5810699296399,-19.7260486488044,4.55816992963986));
#1977=VECTOR('',#2252,1.0);
#1978=COLOUR_RGB('',1.0,1.0,0.501960813999176);
#1979=CARTESIAN_POINT('',(-11.37295,20.0,4.35005));
#1980=CARTESIAN_POINT('',(-11.94995,20.0,4.92705));
#1981=VECTOR('',#2253,1.0);
#1982=CARTESIAN_POINT('',(-11.37295,-20.0,4.35005));
#1983=VECTOR('',#2254,1.0);
#1984=COLOUR_RGB('',1.0,1.0,0.501960813999176);
#1985=CARTESIAN_POINT('',(11.423,20.0,4.4001));
#1986=CARTESIAN_POINT('',(18.5084310852726,7.72022342240455,11.4855310852726));
#1987=VECTOR('',#2255,1.0);
#1988=CARTESIAN_POINT('',(11.423,20.0,5.1925));
#1989=VECTOR('',#2256,1.0);
#1990=COLOUR_RGB('',1.0,1.0,0.501960813999176);
#1991=CARTESIAN_POINT('',(11.37295,20.0,4.35005));
#1992=CARTESIAN_POINT('',(11.37295,20.0,4.35005));
#1993=VECTOR('',#2257,1.0);
#1994=CARTESIAN_POINT('',(-11.37295,20.0,4.35005));
#1995=VECTOR('',#2258,1.0);
#1996=COLOUR_RGB('',1.0,1.0,0.501960813999176);
#1997=CARTESIAN_POINT('',(-5.2,15.0,5.35));
#1998=CARTESIAN_POINT('',(-5.2,0.0,5.35));
#1999=VECTOR('',#2259,1.0);
#2000=CARTESIAN_POINT('',(0.0,15.0,5.35));
#2001=VECTOR('',#2260,1.0);
#2002=COLOUR_RGB('',1.0,1.0,0.501960813999176);
#2003=CARTESIAN_POINT('',(5.2,15.0,5.35));
#2004=CARTESIAN_POINT('',(5.2,0.0,5.35));
#2005=VECTOR('',#2261,1.0);
#2006=CARTESIAN_POINT('',(7.0,15.0,5.35));
#2007=CARTESIAN_POINT('',(7.0,0.0,5.35));
#2008=VECTOR('',#2262,1.0);
#2009=CARTESIAN_POINT('',(0.0,15.0,5.35));
#2010=VECTOR('',#2263,1.0);
#2011=COLOUR_RGB('',1.0,1.0,0.501960813999176);
#2012=CARTESIAN_POINT('',(7.0,15.0,5.7));
#2013=CARTESIAN_POINT('',(2.70125,15.0,5.7));
#2014=VECTOR('',#2264,1.0);
#2015=CARTESIAN_POINT('',(0.0,15.0,5.35));
#2016=VECTOR('',#2265,1.0);
#2017=CARTESIAN_POINT('',(7.0,15.0,7.1));
#2018=VECTOR('',#2266,1.0);
#2019=COLOUR_RGB('',1.0,1.0,0.501960813999176);
#2020=CARTESIAN_POINT('',(7.0,-7.525,5.7));
#2021=VECTOR('',#2267,1.0);
#2022=COLOUR_RGB('',1.0,1.0,0.501960813999176);
#2023=CARTESIAN_POINT('',(-5.2,16.75,5.35));
#2024=CARTESIAN_POINT('',(-5.2,0.0,5.35));
#2025=VECTOR('',#2268,1.0);
#2026=CARTESIAN_POINT('',(5.2,16.75,5.35));
#2027=CARTESIAN_POINT('',(0.0,16.75,5.35));
#2028=VECTOR('',#2269,1.0);
#2029=CARTESIAN_POINT('',(5.2,0.0,5.35));
#2030=VECTOR('',#2270,1.0);
#2031=COLOUR_RGB('',1.0,1.0,0.501960813999176);
#2032=CARTESIAN_POINT('',(-5.2,-16.75,4.35005));
#2033=CARTESIAN_POINT('',(5.2,-16.75,4.35005));
#2034=CARTESIAN_POINT('',(4.143225,-16.75,4.35005));
#2035=VECTOR('',#2271,1.0);
#2036=CARTESIAN_POINT('',(-5.2,-16.75,5.35));
#2037=CARTESIAN_POINT('',(-5.2,-16.75,4.85));
#2038=VECTOR('',#2272,1.0);
#2039=CARTESIAN_POINT('',(5.2,-16.75,5.35));
#2040=CARTESIAN_POINT('',(0.0,-16.75,5.35));
#2041=VECTOR('',#2273,1.0);
#2042=CARTESIAN_POINT('',(5.2,-16.75,4.85));
#2043=VECTOR('',#2274,1.0);
#2044=COLOUR_RGB('',1.0,1.0,0.501960813999176);
#2045=CARTESIAN_POINT('',(5.2,16.75,4.35005));
#2046=CARTESIAN_POINT('',(5.2,-10.0,4.35005));
#2047=VECTOR('',#2275,1.0);
#2048=CARTESIAN_POINT('',(5.2,0.0,5.35));
#2049=VECTOR('',#2276,1.0);
#2050=CARTESIAN_POINT('',(5.2,16.75,4.85));
#2051=VECTOR('',#2277,1.0);
#2052=COLOUR_RGB('',1.0,1.0,0.501960813999176);
#2053=CARTESIAN_POINT('',(-5.2,0.0,5.35));
#2054=VECTOR('',#2278,1.0);
#2055=COLOUR_RGB('',1.0,1.0,0.501960813999176);
#2056=CARTESIAN_POINT('',(-5.2,16.75,4.35005));
#2057=CARTESIAN_POINT('',(4.143225,16.75,4.35005));
#2058=VECTOR('',#2279,1.0);
#2059=CARTESIAN_POINT('',(-5.2,16.75,4.85));
#2060=VECTOR('',#2280,1.0);
#2061=COLOUR_RGB('',1.0,1.0,0.501960813999176);
#2062=CARTESIAN_POINT('',(-5.2,-10.0,4.35005));
#2063=VECTOR('',#2281,1.0);
#2064=COLOUR_RGB('',1.0,1.0,0.501960813999176);
#2065=CARTESIAN_POINT('',(11.37295,-20.0,4.35005));
#2066=VECTOR('',#2282,1.0);
#2067=COLOUR_RGB('',1.0,1.0,0.501960813999176);
#2068=COLOUR_RGB('',0.752941191196442,0.752941191196442,0.752941191196442);
#2069=CARTESIAN_POINT('',(6.995,-15.05,9.0));
#2070=CARTESIAN_POINT('',(6.995,-15.05,9.0));
#2071=VECTOR('',#2283,1.0);
#2072=CARTESIAN_POINT('',(6.495,-15.05,9.5));
#2073=AXIS2_PLACEMENT_3D('',#2284,#2285,#2286);
#2074=CARTESIAN_POINT('',(-6.505,-15.05,9.5));
#2075=CARTESIAN_POINT('',(-6.505,-15.05,9.5));
#2076=VECTOR('',#2287,1.0);
#2077=CARTESIAN_POINT('',(-7.005,-15.05,9.0));
#2078=AXIS2_PLACEMENT_3D('',#2288,#2289,#2290);
#2079=CARTESIAN_POINT('',(-7.005,-15.05,7.4));
#2080=VECTOR('',#2291,1.0);
#2081=COLOUR_RGB('',0.752941191196442,0.752941191196442,0.752941191196442);
#2082=CARTESIAN_POINT('',(6.995,-15.05,7.4));
#2083=VECTOR('',#2292,1.0);
#2084=CARTESIAN_POINT('',(6.995,15.05,9.0));
#2085=CARTESIAN_POINT('',(6.995,15.05,9.0));
#2086=VECTOR('',#2293,1.0);
#2087=CARTESIAN_POINT('',(6.995,-15.05,9.0));
#2088=VECTOR('',#2294,1.0);
#2089=COLOUR_RGB('',0.752941191196442,0.752941191196442,0.752941191196442);
#2090=COLOUR_RGB('',0.752941191196442,0.752941191196442,0.752941191196442);
#2091=AXIS2_PLACEMENT_3D('',#2295,#2296,#2297);
#2092=AXIS2_PLACEMENT_3D('',#2298,#2299,#2300);
#2093=COLOUR_RGB('',0.752941191196442,0.752941191196442,0.752941191196442);
#2094=AXIS2_PLACEMENT_3D('',#2301,#2302,#2303);
#2095=COLOUR_RGB('',0.752941191196442,0.752941191196442,0.752941191196442);
#2096=AXIS2_PLACEMENT_3D('',#2304,#2305,#2306);
#2097=COLOUR_RGB('',0.752941191196442,0.752941191196442,0.752941191196442);
#2098=AXIS2_PLACEMENT_3D('',#2307,#2308,#2309);
#2099=COLOUR_RGB('',0.752941191196442,0.752941191196442,0.752941191196442);
#2100=AXIS2_PLACEMENT_3D('',#2310,#2311,#2312);
#2101=AXIS2_PLACEMENT_3D('',#2313,#2314,#2315);
#2102=COLOUR_RGB('',0.752941191196442,0.752941191196442,0.752941191196442);
#2103=AXIS2_PLACEMENT_3D('',#2316,#2317,#2318);
#2104=COLOUR_RGB('',0.752941191196442,0.752941191196442,0.752941191196442);
#2105=AXIS2_PLACEMENT_3D('',#2319,#2320,#2321);
#2106=COLOUR_RGB('',0.752941191196442,0.752941191196442,0.752941191196442);
#2107=AXIS2_PLACEMENT_3D('',#2322,#2323,#2324);
#2108=COLOUR_RGB('',0.752941191196442,0.752941191196442,0.752941191196442);
#2109=COLOUR_RGB('',0.752941191196442,0.752941191196442,0.752941191196442);
#2110=CARTESIAN_POINT('',(6.495,15.05,9.5));
#2111=AXIS2_PLACEMENT_3D('',#2325,#2326,#2327);
#2112=CARTESIAN_POINT('',(6.495,-15.05,9.5));
#2113=VECTOR('',#2328,1.0);
#2114=COLOUR_RGB('',0.752941191196442,0.752941191196442,0.752941191196442);
#2115=CARTESIAN_POINT('',(-6.505,15.05,9.5));
#2116=CARTESIAN_POINT('',(-6.505,15.05,9.5));
#2117=VECTOR('',#2329,1.0);
#2118=CARTESIAN_POINT('',(-6.505,-15.05,9.5));
#2119=VECTOR('',#2330,1.0);
#2120=COLOUR_RGB('',0.752941191196442,0.752941191196442,0.752941191196442);
#2121=CARTESIAN_POINT('',(-7.005,15.05,9.0));
#2122=AXIS2_PLACEMENT_3D('',#2331,#2332,#2333);
#2123=CARTESIAN_POINT('',(-7.005,-15.05,9.0));
#2124=VECTOR('',#2334,1.0);
#2125=COLOUR_RGB('',0.752941191196442,0.752941191196442,0.752941191196442);
#2126=CARTESIAN_POINT('',(-7.005,15.05,7.4));
#2127=VECTOR('',#2335,1.0);
#2128=COLOUR_RGB('',0.752941191196442,0.752941191196442,0.752941191196442);
#2129=COLOUR_RGB('',0.752941191196442,0.752941191196442,0.752941191196442);
#2130=DIRECTION('',(-0.0,-0.0,-1.0));
#2131=CARTESIAN_POINT('',(0.0,-10.0,9.5));
#2132=DIRECTION('',(0.0,0.0,-1.0));
#2133=DIRECTION('',(1.0,0.0,0.0));
#2134=DIRECTION('',(-0.0,0.0,1.0));
#2135=CARTESIAN_POINT('',(0.0,-10.0,8.2));
#2136=DIRECTION('',(0.0,0.0,1.0));
#2137=DIRECTION('',(1.0,0.0,0.0));
#2138=DIRECTION('',(0.707106781186548,0.0,-0.707106781186548));
#2139=DIRECTION('',(0.707106781186548,-0.0,0.707106781186548));
#2140=CARTESIAN_POINT('',(0.0,-10.0,8.0));
#2141=DIRECTION('',(0.0,0.0,1.0));
#2142=DIRECTION('',(1.0,0.0,0.0));
#2143=DIRECTION('',(-0.0,-0.0,-1.0));
#2144=CARTESIAN_POINT('',(0.0,-10.0,8.0));
#2145=DIRECTION('',(0.0,0.0,1.0));
#2146=DIRECTION('',(1.0,0.0,0.0));
#2147=DIRECTION('',(-0.0,0.0,1.0));
#2148=CARTESIAN_POINT('',(0.0,-10.0,5.7));
#2149=DIRECTION('',(0.0,-0.0,1.0));
#2150=DIRECTION('',(1.0,0.0,0.0));
#2151=DIRECTION('',(-0.0,-0.0,-1.0));
#2152=CARTESIAN_POINT('',(0.0,10.0,9.5));
#2153=DIRECTION('',(0.0,0.0,-1.0));
#2154=DIRECTION('',(1.0,0.0,0.0));
#2155=DIRECTION('',(-0.0,0.0,1.0));
#2156=CARTESIAN_POINT('',(0.0,10.0,8.2));
#2157=DIRECTION('',(0.0,0.0,1.0));
#2158=DIRECTION('',(1.0,0.0,0.0));
#2159=DIRECTION('',(0.707106781186548,0.0,-0.707106781186548));
#2160=DIRECTION('',(0.707106781186548,-0.0,0.707106781186548));
#2161=CARTESIAN_POINT('',(0.0,10.0,8.0));
#2162=DIRECTION('',(0.0,0.0,1.0));
#2163=DIRECTION('',(1.0,0.0,0.0));
#2164=DIRECTION('',(-0.0,-0.0,-1.0));
#2165=CARTESIAN_POINT('',(0.0,10.0,8.0));
#2166=DIRECTION('',(0.0,0.0,1.0));
#2167=DIRECTION('',(1.0,0.0,0.0));
#2168=DIRECTION('',(-0.0,0.0,1.0));
#2169=CARTESIAN_POINT('',(0.0,10.0,5.7));
#2170=DIRECTION('',(0.0,-0.0,1.0));
#2171=DIRECTION('',(1.0,0.0,0.0));
#2172=DIRECTION('',(-0.0,1.0,0.0));
#2173=DIRECTION('',(0.0,0.0,-1.0));
#2174=DIRECTION('',(0.0,1.0,0.0));
#2175=DIRECTION('',(0.0,0.0,-1.0));
#2176=DIRECTION('',(0.0,1.0,0.0));
#2177=DIRECTION('',(1.0,0.0,-0.0));
#2178=DIRECTION('',(0.0,-1.0,0.0));
#2179=DIRECTION('',(-1.0,0.0,0.0));
#2180=DIRECTION('',(0.0,1.0,0.0));
#2181=DIRECTION('',(1.0,0.0,-0.0));
#2182=DIRECTION('',(0.0,-1.0,0.0));
#2183=DIRECTION('',(-1.0,0.0,0.0));
#2184=DIRECTION('',(0.0,-1.0,0.0));
#2185=DIRECTION('',(-1.0,0.0,0.0));
#2186=DIRECTION('',(0.0,1.0,0.0));
#2187=DIRECTION('',(-1.0,0.0,0.0));
#2188=DIRECTION('',(0.0,-1.0,0.0));
#2189=DIRECTION('',(-1.0,0.0,0.0));
#2190=DIRECTION('',(0.0,1.0,0.0));
#2191=DIRECTION('',(-1.0,0.0,0.0));
#2192=DIRECTION('',(0.0,1.0,0.0));
#2193=DIRECTION('',(-1.0,0.0,0.0));
#2194=DIRECTION('',(0.0,1.0,0.0));
#2195=DIRECTION('',(1.0,0.0,-0.0));
#2196=DIRECTION('',(0.0,0.0,-1.0));
#2197=DIRECTION('',(0.0,0.0,-1.0));
#2198=CARTESIAN_POINT('',(7.795,-15.0,7.4));
#2199=DIRECTION('',(0.0,-1.0,-0.0));
#2200=DIRECTION('',(-1.0,0.0,-2.77555756156289E-15));
#2201=DIRECTION('',(-1.0,0.0,0.0));
#2202=DIRECTION('',(0.0,0.0,-1.0));
#2203=DIRECTION('',(-1.0,0.0,0.0));
#2204=DIRECTION('',(1.0,0.0,0.0));
#2205=DIRECTION('',(-1.0,0.0,0.0));
#2206=DIRECTION('',(-0.0,0.0,1.0));
#2207=CARTESIAN_POINT('',(7.795,15.0,7.4));
#2208=DIRECTION('',(0.0,1.0,-0.0));
#2209=DIRECTION('',(-1.0,-0.0,-2.77555756156289E-15));
#2210=DIRECTION('',(0.0,0.0,-1.0));
#2211=DIRECTION('',(0.0,1.0,0.0));
#2212=DIRECTION('',(0.0,0.0,-1.0));
#2213=DIRECTION('',(0.0,1.0,0.0));
#2214=DIRECTION('',(0.0,0.0,-1.0));
#2215=DIRECTION('',(0.0,0.0,-1.0));
#2216=DIRECTION('',(-1.0,0.0,0.0));
#2217=DIRECTION('',(0.0,-1.0,0.0));
#2218=DIRECTION('',(1.0,0.0,0.0));
#2219=DIRECTION('',(0.0,0.0,-1.0));
#2220=DIRECTION('',(-0.707106781186548,0.0,-0.707106781186548));
#2221=DIRECTION('',(0.0,0.0,-1.0));
#2222=DIRECTION('',(0.707106781186548,0.0,-0.707106781186548));
#2223=DIRECTION('',(1.0,0.0,0.0));
#2224=DIRECTION('',(0.707106781186548,0.0,0.707106781186548));
#2225=DIRECTION('',(0.0,-0.0,1.0));
#2226=DIRECTION('',(-0.707106781186548,0.0,0.707106781186548));
#2227=DIRECTION('',(0.0,0.0,-1.0));
#2228=DIRECTION('',(0.0,1.0,0.0));
#2229=DIRECTION('',(0.0,0.0,-1.0));
#2230=DIRECTION('',(0.0,-1.0,0.0));
#2231=DIRECTION('',(1.0,0.0,0.0));
#2232=DIRECTION('',(-1.0,0.0,0.0));
#2233=DIRECTION('',(0.0,0.0,-1.0));
#2234=DIRECTION('',(0.0,0.0,-1.0));
#2235=DIRECTION('',(0.447050745821997,0.774784654804154,-0.447050745821997));
#2236=DIRECTION('',(-0.447050745821997,-0.774784654804154,-0.447050745821997));
#2237=DIRECTION('',(0.0,0.0,-1.0));
#2238=DIRECTION('',(0.0,1.0,0.0));
#2239=DIRECTION('',(-0.447050745821997,0.774784654804154,0.447050745821997));
#2240=DIRECTION('',(-0.707106781186548,0.0,0.707106781186548));
#2241=DIRECTION('',(0.0,1.0,0.0));
#2242=DIRECTION('',(-0.0,0.0,1.0));
#2243=DIRECTION('',(-0.447050745821997,-0.774784654804154,-0.447050745821997));
#2244=DIRECTION('',(-0.0,0.0,1.0));
#2245=DIRECTION('',(0.447050745821997,0.774784654804154,-0.447050745821997));
#2246=DIRECTION('',(-0.0,-0.0,-1.0));
#2247=DIRECTION('',(0.0,1.0,0.0));
#2248=DIRECTION('',(0.447050745821997,-0.774784654804154,0.447050745821997));
#2249=DIRECTION('',(-0.707106781186548,0.0,-0.707106781186548));
#2250=DIRECTION('',(0.0,1.0,0.0));
#2251=DIRECTION('',(0.0,-0.0,1.0));
#2252=DIRECTION('',(-0.447050745821997,0.774784654804154,0.447050745821997));
#2253=DIRECTION('',(0.707106781186548,0.0,-0.707106781186548));
#2254=DIRECTION('',(0.0,1.0,0.0));
#2255=DIRECTION('',(0.447050745821997,-0.774784654804154,0.447050745821997));
#2256=DIRECTION('',(-0.0,0.0,-1.0));
#2257=DIRECTION('',(0.707106781186548,0.0,0.707106781186548));
#2258=DIRECTION('',(1.0,0.0,0.0));
#2259=DIRECTION('',(0.0,-1.0,0.0));
#2260=DIRECTION('',(1.0,0.0,0.0));
#2261=DIRECTION('',(0.0,1.0,0.0));
#2262=DIRECTION('',(0.0,-1.0,0.0));
#2263=DIRECTION('',(1.0,0.0,0.0));
#2264=DIRECTION('',(1.0,0.0,0.0));
#2265=DIRECTION('',(-1.0,0.0,0.0));
#2266=DIRECTION('',(0.0,0.0,-1.0));
#2267=DIRECTION('',(-0.0,-1.0,0.0));
#2268=DIRECTION('',(0.0,-1.0,0.0));
#2269=DIRECTION('',(-1.0,0.0,0.0));
#2270=DIRECTION('',(0.0,1.0,0.0));
#2271=DIRECTION('',(1.0,-0.0,0.0));
#2272=DIRECTION('',(0.0,0.0,-1.0));
#2273=DIRECTION('',(1.0,0.0,0.0));
#2274=DIRECTION('',(0.0,0.0,-1.0));
#2275=DIRECTION('',(0.0,1.0,0.0));
#2276=DIRECTION('',(0.0,1.0,0.0));
#2277=DIRECTION('',(0.0,0.0,-1.0));
#2278=DIRECTION('',(0.0,-1.0,0.0));
#2279=DIRECTION('',(-1.0,-0.0,-0.0));
#2280=DIRECTION('',(0.0,0.0,-1.0));
#2281=DIRECTION('',(0.0,-1.0,0.0));
#2282=DIRECTION('',(0.0,1.0,0.0));
#2283=DIRECTION('',(0.0,0.0,-1.0));
#2284=CARTESIAN_POINT('',(6.495,-15.05,9.0));
#2285=DIRECTION('',(0.0,-1.0,0.0));
#2286=DIRECTION('',(1.0,0.0,1.77635683940025E-15));
#2287=DIRECTION('',(1.0,0.0,0.0));
#2288=CARTESIAN_POINT('',(-6.505,-15.05,9.0));
#2289=DIRECTION('',(0.0,-1.0,0.0));
#2290=DIRECTION('',(-1.77635683940025E-15,0.0,1.0));
#2291=DIRECTION('',(0.0,0.0,1.0));
#2292=DIRECTION('',(0.0,1.0,0.0));
#2293=DIRECTION('',(0.0,0.0,1.0));
#2294=DIRECTION('',(0.0,1.0,0.0));
#2295=CARTESIAN_POINT('',(0.0,10.0,5.7));
#2296=DIRECTION('',(0.0,-0.0,1.0));
#2297=DIRECTION('',(1.0,0.0,0.0));
#2298=CARTESIAN_POINT('',(0.0,10.0,8.0));
#2299=DIRECTION('',(0.0,0.0,1.0));
#2300=DIRECTION('',(1.0,0.0,0.0));
#2301=CARTESIAN_POINT('',(0.0,10.0,8.0));
#2302=DIRECTION('',(0.0,0.0,1.0));
#2303=DIRECTION('',(1.0,0.0,0.0));
#2304=CARTESIAN_POINT('',(0.0,10.0,8.2));
#2305=DIRECTION('',(0.0,0.0,1.0));
#2306=DIRECTION('',(1.0,0.0,0.0));
#2307=CARTESIAN_POINT('',(0.0,10.0,9.5));
#2308=DIRECTION('',(0.0,0.0,-1.0));
#2309=DIRECTION('',(1.0,0.0,0.0));
#2310=CARTESIAN_POINT('',(0.0,-10.0,5.7));
#2311=DIRECTION('',(0.0,-0.0,1.0));
#2312=DIRECTION('',(1.0,0.0,0.0));
#2313=CARTESIAN_POINT('',(0.0,-10.0,8.0));
#2314=DIRECTION('',(0.0,0.0,1.0));
#2315=DIRECTION('',(1.0,0.0,0.0));
#2316=CARTESIAN_POINT('',(0.0,-10.0,8.0));
#2317=DIRECTION('',(0.0,0.0,1.0));
#2318=DIRECTION('',(1.0,0.0,0.0));
#2319=CARTESIAN_POINT('',(0.0,-10.0,8.2));
#2320=DIRECTION('',(0.0,0.0,1.0));
#2321=DIRECTION('',(1.0,0.0,0.0));
#2322=CARTESIAN_POINT('',(0.0,-10.0,9.5));
#2323=DIRECTION('',(0.0,0.0,-1.0));
#2324=DIRECTION('',(1.0,0.0,0.0));
#2325=CARTESIAN_POINT('',(6.495,15.05,9.0));
#2326=DIRECTION('',(0.0,-1.0,0.0));
#2327=DIRECTION('',(1.0,0.0,1.77635683940025E-15));
#2328=DIRECTION('',(0.0,1.0,0.0));
#2329=DIRECTION('',(-1.0,0.0,-0.0));
#2330=DIRECTION('',(0.0,1.0,0.0));
#2331=CARTESIAN_POINT('',(-6.505,15.05,9.0));
#2332=DIRECTION('',(0.0,-1.0,0.0));
#2333=DIRECTION('',(-1.77635683940025E-15,0.0,1.0));
#2334=DIRECTION('',(0.0,1.0,0.0));
#2335=DIRECTION('',(-0.0,0.0,-1.0));
ENDSEC;
END-ISO-10303-21;
