ISO-10303-21;
HEADER;
/****************************************************************
 * Generated by software with PDE/Lib inside                    *
 * PDElib Version v51a, created Fri 12/12/2008                  *
 * International Technegroup Inc. (www.iti-oh.com)              *
 ****************************************************************/
FILE_DESCRIPTION((''),'2;1');
FILE_NAME('G:\\Makerbeam\\PARTS\\100315.stp','2015-07-14T02:29:46',('Jeff'),(''),'Autodesk Inventor 2010','Autodesk Inventor 2010','');
FILE_SCHEMA(('CONFIG_CONTROL_DESIGN'));
ENDSEC;
DATA;
#5=APPLICATION_CONTEXT('configuration controlled 3D designs of mechanical parts and assemblies');
#6=APPLICATION_PROTOCOL_DEFINITION('International Standard','configuration_control_3d_design_ed2_mim_lf',2004,#5);
#7=PRODUCT_CONTEXT('',#5,'mechanical');
#8=PRODUCT('100315','100315',$,(#7));
#9=PRODUCT_RELATED_PRODUCT_CATEGORY('part',$,(#8));
#10=PRODUCT_DEFINITION_FORMATION('',$,#8);
#11=PRODUCT_DEFINITION_CONTEXT('part definition',#5,'design');
#12=PRODUCT_DEFINITION('',$,#10,#11);
#18=(NAMED_UNIT(*)PLANE_ANGLE_UNIT()SI_UNIT($,.RADIAN.));
#19=DIMENSIONAL_EXPONENTS(0.0,0.0,0.0,0.0,0.0,0.0,0.0);
#20=PLANE_ANGLE_MEASURE_WITH_UNIT(PLANE_ANGLE_MEASURE(0.017453292500000),#18);
#24=(CONVERSION_BASED_UNIT('DEGREE',#20)NAMED_UNIT(#19)PLANE_ANGLE_UNIT());
#28=(NAMED_UNIT(*)SI_UNIT($,.STERADIAN.)SOLID_ANGLE_UNIT());
#32=(LENGTH_UNIT()NAMED_UNIT(*)SI_UNIT(.MILLI.,.METRE.));
#34=UNCERTAINTY_MEASURE_WITH_UNIT(LENGTH_MEASURE(0.010000000000000),#32,'DISTANCE_ACCURACY_VALUE','');
#36=(GEOMETRIC_REPRESENTATION_CONTEXT(3)GLOBAL_UNCERTAINTY_ASSIGNED_CONTEXT((#34))GLOBAL_UNIT_ASSIGNED_CONTEXT((#24,#28,#32))REPRESENTATION_CONTEXT('None','None'));
#37=AXIS2_PLACEMENT_3D('',#38,#39,#40);
#38=CARTESIAN_POINT('',(0.0,0.0,0.0));
#39=DIRECTION('',(0.0,0.0,1.0));
#40=DIRECTION('',(1.0,0.0,0.0));
#41=SHAPE_REPRESENTATION('',(#37),#36);
#42=PRODUCT_DEFINITION_SHAPE('','',#12);
#43=SHAPE_DEFINITION_REPRESENTATION(#42,#41);
#49=(NAMED_UNIT(*)PLANE_ANGLE_UNIT()SI_UNIT($,.RADIAN.));
#50=DIMENSIONAL_EXPONENTS(0.0,0.0,0.0,0.0,0.0,0.0,0.0);
#51=PLANE_ANGLE_MEASURE_WITH_UNIT(PLANE_ANGLE_MEASURE(0.017453292500000),#49);
#55=(CONVERSION_BASED_UNIT('DEGREE',#51)NAMED_UNIT(#50)PLANE_ANGLE_UNIT());
#59=(NAMED_UNIT(*)SI_UNIT($,.STERADIAN.)SOLID_ANGLE_UNIT());
#63=(LENGTH_UNIT()NAMED_UNIT(*)SI_UNIT(.MILLI.,.METRE.));
#65=UNCERTAINTY_MEASURE_WITH_UNIT(LENGTH_MEASURE(0.000001000000000),#63,'DISTANCE_ACCURACY_VALUE','');
#67=(GEOMETRIC_REPRESENTATION_CONTEXT(3)GLOBAL_UNCERTAINTY_ASSIGNED_CONTEXT((#65))GLOBAL_UNIT_ASSIGNED_CONTEXT((#55,#59,#63))REPRESENTATION_CONTEXT('','3D'));
#68=CARTESIAN_POINT('',(9.999999999999996,-1.696460032938489,-3.375000000000000));
#69=DIRECTION('',(1.0,0.0,0.0));
#70=DIRECTION('',(0.0,0.0,-1.0));
#71=AXIS2_PLACEMENT_3D('',#68,#69,#70);
#72=PLANE('',#71);
#73=CARTESIAN_POINT('',(9.999999999999996,1.303539967061512,2.249999999999999));
#74=VERTEX_POINT('',#73);
#75=CARTESIAN_POINT('',(9.999999999999996,-1.696460032938489,-0.750000000000000));
#76=VERTEX_POINT('',#75);
#77=CARTESIAN_POINT('',(9.999999999999996,-1.696460032938489,2.250000000000000));
#78=DIRECTION('',(-1.0,0.0,0.0));
#79=DIRECTION('',(0.0,0.0,-1.0));
#80=AXIS2_PLACEMENT_3D('',#77,#78,#79);
#81=CIRCLE('',#80,3.000000000000000);
#82=EDGE_CURVE('',#74,#76,#81,.T.);
#83=ORIENTED_EDGE('',*,*,#82,.F.);
#84=CARTESIAN_POINT('',(9.999999999999996,-0.196460032938488,2.250000000000000));
#85=VERTEX_POINT('',#84);
#86=CARTESIAN_POINT('',(9.999999999999996,-0.196460032938488,2.250000000000000));
#87=DIRECTION('',(0.0,1.0,0.0));
#88=VECTOR('',#87,1.500000000000000);
#89=LINE('',#86,#88);
#90=EDGE_CURVE('',#85,#74,#89,.T.);
#91=ORIENTED_EDGE('',*,*,#90,.F.);
#92=CARTESIAN_POINT('',(9.999999999999996,-1.696460032938489,0.750000000000000));
#93=VERTEX_POINT('',#92);
#94=CARTESIAN_POINT('',(9.999999999999996,-1.696460032938489,2.250000000000000));
#95=DIRECTION('',(1.0,0.0,0.0));
#96=DIRECTION('',(0.0,0.0,-1.0));
#97=AXIS2_PLACEMENT_3D('',#94,#95,#96);
#98=CIRCLE('',#97,1.500000000000000);
#99=EDGE_CURVE('',#93,#85,#98,.T.);
#100=ORIENTED_EDGE('',*,*,#99,.F.);
#101=CARTESIAN_POINT('',(9.999999999999998,-1.696460032938489,-0.750000000000000));
#102=DIRECTION('',(0.0,0.0,1.0));
#103=VECTOR('',#102,1.500000000000000);
#104=LINE('',#101,#103);
#105=EDGE_CURVE('',#76,#93,#104,.T.);
#106=ORIENTED_EDGE('',*,*,#105,.F.);
#107=EDGE_LOOP('',(#83,#91,#100,#106));
#108=FACE_OUTER_BOUND('',#107,.T.);
#109=ADVANCED_FACE('',(#108),#72,.T.);
#110=CARTESIAN_POINT('',(5.193911E-016,-1.696460032938489,-3.375000000000000));
#111=DIRECTION('',(1.0,0.0,0.0));
#112=DIRECTION('',(0.0,0.0,-1.0));
#113=AXIS2_PLACEMENT_3D('',#110,#111,#112);
#114=PLANE('',#113);
#115=CARTESIAN_POINT('',(5.193911E-016,-1.696460032938489,-0.750000000000000));
#116=VERTEX_POINT('',#115);
#117=CARTESIAN_POINT('',(-5.193911E-016,1.303539967061512,2.250000000000000));
#118=VERTEX_POINT('',#117);
#119=CARTESIAN_POINT('',(5.551115E-016,-1.696460032938489,2.250000000000000));
#120=DIRECTION('',(1.0,0.0,0.0));
#121=DIRECTION('',(0.0,0.0,-1.0));
#122=AXIS2_PLACEMENT_3D('',#119,#120,#121);
#123=CIRCLE('',#122,3.000000000000000);
#124=EDGE_CURVE('',#116,#118,#123,.T.);
#125=ORIENTED_EDGE('',*,*,#124,.F.);
#126=CARTESIAN_POINT('',(5.193911E-016,-1.696460032938489,0.750000000000000));
#127=VERTEX_POINT('',#126);
#128=CARTESIAN_POINT('',(5.193911E-016,-1.696460032938489,0.750000000000000));
#129=DIRECTION('',(0.0,0.0,-1.0));
#130=VECTOR('',#129,1.500000000000000);
#131=LINE('',#128,#130);
#132=EDGE_CURVE('',#127,#116,#131,.T.);
#133=ORIENTED_EDGE('',*,*,#132,.F.);
#134=CARTESIAN_POINT('',(-5.193911E-016,-0.196460032938488,2.250000000000000));
#135=VERTEX_POINT('',#134);
#136=CARTESIAN_POINT('',(5.551115E-016,-1.696460032938489,2.250000000000000));
#137=DIRECTION('',(-1.0,0.0,0.0));
#138=DIRECTION('',(0.0,0.0,-1.0));
#139=AXIS2_PLACEMENT_3D('',#136,#137,#138);
#140=CIRCLE('',#139,1.500000000000000);
#141=EDGE_CURVE('',#135,#127,#140,.T.);
#142=ORIENTED_EDGE('',*,*,#141,.F.);
#143=CARTESIAN_POINT('',(-5.551115E-016,1.303539967061512,2.249999999999999));
#144=DIRECTION('',(0.0,-1.0,0.0));
#145=VECTOR('',#144,1.500000000000000);
#146=LINE('',#143,#145);
#147=EDGE_CURVE('',#118,#135,#146,.T.);
#148=ORIENTED_EDGE('',*,*,#147,.F.);
#149=EDGE_LOOP('',(#125,#133,#142,#148));
#150=FACE_OUTER_BOUND('',#149,.T.);
#151=ADVANCED_FACE('',(#150),#114,.F.);
#152=CARTESIAN_POINT('',(5.0,-1.696460032938489,2.250000000000000));
#153=DIRECTION('',(1.0,0.0,0.0));
#154=DIRECTION('',(0.0,0.0,-1.0));
#155=AXIS2_PLACEMENT_3D('',#152,#153,#154);
#156=CYLINDRICAL_SURFACE('',#155,3.000000000000000);
#157=ORIENTED_EDGE('',*,*,#124,.T.);
#158=CARTESIAN_POINT('',(9.999999999999996,1.303539967061512,2.250000000000000));
#159=DIRECTION('',(-1.0,0.0,0.0));
#160=VECTOR('',#159,9.999999999999996);
#161=LINE('',#158,#160);
#162=EDGE_CURVE('',#74,#118,#161,.T.);
#163=ORIENTED_EDGE('',*,*,#162,.F.);
#164=ORIENTED_EDGE('',*,*,#82,.T.);
#165=CARTESIAN_POINT('',(4.440892E-016,-1.696460032938489,-0.750000000000000));
#166=DIRECTION('',(1.0,0.0,0.0));
#167=VECTOR('',#166,9.999999999999996);
#168=LINE('',#165,#167);
#169=EDGE_CURVE('',#116,#76,#168,.T.);
#170=ORIENTED_EDGE('',*,*,#169,.F.);
#171=EDGE_LOOP('',(#157,#163,#164,#170));
#172=FACE_OUTER_BOUND('',#171,.T.);
#173=ADVANCED_FACE('',(#172),#156,.T.);
#174=CARTESIAN_POINT('',(5.0,-1.696460032938489,2.250000000000000));
#175=DIRECTION('',(1.0,0.0,0.0));
#176=DIRECTION('',(0.0,0.0,-1.0));
#177=AXIS2_PLACEMENT_3D('',#174,#175,#176);
#178=CYLINDRICAL_SURFACE('',#177,1.500000000000000);
#179=ORIENTED_EDGE('',*,*,#141,.T.);
#180=CARTESIAN_POINT('',(9.999999999999996,-1.696460032938489,0.750000000000000));
#181=DIRECTION('',(-1.0,0.0,0.0));
#182=VECTOR('',#181,9.999999999999996);
#183=LINE('',#180,#182);
#184=EDGE_CURVE('',#93,#127,#183,.T.);
#185=ORIENTED_EDGE('',*,*,#184,.F.);
#186=ORIENTED_EDGE('',*,*,#99,.T.);
#187=CARTESIAN_POINT('',(0.0,-0.196460032938488,2.250000000000000));
#188=DIRECTION('',(1.0,0.0,0.0));
#189=VECTOR('',#188,9.999999999999996);
#190=LINE('',#187,#189);
#191=EDGE_CURVE('',#135,#85,#190,.T.);
#192=ORIENTED_EDGE('',*,*,#191,.F.);
#193=EDGE_LOOP('',(#179,#185,#186,#192));
#194=FACE_OUTER_BOUND('',#193,.T.);
#195=ADVANCED_FACE('',(#194),#178,.F.);
#196=CARTESIAN_POINT('',(4.999999999999994,15.355456873893182,0.750000000000000));
#197=DIRECTION('',(0.0,0.0,1.0));
#198=DIRECTION('',(1.0,0.0,0.0));
#199=AXIS2_PLACEMENT_3D('',#196,#197,#198);
#200=PLANE('',#199);
#201=ORIENTED_EDGE('',*,*,#184,.T.);
#202=CARTESIAN_POINT('',(9.506321E-015,-31.050000000000004,0.750000000000000));
#203=VERTEX_POINT('',#202);
#204=CARTESIAN_POINT('',(9.506321E-015,-31.050000000000004,0.750000000000000));
#205=DIRECTION('',(0.0,1.0,0.0));
#206=VECTOR('',#205,29.353539967061515);
#207=LINE('',#204,#206);
#208=EDGE_CURVE('',#203,#127,#207,.T.);
#209=ORIENTED_EDGE('',*,*,#208,.F.);
#210=CARTESIAN_POINT('',(0.200000000000009,-31.250000000000000,0.750000000000000));
#211=VERTEX_POINT('',#210);
#212=CARTESIAN_POINT('',(0.200000000000010,-31.050000000000001,0.750000000000000));
#213=DIRECTION('',(0.0,0.0,-1.000000000000000));
#214=DIRECTION('',(-0.707106781186539,-0.707106781186556,0.0));
#215=AXIS2_PLACEMENT_3D('',#212,#213,#214);
#216=CIRCLE('',#215,0.200000000000000);
#217=EDGE_CURVE('',#211,#203,#216,.T.);
#218=ORIENTED_EDGE('',*,*,#217,.F.);
#219=CARTESIAN_POINT('',(9.800000000000003,-31.250000000000000,0.750000000000000));
#220=VERTEX_POINT('',#219);
#221=CARTESIAN_POINT('',(0.200000000000008,-31.250000000000000,0.750000000000000));
#222=DIRECTION('',(1.0,0.0,0.0));
#223=VECTOR('',#222,9.599999999999994);
#224=LINE('',#221,#223);
#225=EDGE_CURVE('',#211,#220,#224,.T.);
#226=ORIENTED_EDGE('',*,*,#225,.T.);
#227=CARTESIAN_POINT('',(9.999999999999989,-31.050000000000004,0.750000000000000));
#228=VERTEX_POINT('',#227);
#229=CARTESIAN_POINT('',(9.800000000000003,-31.050000000000004,0.750000000000000));
#230=DIRECTION('',(0.0,0.0,-1.0));
#231=DIRECTION('',(0.707106781186551,-0.707106781186544,0.0));
#232=AXIS2_PLACEMENT_3D('',#229,#230,#231);
#233=CIRCLE('',#232,0.200000000000000);
#234=EDGE_CURVE('',#228,#220,#233,.T.);
#235=ORIENTED_EDGE('',*,*,#234,.F.);
#236=CARTESIAN_POINT('',(9.999999999999989,-31.050000000000004,0.750000000000000));
#237=DIRECTION('',(0.0,1.0,0.0));
#238=VECTOR('',#237,29.353539967061515);
#239=LINE('',#236,#238);
#240=EDGE_CURVE('',#228,#93,#239,.T.);
#241=ORIENTED_EDGE('',*,*,#240,.T.);
#242=EDGE_LOOP('',(#201,#209,#218,#226,#235,#241));
#243=FACE_OUTER_BOUND('',#242,.T.);
#244=CARTESIAN_POINT('',(6.499999999999990,-26.250000000000000,0.750000000000000));
#245=VERTEX_POINT('',#244);
#246=CARTESIAN_POINT('',(4.999999999999990,-26.250000000000000,0.750000000000000));
#247=DIRECTION('',(0.0,0.0,1.0));
#248=DIRECTION('',(-1.0,0.0,0.0));
#249=AXIS2_PLACEMENT_3D('',#246,#247,#248);
#250=CIRCLE('',#249,1.500000000000000);
#251=EDGE_CURVE('',#245,#245,#250,.T.);
#252=ORIENTED_EDGE('',*,*,#251,.F.);
#253=EDGE_LOOP('',(#252));
#254=FACE_BOUND('',#253,.T.);
#255=CARTESIAN_POINT('',(6.499999999999990,-16.250000000000000,0.750000000000000));
#256=VERTEX_POINT('',#255);
#257=CARTESIAN_POINT('',(4.999999999999990,-16.250000000000000,0.750000000000000));
#258=DIRECTION('',(0.0,0.0,1.0));
#259=DIRECTION('',(-1.0,0.0,0.0));
#260=AXIS2_PLACEMENT_3D('',#257,#258,#259);
#261=CIRCLE('',#260,1.500000000000000);
#262=EDGE_CURVE('',#256,#256,#261,.T.);
#263=ORIENTED_EDGE('',*,*,#262,.F.);
#264=EDGE_LOOP('',(#263));
#265=FACE_BOUND('',#264,.T.);
#266=ADVANCED_FACE('',(#243,#254,#265),#200,.T.);
#267=CARTESIAN_POINT('',(0.0,0.0,0.0));
#268=DIRECTION('',(-1.0,0.0,0.0));
#269=DIRECTION('',(0.0,0.0,1.0));
#270=AXIS2_PLACEMENT_3D('',#267,#268,#269);
#271=PLANE('',#270);
#272=ORIENTED_EDGE('',*,*,#132,.T.);
#273=CARTESIAN_POINT('',(-9.506321E-015,-31.050000000000001,-0.750000000000000));
#274=VERTEX_POINT('',#273);
#275=CARTESIAN_POINT('',(-9.506321E-015,-31.050000000000001,-0.750000000000000));
#276=DIRECTION('',(0.0,1.0,0.0));
#277=VECTOR('',#276,29.353539967061511);
#278=LINE('',#275,#277);
#279=EDGE_CURVE('',#274,#116,#278,.T.);
#280=ORIENTED_EDGE('',*,*,#279,.F.);
#281=CARTESIAN_POINT('',(9.506285E-015,-31.050000000000001,0.750000000000000));
#282=DIRECTION('',(0.0,0.0,-1.0));
#283=VECTOR('',#282,1.500000000000000);
#284=LINE('',#281,#283);
#285=EDGE_CURVE('',#203,#274,#284,.T.);
#286=ORIENTED_EDGE('',*,*,#285,.F.);
#287=ORIENTED_EDGE('',*,*,#208,.T.);
#288=EDGE_LOOP('',(#272,#280,#286,#287));
#289=FACE_OUTER_BOUND('',#288,.T.);
#290=ADVANCED_FACE('',(#289),#271,.T.);
#291=CARTESIAN_POINT('',(9.800000000000003,-31.050000000000004,0.0));
#292=DIRECTION('',(0.0,0.0,1.0));
#293=DIRECTION('',(0.707106781186551,-0.707106781186544,0.0));
#294=AXIS2_PLACEMENT_3D('',#291,#292,#293);
#295=CYLINDRICAL_SURFACE('',#294,0.200000000000000);
#296=ORIENTED_EDGE('',*,*,#234,.T.);
#297=CARTESIAN_POINT('',(9.800000000000003,-31.250000000000000,-0.750000000000000));
#298=VERTEX_POINT('',#297);
#299=CARTESIAN_POINT('',(9.800000000000003,-31.250000000000000,0.750000000000000));
#300=DIRECTION('',(0.0,0.0,-1.0));
#301=VECTOR('',#300,1.500000000000000);
#302=LINE('',#299,#301);
#303=EDGE_CURVE('',#220,#298,#302,.T.);
#304=ORIENTED_EDGE('',*,*,#303,.T.);
#305=CARTESIAN_POINT('',(10.000000000000002,-31.050000000000004,-0.750000000000000));
#306=VERTEX_POINT('',#305);
#307=CARTESIAN_POINT('',(9.800000000000003,-31.050000000000004,-0.750000000000000));
#308=DIRECTION('',(0.0,0.0,1.0));
#309=DIRECTION('',(0.707106781186551,-0.707106781186544,0.0));
#310=AXIS2_PLACEMENT_3D('',#307,#308,#309);
#311=CIRCLE('',#310,0.200000000000000);
#312=EDGE_CURVE('',#298,#306,#311,.T.);
#313=ORIENTED_EDGE('',*,*,#312,.T.);
#314=CARTESIAN_POINT('',(10.000000000000002,-31.050000000000004,-0.750000000000000));
#315=DIRECTION('',(0.0,0.0,1.0));
#316=VECTOR('',#315,1.500000000000000);
#317=LINE('',#314,#316);
#318=EDGE_CURVE('',#306,#228,#317,.T.);
#319=ORIENTED_EDGE('',*,*,#318,.T.);
#320=EDGE_LOOP('',(#296,#304,#313,#319));
#321=FACE_OUTER_BOUND('',#320,.T.);
#322=ADVANCED_FACE('',(#321),#295,.T.);
#323=CARTESIAN_POINT('',(9.800000000000003,-31.250000000000000,-0.750000000000000));
#324=CARTESIAN_POINT('',(9.800000000000003,-31.250000000000000,0.750000000000000));
#325=CARTESIAN_POINT('',(0.200000000000008,-31.250000000000000,-0.750000000000000));
#326=CARTESIAN_POINT('',(0.200000000000008,-31.250000000000000,0.750000000000000));
#327=B_SPLINE_SURFACE_WITH_KNOTS('',1,1,((#323,#325),(#324,#326)),.UNSPECIFIED.,.F.,.F.,.U.,(2,2),(2,2),(0.0,1.500000000000000),(0.0,9.599999999999994),.UNSPECIFIED.);
#328=ORIENTED_EDGE('',*,*,#303,.F.);
#329=ORIENTED_EDGE('',*,*,#225,.F.);
#330=CARTESIAN_POINT('',(0.200000000000009,-31.250000000000000,-0.750000000000000));
#331=VERTEX_POINT('',#330);
#332=CARTESIAN_POINT('',(0.200000000000010,-31.250000000000000,-0.750000000000000));
#333=DIRECTION('',(0.0,0.0,1.0));
#334=VECTOR('',#333,1.500000000000000);
#335=LINE('',#332,#334);
#336=EDGE_CURVE('',#331,#211,#335,.T.);
#337=ORIENTED_EDGE('',*,*,#336,.F.);
#338=CARTESIAN_POINT('',(9.800000000000003,-31.250000000000000,-0.750000000000000));
#339=DIRECTION('',(-1.0,0.0,0.0));
#340=VECTOR('',#339,9.599999999999994);
#341=LINE('',#338,#340);
#342=EDGE_CURVE('',#298,#331,#341,.T.);
#343=ORIENTED_EDGE('',*,*,#342,.F.);
#344=EDGE_LOOP('',(#328,#329,#337,#343));
#345=FACE_OUTER_BOUND('',#344,.T.);
#346=ADVANCED_FACE('',(#345),#327,.T.);
#347=CARTESIAN_POINT('',(0.200000000000010,-31.050000000000001,0.0));
#348=DIRECTION('',(0.0,0.0,1.0));
#349=DIRECTION('',(-0.707106781186539,-0.707106781186556,0.0));
#350=AXIS2_PLACEMENT_3D('',#347,#348,#349);
#351=CYLINDRICAL_SURFACE('',#350,0.200000000000000);
#352=ORIENTED_EDGE('',*,*,#217,.T.);
#353=ORIENTED_EDGE('',*,*,#285,.T.);
#354=CARTESIAN_POINT('',(0.200000000000010,-31.050000000000001,-0.750000000000000));
#355=DIRECTION('',(0.0,0.0,1.000000000000000));
#356=DIRECTION('',(-0.707106781186539,-0.707106781186556,0.0));
#357=AXIS2_PLACEMENT_3D('',#354,#355,#356);
#358=CIRCLE('',#357,0.200000000000000);
#359=EDGE_CURVE('',#274,#331,#358,.T.);
#360=ORIENTED_EDGE('',*,*,#359,.T.);
#361=ORIENTED_EDGE('',*,*,#336,.T.);
#362=EDGE_LOOP('',(#352,#353,#360,#361));
#363=FACE_OUTER_BOUND('',#362,.T.);
#364=ADVANCED_FACE('',(#363),#351,.T.);
#365=CARTESIAN_POINT('',(6.499999999999990,-26.250000000000000,-0.750000000000000));
#366=CARTESIAN_POINT('',(6.499999999999990,-26.250000000000000,0.750000000000000));
#367=CARTESIAN_POINT('',(6.499999999999989,-27.750000000000000,-0.750000000000000));
#368=CARTESIAN_POINT('',(6.499999999999989,-27.750000000000000,0.750000000000000));
#369=CARTESIAN_POINT('',(4.999999999999990,-27.750000000000000,-0.750000000000000));
#370=CARTESIAN_POINT('',(4.999999999999990,-27.750000000000000,0.750000000000000));
#371=CARTESIAN_POINT('',(3.499999999999991,-27.750000000000000,-0.750000000000000));
#372=CARTESIAN_POINT('',(3.499999999999991,-27.750000000000000,0.750000000000000));
#373=CARTESIAN_POINT('',(3.499999999999990,-26.250000000000000,-0.750000000000000));
#374=CARTESIAN_POINT('',(3.499999999999990,-26.250000000000000,0.750000000000000));
#375=CARTESIAN_POINT('',(3.499999999999991,-24.750000000000004,-0.750000000000000));
#376=CARTESIAN_POINT('',(3.499999999999991,-24.750000000000004,0.750000000000000));
#377=CARTESIAN_POINT('',(4.999999999999990,-24.750000000000000,-0.750000000000000));
#378=CARTESIAN_POINT('',(4.999999999999990,-24.750000000000000,0.750000000000000));
#379=CARTESIAN_POINT('',(6.499999999999989,-24.750000000000004,-0.750000000000000));
#380=CARTESIAN_POINT('',(6.499999999999989,-24.750000000000004,0.750000000000000));
#381=CARTESIAN_POINT('',(6.499999999999990,-26.250000000000000,-0.750000000000000));
#382=CARTESIAN_POINT('',(6.499999999999990,-26.250000000000000,0.750000000000000));
#390=(BOUNDED_SURFACE()B_SPLINE_SURFACE(1,2,((#365,#367,#369,#371,#373,#375,#377,#379,#381),(#366,#368,#370,#372,#374,#376,#378,#380,#382)),.UNSPECIFIED.,.F.,.T.,.U.)B_SPLINE_SURFACE_WITH_KNOTS((2,2),(3,2,2,2,3),(-0.500000000000000,0.500000000000000),(0.0,2.356194490192345,4.712388980384691,7.068583470577035,9.424777960769381),.UNSPECIFIED.)GEOMETRIC_REPRESENTATION_ITEM()RATIONAL_B_SPLINE_SURFACE(((1.0,0.707106781186548,1.0,0.707106781186548,1.0,0.707106781186548,1.0,0.707106781186548,1.0),(1.0,0.707106781186548,1.0,0.707106781186548,1.0,0.707106781186548,1.0,0.707106781186548,1.0)))REPRESENTATION_ITEM('')SURFACE());
#391=CARTESIAN_POINT('',(6.499999999999990,-26.250000000000000,-0.750000000000000));
#392=VERTEX_POINT('',#391);
#393=CARTESIAN_POINT('',(4.999999999999990,-26.250000000000000,-0.750000000000000));
#394=DIRECTION('',(0.0,0.0,-1.0));
#395=DIRECTION('',(-1.0,0.0,0.0));
#396=AXIS2_PLACEMENT_3D('',#393,#394,#395);
#397=CIRCLE('',#396,1.500000000000000);
#398=EDGE_CURVE('',#392,#392,#397,.T.);
#399=ORIENTED_EDGE('',*,*,#398,.T.);
#400=EDGE_LOOP('',(#399));
#401=FACE_OUTER_BOUND('',#400,.T.);
#402=ORIENTED_EDGE('',*,*,#251,.T.);
#403=EDGE_LOOP('',(#402));
#404=FACE_BOUND('',#403,.T.);
#405=ADVANCED_FACE('',(#401,#404),#390,.F.);
#406=CARTESIAN_POINT('',(6.499999999999990,-16.250000000000000,-0.750000000000000));
#407=CARTESIAN_POINT('',(6.499999999999990,-16.250000000000000,0.750000000000000));
#408=CARTESIAN_POINT('',(6.499999999999989,-17.750000000000000,-0.750000000000000));
#409=CARTESIAN_POINT('',(6.499999999999989,-17.750000000000000,0.750000000000000));
#410=CARTESIAN_POINT('',(4.999999999999990,-17.750000000000000,-0.750000000000000));
#411=CARTESIAN_POINT('',(4.999999999999990,-17.750000000000000,0.750000000000000));
#412=CARTESIAN_POINT('',(3.499999999999991,-17.750000000000000,-0.750000000000000));
#413=CARTESIAN_POINT('',(3.499999999999991,-17.750000000000000,0.750000000000000));
#414=CARTESIAN_POINT('',(3.499999999999990,-16.250000000000000,-0.750000000000000));
#415=CARTESIAN_POINT('',(3.499999999999990,-16.250000000000000,0.750000000000000));
#416=CARTESIAN_POINT('',(3.499999999999991,-14.750000000000000,-0.750000000000000));
#417=CARTESIAN_POINT('',(3.499999999999991,-14.750000000000000,0.750000000000000));
#418=CARTESIAN_POINT('',(4.999999999999990,-14.750000000000000,-0.750000000000000));
#419=CARTESIAN_POINT('',(4.999999999999990,-14.750000000000000,0.750000000000000));
#420=CARTESIAN_POINT('',(6.499999999999989,-14.750000000000000,-0.750000000000000));
#421=CARTESIAN_POINT('',(6.499999999999989,-14.750000000000000,0.750000000000000));
#422=CARTESIAN_POINT('',(6.499999999999990,-16.250000000000000,-0.750000000000000));
#423=CARTESIAN_POINT('',(6.499999999999990,-16.250000000000000,0.750000000000000));
#431=(BOUNDED_SURFACE()B_SPLINE_SURFACE(1,2,((#406,#408,#410,#412,#414,#416,#418,#420,#422),(#407,#409,#411,#413,#415,#417,#419,#421,#423)),.UNSPECIFIED.,.F.,.T.,.U.)B_SPLINE_SURFACE_WITH_KNOTS((2,2),(3,2,2,2,3),(-0.500000000000000,0.500000000000000),(0.0,2.356194490192345,4.712388980384691,7.068583470577035,9.424777960769381),.UNSPECIFIED.)GEOMETRIC_REPRESENTATION_ITEM()RATIONAL_B_SPLINE_SURFACE(((1.0,0.707106781186548,1.0,0.707106781186548,1.0,0.707106781186548,1.0,0.707106781186548,1.0),(1.0,0.707106781186548,1.0,0.707106781186548,1.0,0.707106781186548,1.0,0.707106781186548,1.0)))REPRESENTATION_ITEM('')SURFACE());
#432=CARTESIAN_POINT('',(6.499999999999990,-16.250000000000000,-0.750000000000000));
#433=VERTEX_POINT('',#432);
#434=CARTESIAN_POINT('',(4.999999999999990,-16.250000000000000,-0.750000000000000));
#435=DIRECTION('',(0.0,0.0,-1.0));
#436=DIRECTION('',(-1.0,0.0,0.0));
#437=AXIS2_PLACEMENT_3D('',#434,#435,#436);
#438=CIRCLE('',#437,1.500000000000000);
#439=EDGE_CURVE('',#433,#433,#438,.T.);
#440=ORIENTED_EDGE('',*,*,#439,.T.);
#441=EDGE_LOOP('',(#440));
#442=FACE_OUTER_BOUND('',#441,.T.);
#443=ORIENTED_EDGE('',*,*,#262,.T.);
#444=EDGE_LOOP('',(#443));
#445=FACE_BOUND('',#444,.T.);
#446=ADVANCED_FACE('',(#442,#445),#431,.F.);
#447=CARTESIAN_POINT('',(4.999999999999993,15.355456873893186,-0.750000000000000));
#448=DIRECTION('',(0.0,0.0,1.0));
#449=DIRECTION('',(1.0,0.0,0.0));
#450=AXIS2_PLACEMENT_3D('',#447,#448,#449);
#451=PLANE('',#450);
#452=ORIENTED_EDGE('',*,*,#169,.T.);
#453=CARTESIAN_POINT('',(10.000000000000004,-31.050000000000004,-0.750000000000000));
#454=DIRECTION('',(0.0,1.0,0.0));
#455=VECTOR('',#454,29.353539967061515);
#456=LINE('',#453,#455);
#457=EDGE_CURVE('',#306,#76,#456,.T.);
#458=ORIENTED_EDGE('',*,*,#457,.F.);
#459=ORIENTED_EDGE('',*,*,#312,.F.);
#460=ORIENTED_EDGE('',*,*,#342,.T.);
#461=ORIENTED_EDGE('',*,*,#359,.F.);
#462=ORIENTED_EDGE('',*,*,#279,.T.);
#463=EDGE_LOOP('',(#452,#458,#459,#460,#461,#462));
#464=FACE_OUTER_BOUND('',#463,.T.);
#465=ORIENTED_EDGE('',*,*,#439,.F.);
#466=EDGE_LOOP('',(#465));
#467=FACE_BOUND('',#466,.T.);
#468=ORIENTED_EDGE('',*,*,#398,.F.);
#469=EDGE_LOOP('',(#468));
#470=FACE_BOUND('',#469,.T.);
#471=ADVANCED_FACE('',(#464,#467,#470),#451,.F.);
#472=CARTESIAN_POINT('',(9.999999999999989,31.250000000000000,0.0));
#473=DIRECTION('',(1.0,0.0,0.0));
#474=DIRECTION('',(0.0,0.0,-1.0));
#475=AXIS2_PLACEMENT_3D('',#472,#473,#474);
#476=PLANE('',#475);
#477=ORIENTED_EDGE('',*,*,#105,.T.);
#478=ORIENTED_EDGE('',*,*,#240,.F.);
#479=ORIENTED_EDGE('',*,*,#318,.F.);
#480=ORIENTED_EDGE('',*,*,#457,.T.);
#481=EDGE_LOOP('',(#477,#478,#479,#480));
#482=FACE_OUTER_BOUND('',#481,.T.);
#483=ADVANCED_FACE('',(#482),#476,.T.);
#484=CARTESIAN_POINT('',(4.999999999999990,0.553539967061515,16.803539967061511));
#485=DIRECTION('',(0.0,-1.0,2.220446E-016));
#486=DIRECTION('',(-1.0,0.0,0.0));
#487=AXIS2_PLACEMENT_3D('',#484,#485,#486);
#488=CYLINDRICAL_SURFACE('',#487,1.500000000000000);
#489=CARTESIAN_POINT('',(6.499999999999990,1.303539967061515,16.803539967061511));
#490=VERTEX_POINT('',#489);
#491=CARTESIAN_POINT('',(4.999999999999990,1.303539967061515,16.803539967061511));
#492=DIRECTION('',(0.0,-1.0,0.0));
#493=DIRECTION('',(-1.0,0.0,0.0));
#494=AXIS2_PLACEMENT_3D('',#491,#492,#493);
#495=CIRCLE('',#494,1.500000000000000);
#496=EDGE_CURVE('',#490,#490,#495,.T.);
#497=ORIENTED_EDGE('',*,*,#496,.F.);
#498=EDGE_LOOP('',(#497));
#499=FACE_OUTER_BOUND('',#498,.T.);
#500=CARTESIAN_POINT('',(6.499999999999990,-0.196460032938485,16.803539967061511));
#501=VERTEX_POINT('',#500);
#502=CARTESIAN_POINT('',(4.999999999999990,-0.196460032938485,16.803539967061511));
#503=DIRECTION('',(0.0,1.0,0.0));
#504=DIRECTION('',(-1.0,0.0,0.0));
#505=AXIS2_PLACEMENT_3D('',#502,#503,#504);
#506=CIRCLE('',#505,1.500000000000000);
#507=EDGE_CURVE('',#501,#501,#506,.T.);
#508=ORIENTED_EDGE('',*,*,#507,.F.);
#509=EDGE_LOOP('',(#508));
#510=FACE_BOUND('',#509,.T.);
#511=ADVANCED_FACE('',(#499,#510),#488,.F.);
#512=CARTESIAN_POINT('',(4.999999999999990,0.553539967061517,26.803539967061511));
#513=DIRECTION('',(0.0,-1.0,2.220446E-016));
#514=DIRECTION('',(-1.0,0.0,0.0));
#515=AXIS2_PLACEMENT_3D('',#512,#513,#514);
#516=CYLINDRICAL_SURFACE('',#515,1.500000000000000);
#517=CARTESIAN_POINT('',(6.499999999999990,1.303539967061517,26.803539967061511));
#518=VERTEX_POINT('',#517);
#519=CARTESIAN_POINT('',(4.999999999999990,1.303539967061517,26.803539967061511));
#520=DIRECTION('',(0.0,-1.0,0.0));
#521=DIRECTION('',(-1.0,0.0,0.0));
#522=AXIS2_PLACEMENT_3D('',#519,#520,#521);
#523=CIRCLE('',#522,1.500000000000000);
#524=EDGE_CURVE('',#518,#518,#523,.T.);
#525=ORIENTED_EDGE('',*,*,#524,.F.);
#526=EDGE_LOOP('',(#525));
#527=FACE_OUTER_BOUND('',#526,.T.);
#528=CARTESIAN_POINT('',(6.499999999999990,-0.196460032938483,26.803539967061511));
#529=VERTEX_POINT('',#528);
#530=CARTESIAN_POINT('',(4.999999999999990,-0.196460032938483,26.803539967061511));
#531=DIRECTION('',(0.0,1.0,0.0));
#532=DIRECTION('',(-1.0,0.0,0.0));
#533=AXIS2_PLACEMENT_3D('',#530,#531,#532);
#534=CIRCLE('',#533,1.500000000000000);
#535=EDGE_CURVE('',#529,#529,#534,.T.);
#536=ORIENTED_EDGE('',*,*,#535,.F.);
#537=EDGE_LOOP('',(#536));
#538=FACE_BOUND('',#537,.T.);
#539=ADVANCED_FACE('',(#527,#538),#516,.F.);
#540=CARTESIAN_POINT('',(0.0,0.553539967061511,0.553539967061511));
#541=DIRECTION('',(-1.0,0.0,0.0));
#542=DIRECTION('',(0.0,-1.0,0.0));
#543=AXIS2_PLACEMENT_3D('',#540,#541,#542);
#544=PLANE('',#543);
#545=ORIENTED_EDGE('',*,*,#147,.T.);
#546=CARTESIAN_POINT('',(-9.506321E-015,-0.196460032938482,31.603539967061511));
#547=VERTEX_POINT('',#546);
#548=CARTESIAN_POINT('',(-5.193911E-016,-0.196460032938488,2.250000000000000));
#549=DIRECTION('',(0.0,0.0,1.0));
#550=VECTOR('',#549,29.353539967061511);
#551=LINE('',#548,#550);
#552=EDGE_CURVE('',#135,#547,#551,.T.);
#553=ORIENTED_EDGE('',*,*,#552,.T.);
#554=CARTESIAN_POINT('',(-9.506321E-015,1.303539967061518,31.603539967061511));
#555=VERTEX_POINT('',#554);
#556=CARTESIAN_POINT('',(-9.506285E-015,1.303539967061518,31.603539967061511));
#557=DIRECTION('',(0.0,-1.0,0.0));
#558=VECTOR('',#557,1.500000000000000);
#559=LINE('',#556,#558);
#560=EDGE_CURVE('',#555,#547,#559,.T.);
#561=ORIENTED_EDGE('',*,*,#560,.F.);
#562=CARTESIAN_POINT('',(5.193911E-016,1.303539967061512,2.250000000000000));
#563=DIRECTION('',(0.0,0.0,1.0));
#564=VECTOR('',#563,29.353539967061515);
#565=LINE('',#562,#564);
#566=EDGE_CURVE('',#118,#555,#565,.T.);
#567=ORIENTED_EDGE('',*,*,#566,.F.);
#568=EDGE_LOOP('',(#545,#553,#561,#567));
#569=FACE_OUTER_BOUND('',#568,.T.);
#570=ADVANCED_FACE('',(#569),#544,.T.);
#571=CARTESIAN_POINT('',(0.199999999999991,0.553539967061518,31.603539967061511));
#572=DIRECTION('',(0.0,-1.0,2.220446E-016));
#573=DIRECTION('',(-0.707106781186539,1.570092E-016,0.707106781186556));
#574=AXIS2_PLACEMENT_3D('',#571,#572,#573);
#575=CYLINDRICAL_SURFACE('',#574,0.200000000000000);
#576=CARTESIAN_POINT('',(0.199999999999990,-0.196460032938482,31.803539967061511));
#577=VERTEX_POINT('',#576);
#578=CARTESIAN_POINT('',(0.199999999999991,-0.196460032938482,31.603539967061511));
#579=DIRECTION('',(1.110223E-016,1.000000000000000,-1.110223E-016));
#580=DIRECTION('',(-0.707106781186539,1.570092E-016,0.707106781186556));
#581=AXIS2_PLACEMENT_3D('',#578,#579,#580);
#582=CIRCLE('',#581,0.200000000000000);
#583=EDGE_CURVE('',#547,#577,#582,.T.);
#584=ORIENTED_EDGE('',*,*,#583,.T.);
#585=CARTESIAN_POINT('',(0.199999999999990,1.303539967061518,31.803539967061511));
#586=VERTEX_POINT('',#585);
#587=CARTESIAN_POINT('',(0.199999999999991,-0.196460032938482,31.803539967061511));
#588=DIRECTION('',(0.0,1.0,0.0));
#589=VECTOR('',#588,1.500000000000000);
#590=LINE('',#587,#589);
#591=EDGE_CURVE('',#577,#586,#590,.T.);
#592=ORIENTED_EDGE('',*,*,#591,.T.);
#593=CARTESIAN_POINT('',(0.199999999999991,1.303539967061518,31.603539967061511));
#594=DIRECTION('',(-1.110223E-016,-1.000000000000000,1.110223E-016));
#595=DIRECTION('',(-0.707106781186539,1.570092E-016,0.707106781186556));
#596=AXIS2_PLACEMENT_3D('',#593,#594,#595);
#597=CIRCLE('',#596,0.200000000000000);
#598=EDGE_CURVE('',#586,#555,#597,.T.);
#599=ORIENTED_EDGE('',*,*,#598,.T.);
#600=ORIENTED_EDGE('',*,*,#560,.T.);
#601=EDGE_LOOP('',(#584,#592,#599,#600));
#602=FACE_OUTER_BOUND('',#601,.T.);
#603=ADVANCED_FACE('',(#602),#575,.T.);
#604=CARTESIAN_POINT('',(-9.567553E-015,0.553539967061518,31.803539967061511));
#605=DIRECTION('',(0.0,0.0,1.0));
#606=DIRECTION('',(0.0,-1.0,0.0));
#607=AXIS2_PLACEMENT_3D('',#604,#605,#606);
#608=PLANE('',#607);
#609=CARTESIAN_POINT('',(9.799999999999990,1.303539967061518,31.803539967061511));
#610=VERTEX_POINT('',#609);
#611=CARTESIAN_POINT('',(9.799999999999990,-0.196460032938482,31.803539967061511));
#612=VERTEX_POINT('',#611);
#613=CARTESIAN_POINT('',(9.799999999999990,1.303539967061518,31.803539967061511));
#614=DIRECTION('',(0.0,-1.0,0.0));
#615=VECTOR('',#614,1.500000000000000);
#616=LINE('',#613,#615);
#617=EDGE_CURVE('',#610,#612,#616,.T.);
#618=ORIENTED_EDGE('',*,*,#617,.F.);
#619=CARTESIAN_POINT('',(9.799999999999990,1.303539967061518,31.803539967061511));
#620=DIRECTION('',(-1.0,0.0,0.0));
#621=VECTOR('',#620,9.600000000000001);
#622=LINE('',#619,#621);
#623=EDGE_CURVE('',#610,#586,#622,.T.);
#624=ORIENTED_EDGE('',*,*,#623,.T.);
#625=ORIENTED_EDGE('',*,*,#591,.F.);
#626=CARTESIAN_POINT('',(0.199999999999989,-0.196460032938482,31.803539967061511));
#627=DIRECTION('',(1.0,0.0,0.0));
#628=VECTOR('',#627,9.600000000000001);
#629=LINE('',#626,#628);
#630=EDGE_CURVE('',#577,#612,#629,.T.);
#631=ORIENTED_EDGE('',*,*,#630,.T.);
#632=EDGE_LOOP('',(#618,#624,#625,#631));
#633=FACE_OUTER_BOUND('',#632,.T.);
#634=ADVANCED_FACE('',(#633),#608,.T.);
#635=CARTESIAN_POINT('',(9.799999999999990,0.553539967061518,31.603539967061511));
#636=DIRECTION('',(0.0,-1.0,2.220446E-016));
#637=DIRECTION('',(0.707106781186540,1.570092E-016,0.707106781186555));
#638=AXIS2_PLACEMENT_3D('',#635,#636,#637);
#639=CYLINDRICAL_SURFACE('',#638,0.200000000000000);
#640=CARTESIAN_POINT('',(9.999999999999989,-0.196460032938482,31.603539967061511));
#641=VERTEX_POINT('',#640);
#642=CARTESIAN_POINT('',(9.799999999999990,-0.196460032938482,31.603539967061511));
#643=DIRECTION('',(-1.110223E-016,1.0,-1.110223E-016));
#644=DIRECTION('',(0.707106781186540,1.570092E-016,0.707106781186555));
#645=AXIS2_PLACEMENT_3D('',#642,#643,#644);
#646=CIRCLE('',#645,0.200000000000000);
#647=EDGE_CURVE('',#612,#641,#646,.T.);
#648=ORIENTED_EDGE('',*,*,#647,.T.);
#649=CARTESIAN_POINT('',(9.999999999999989,1.303539967061518,31.603539967061511));
#650=VERTEX_POINT('',#649);
#651=CARTESIAN_POINT('',(9.999999999999989,-0.196460032938482,31.603539967061511));
#652=DIRECTION('',(0.0,1.0,0.0));
#653=VECTOR('',#652,1.500000000000000);
#654=LINE('',#651,#653);
#655=EDGE_CURVE('',#641,#650,#654,.T.);
#656=ORIENTED_EDGE('',*,*,#655,.T.);
#657=CARTESIAN_POINT('',(9.799999999999990,1.303539967061518,31.603539967061511));
#658=DIRECTION('',(1.110223E-016,-1.0,1.110223E-016));
#659=DIRECTION('',(0.707106781186540,1.570092E-016,0.707106781186555));
#660=AXIS2_PLACEMENT_3D('',#657,#658,#659);
#661=CIRCLE('',#660,0.200000000000000);
#662=EDGE_CURVE('',#650,#610,#661,.T.);
#663=ORIENTED_EDGE('',*,*,#662,.T.);
#664=ORIENTED_EDGE('',*,*,#617,.T.);
#665=EDGE_LOOP('',(#648,#656,#663,#664));
#666=FACE_OUTER_BOUND('',#665,.T.);
#667=ADVANCED_FACE('',(#666),#639,.T.);
#668=CARTESIAN_POINT('',(4.999999999999993,1.303539967061515,15.908996840954696));
#669=DIRECTION('',(0.0,-1.0,0.0));
#670=DIRECTION('',(1.0,0.0,0.0));
#671=AXIS2_PLACEMENT_3D('',#668,#669,#670);
#672=PLANE('',#671);
#673=ORIENTED_EDGE('',*,*,#162,.T.);
#674=ORIENTED_EDGE('',*,*,#566,.T.);
#675=ORIENTED_EDGE('',*,*,#598,.F.);
#676=ORIENTED_EDGE('',*,*,#623,.F.);
#677=ORIENTED_EDGE('',*,*,#662,.F.);
#678=CARTESIAN_POINT('',(9.999999999999996,1.303539967061512,2.249999999999999));
#679=DIRECTION('',(0.0,0.0,1.0));
#680=VECTOR('',#679,29.353539967061511);
#681=LINE('',#678,#680);
#682=EDGE_CURVE('',#74,#650,#681,.T.);
#683=ORIENTED_EDGE('',*,*,#682,.F.);
#684=EDGE_LOOP('',(#673,#674,#675,#676,#677,#683));
#685=FACE_OUTER_BOUND('',#684,.T.);
#686=ORIENTED_EDGE('',*,*,#524,.T.);
#687=EDGE_LOOP('',(#686));
#688=FACE_BOUND('',#687,.T.);
#689=ORIENTED_EDGE('',*,*,#496,.T.);
#690=EDGE_LOOP('',(#689));
#691=FACE_BOUND('',#690,.T.);
#692=ADVANCED_FACE('',(#685,#688,#691),#672,.F.);
#693=CARTESIAN_POINT('',(9.999999999999989,0.553539967061518,31.803539967061511));
#694=DIRECTION('',(1.0,0.0,0.0));
#695=DIRECTION('',(0.0,1.0,0.0));
#696=AXIS2_PLACEMENT_3D('',#693,#694,#695);
#697=PLANE('',#696);
#698=ORIENTED_EDGE('',*,*,#90,.T.);
#699=ORIENTED_EDGE('',*,*,#682,.T.);
#700=ORIENTED_EDGE('',*,*,#655,.F.);
#701=CARTESIAN_POINT('',(9.999999999999996,-0.196460032938488,2.250000000000000));
#702=DIRECTION('',(0.0,0.0,1.0));
#703=VECTOR('',#702,29.353539967061511);
#704=LINE('',#701,#703);
#705=EDGE_CURVE('',#85,#641,#704,.T.);
#706=ORIENTED_EDGE('',*,*,#705,.F.);
#707=EDGE_LOOP('',(#698,#699,#700,#706));
#708=FACE_OUTER_BOUND('',#707,.T.);
#709=ADVANCED_FACE('',(#708),#697,.T.);
#710=CARTESIAN_POINT('',(4.999999999999994,-0.196460032938485,15.908996840954694));
#711=DIRECTION('',(0.0,-1.0,0.0));
#712=DIRECTION('',(1.0,0.0,0.0));
#713=AXIS2_PLACEMENT_3D('',#710,#711,#712);
#714=PLANE('',#713);
#715=ORIENTED_EDGE('',*,*,#191,.T.);
#716=ORIENTED_EDGE('',*,*,#705,.T.);
#717=ORIENTED_EDGE('',*,*,#647,.F.);
#718=ORIENTED_EDGE('',*,*,#630,.F.);
#719=ORIENTED_EDGE('',*,*,#583,.F.);
#720=ORIENTED_EDGE('',*,*,#552,.F.);
#721=EDGE_LOOP('',(#715,#716,#717,#718,#719,#720));
#722=FACE_OUTER_BOUND('',#721,.T.);
#723=ORIENTED_EDGE('',*,*,#535,.T.);
#724=EDGE_LOOP('',(#723));
#725=FACE_BOUND('',#724,.T.);
#726=ORIENTED_EDGE('',*,*,#507,.T.);
#727=EDGE_LOOP('',(#726));
#728=FACE_BOUND('',#727,.T.);
#729=ADVANCED_FACE('',(#722,#725,#728),#714,.T.);
#730=CLOSED_SHELL('',(#109,#151,#173,#195,#266,#290,#322,#346,#364,#405,#446,#471,#483,#511,#539,#570,#603,#634,#667,#692,#709,#729));
#731=MANIFOLD_SOLID_BREP('Solid1',#730);
#732=COLOUR_RGB('Metal-Steel',0.639216005802155,0.639216005802155,0.686275005340576);
#733=FILL_AREA_STYLE_COLOUR('Metal-Steel',#732);
#734=FILL_AREA_STYLE('Metal-Steel',(#733));
#735=SURFACE_STYLE_FILL_AREA(#734);
#736=SURFACE_SIDE_STYLE('Metal-Steel',(#735));
#737=SURFACE_STYLE_USAGE(.BOTH.,#736);
#738=PRESENTATION_STYLE_ASSIGNMENT((#737));
#739=STYLED_ITEM('',(#738),#731);
#740=MECHANICAL_DESIGN_GEOMETRIC_PRESENTATION_REPRESENTATION('',(#739),#36);
#741=ADVANCED_BREP_SHAPE_REPRESENTATION('ABSR',(#731),#36);
#742=SHAPE_REPRESENTATION_RELATIONSHIP('SRR','None',#741,#41);
ENDSEC;
END-ISO-10303-21;
