ISO-10303-21;
HEADER;
/****************************************************************
 * Generated by software with PDE/Lib inside                    *
 * PDElib Version v51a, created Fri 12/12/2008                  *
 * International Technegroup Inc. (www.iti-oh.com)              *
 ****************************************************************/
FILE_DESCRIPTION((''),'2;1');
FILE_NAME('G:\\Makerbeam\\PARTS\\100270.stp','2015-07-14T02:28:36',('Jeff'),(''),'Autodesk Inventor 2010','Autodesk Inventor 2010','');
FILE_SCHEMA(('CONFIG_CONTROL_DESIGN'));
ENDSEC;
DATA;
#5=APPLICATION_CONTEXT('configuration controlled 3D designs of mechanical parts and assemblies');
#6=APPLICATION_PROTOCOL_DEFINITION('International Standard','configuration_control_3d_design_ed2_mim_lf',2004,#5);
#7=PRODUCT_CONTEXT('',#5,'mechanical');
#8=PRODUCT('100270','100270',$,(#7));
#9=PRODUCT_RELATED_PRODUCT_CATEGORY('part',$,(#8));
#10=PRODUCT_DEFINITION_FORMATION('',$,#8);
#11=PRODUCT_DEFINITION_CONTEXT('part definition',#5,'design');
#12=PRODUCT_DEFINITION('',$,#10,#11);
#18=(NAMED_UNIT(*)PLANE_ANGLE_UNIT()SI_UNIT($,.RADIAN.));
#19=DIMENSIONAL_EXPONENTS(0.0,0.0,0.0,0.0,0.0,0.0,0.0);
#20=PLANE_ANGLE_MEASURE_WITH_UNIT(PLANE_ANGLE_MEASURE(0.017453292500000),#18);
#24=(CONVERSION_BASED_UNIT('DEGREE',#20)NAMED_UNIT(#19)PLANE_ANGLE_UNIT());
#28=(NAMED_UNIT(*)SI_UNIT($,.STERADIAN.)SOLID_ANGLE_UNIT());
#32=(LENGTH_UNIT()NAMED_UNIT(*)SI_UNIT(.MILLI.,.METRE.));
#34=UNCERTAINTY_MEASURE_WITH_UNIT(LENGTH_MEASURE(0.010000000000000),#32,'DISTANCE_ACCURACY_VALUE','');
#36=(GEOMETRIC_REPRESENTATION_CONTEXT(3)GLOBAL_UNCERTAINTY_ASSIGNED_CONTEXT((#34))GLOBAL_UNIT_ASSIGNED_CONTEXT((#24,#28,#32))REPRESENTATION_CONTEXT('None','None'));
#37=AXIS2_PLACEMENT_3D('',#38,#39,#40);
#38=CARTESIAN_POINT('',(0.0,0.0,0.0));
#39=DIRECTION('',(0.0,0.0,1.0));
#40=DIRECTION('',(1.0,0.0,0.0));
#41=SHAPE_REPRESENTATION('',(#37),#36);
#42=PRODUCT_DEFINITION_SHAPE('','',#12);
#43=SHAPE_DEFINITION_REPRESENTATION(#42,#41);
#49=(NAMED_UNIT(*)PLANE_ANGLE_UNIT()SI_UNIT($,.RADIAN.));
#50=DIMENSIONAL_EXPONENTS(0.0,0.0,0.0,0.0,0.0,0.0,0.0);
#51=PLANE_ANGLE_MEASURE_WITH_UNIT(PLANE_ANGLE_MEASURE(0.017453292500000),#49);
#55=(CONVERSION_BASED_UNIT('DEGREE',#51)NAMED_UNIT(#50)PLANE_ANGLE_UNIT());
#59=(NAMED_UNIT(*)SI_UNIT($,.STERADIAN.)SOLID_ANGLE_UNIT());
#63=(LENGTH_UNIT()NAMED_UNIT(*)SI_UNIT(.MILLI.,.METRE.));
#65=UNCERTAINTY_MEASURE_WITH_UNIT(LENGTH_MEASURE(0.000001000000000),#63,'DISTANCE_ACCURACY_VALUE','');
#67=(GEOMETRIC_REPRESENTATION_CONTEXT(3)GLOBAL_UNCERTAINTY_ASSIGNED_CONTEXT((#65))GLOBAL_UNIT_ASSIGNED_CONTEXT((#55,#59,#63))REPRESENTATION_CONTEXT('','3D'));
#68=CARTESIAN_POINT('',(1.102182E-015,0.0,1.000000000000000));
#69=DIRECTION('',(1.836970E-016,0.0,1.0));
#70=DIRECTION('',(-1.0,0.0,0.0));
#71=AXIS2_PLACEMENT_3D('',#68,#69,#70);
#72=CYLINDRICAL_SURFACE('',#71,3.000000000000002);
#73=CARTESIAN_POINT('',(2.121320343559644,-2.121320343559644,-2.121320343559643));
#74=VERTEX_POINT('',#73);
#75=CARTESIAN_POINT('',(0.0,-3.000000000000001,-3.000000000000000));
#76=VERTEX_POINT('',#75);
#77=CARTESIAN_POINT('',(9.184851E-016,0.0,-9.714451E-016));
#78=DIRECTION('',(-1.308410E-016,0.707106781186548,-0.707106781186548));
#79=DIRECTION('',(-1.298934E-016,-0.707106781186548,-0.707106781186548));
#80=AXIS2_PLACEMENT_3D('',#77,#78,#79);
#81=ELLIPSE('',#80,4.242640687119287,3.000000000000003);
#82=EDGE_CURVE('',#74,#76,#81,.T.);
#83=ORIENTED_EDGE('',*,*,#82,.F.);
#84=CARTESIAN_POINT('',(3.000000000000002,0.0,-3.000000000000000));
#85=VERTEX_POINT('',#84);
#86=CARTESIAN_POINT('',(9.184851E-016,0.0,0.0));
#87=DIRECTION('',(-0.707106781186547,0.0,-0.707106781186547));
#88=DIRECTION('',(-0.707106781186547,0.0,0.707106781186547));
#89=AXIS2_PLACEMENT_3D('',#86,#87,#88);
#90=ELLIPSE('',#89,4.242640687119286,3.000000000000001);
#91=EDGE_CURVE('',#85,#74,#90,.T.);
#92=ORIENTED_EDGE('',*,*,#91,.F.);
#93=CARTESIAN_POINT('',(3.673940E-016,0.0,-3.000000000000000));
#94=DIRECTION('',(0.0,0.0,1.0));
#95=DIRECTION('',(-1.0,0.0,0.0));
#96=AXIS2_PLACEMENT_3D('',#93,#94,#95);
#97=CIRCLE('',#96,3.000000000000001);
#98=EDGE_CURVE('',#76,#85,#97,.T.);
#99=ORIENTED_EDGE('',*,*,#98,.F.);
#100=EDGE_LOOP('',(#83,#92,#99));
#101=FACE_OUTER_BOUND('',#100,.T.);
#102=ADVANCED_FACE('',(#101),#72,.F.);
#103=CARTESIAN_POINT('',(1.102182E-015,0.0,1.000000000000000));
#104=DIRECTION('',(1.836970E-016,0.0,1.0));
#105=DIRECTION('',(-1.0,0.0,0.0));
#106=AXIS2_PLACEMENT_3D('',#103,#104,#105);
#107=CYLINDRICAL_SURFACE('',#106,3.000000000000002);
#108=CARTESIAN_POINT('',(-2.121320343559643,-2.121320343559643,-2.121320343559643));
#109=VERTEX_POINT('',#108);
#110=CARTESIAN_POINT('',(-3.000000000000000,0.0,-3.0));
#111=VERTEX_POINT('',#110);
#112=CARTESIAN_POINT('',(9.184851E-016,0.0,1.387779E-016));
#113=DIRECTION('',(0.707106781186547,0.0,-0.707106781186548));
#114=DIRECTION('',(-0.707106781186548,0.0,-0.707106781186547));
#115=AXIS2_PLACEMENT_3D('',#112,#113,#114);
#116=ELLIPSE('',#115,4.242640687119287,3.000000000000001);
#117=EDGE_CURVE('',#109,#111,#116,.T.);
#118=ORIENTED_EDGE('',*,*,#117,.F.);
#119=CARTESIAN_POINT('',(9.184851E-016,0.0,-9.714451E-016));
#120=DIRECTION('',(-1.308410E-016,0.707106781186548,-0.707106781186548));
#121=DIRECTION('',(-1.298934E-016,-0.707106781186548,-0.707106781186548));
#122=AXIS2_PLACEMENT_3D('',#119,#120,#121);
#123=ELLIPSE('',#122,4.242640687119287,3.000000000000003);
#124=EDGE_CURVE('',#76,#109,#123,.T.);
#125=ORIENTED_EDGE('',*,*,#124,.F.);
#126=CARTESIAN_POINT('',(3.673940E-016,0.0,-3.000000000000000));
#127=DIRECTION('',(0.0,0.0,1.0));
#128=DIRECTION('',(-1.0,0.0,0.0));
#129=AXIS2_PLACEMENT_3D('',#126,#127,#128);
#130=CIRCLE('',#129,3.000000000000001);
#131=EDGE_CURVE('',#111,#76,#130,.T.);
#132=ORIENTED_EDGE('',*,*,#131,.F.);
#133=EDGE_LOOP('',(#118,#125,#132));
#134=FACE_OUTER_BOUND('',#133,.T.);
#135=ADVANCED_FACE('',(#134),#107,.F.);
#136=CARTESIAN_POINT('',(1.102182E-015,0.0,1.000000000000000));
#137=DIRECTION('',(1.836970E-016,0.0,1.0));
#138=DIRECTION('',(-1.0,0.0,0.0));
#139=AXIS2_PLACEMENT_3D('',#136,#137,#138);
#140=CYLINDRICAL_SURFACE('',#139,3.000000000000002);
#141=CARTESIAN_POINT('',(-2.121320343559643,2.121320343559644,-2.121320343559643));
#142=VERTEX_POINT('',#141);
#143=CARTESIAN_POINT('',(9.184851E-016,0.0,1.387779E-016));
#144=DIRECTION('',(0.707106781186547,0.0,-0.707106781186548));
#145=DIRECTION('',(-0.707106781186548,0.0,-0.707106781186547));
#146=AXIS2_PLACEMENT_3D('',#143,#144,#145);
#147=ELLIPSE('',#146,4.242640687119287,3.000000000000001);
#148=EDGE_CURVE('',#111,#142,#147,.T.);
#149=ORIENTED_EDGE('',*,*,#148,.F.);
#150=CARTESIAN_POINT('',(-6.162976E-032,3.000000000000001,-3.000000000000000));
#151=VERTEX_POINT('',#150);
#152=CARTESIAN_POINT('',(3.673940E-016,0.0,-3.000000000000000));
#153=DIRECTION('',(0.0,0.0,1.0));
#154=DIRECTION('',(-1.0,0.0,0.0));
#155=AXIS2_PLACEMENT_3D('',#152,#153,#154);
#156=CIRCLE('',#155,3.000000000000001);
#157=EDGE_CURVE('',#151,#111,#156,.T.);
#158=ORIENTED_EDGE('',*,*,#157,.F.);
#159=CARTESIAN_POINT('',(9.184851E-016,0.0,-8.326673E-016));
#160=DIRECTION('',(-1.308410E-016,-0.707106781186547,-0.707106781186548));
#161=DIRECTION('',(1.298934E-016,-0.707106781186548,0.707106781186547));
#162=AXIS2_PLACEMENT_3D('',#159,#160,#161);
#163=ELLIPSE('',#162,4.242640687119287,3.000000000000002);
#164=EDGE_CURVE('',#142,#151,#163,.T.);
#165=ORIENTED_EDGE('',*,*,#164,.F.);
#166=EDGE_LOOP('',(#149,#158,#165));
#167=FACE_OUTER_BOUND('',#166,.T.);
#168=ADVANCED_FACE('',(#167),#140,.F.);
#169=CARTESIAN_POINT('',(1.102182E-015,0.0,1.000000000000000));
#170=DIRECTION('',(1.836970E-016,0.0,1.0));
#171=DIRECTION('',(-1.0,0.0,0.0));
#172=AXIS2_PLACEMENT_3D('',#169,#170,#171);
#173=CYLINDRICAL_SURFACE('',#172,3.000000000000002);
#174=CARTESIAN_POINT('',(2.121320343559644,2.121320343559644,-2.121320343559643));
#175=VERTEX_POINT('',#174);
#176=CARTESIAN_POINT('',(9.184851E-016,0.0,-8.326673E-016));
#177=DIRECTION('',(-1.308410E-016,-0.707106781186547,-0.707106781186548));
#178=DIRECTION('',(1.298934E-016,-0.707106781186548,0.707106781186547));
#179=AXIS2_PLACEMENT_3D('',#176,#177,#178);
#180=ELLIPSE('',#179,4.242640687119287,3.000000000000002);
#181=EDGE_CURVE('',#151,#175,#180,.T.);
#182=ORIENTED_EDGE('',*,*,#181,.F.);
#183=CARTESIAN_POINT('',(3.673940E-016,0.0,-3.000000000000000));
#184=DIRECTION('',(0.0,0.0,1.0));
#185=DIRECTION('',(-1.0,0.0,0.0));
#186=AXIS2_PLACEMENT_3D('',#183,#184,#185);
#187=CIRCLE('',#186,3.000000000000001);
#188=EDGE_CURVE('',#85,#151,#187,.T.);
#189=ORIENTED_EDGE('',*,*,#188,.F.);
#190=CARTESIAN_POINT('',(9.184851E-016,0.0,0.0));
#191=DIRECTION('',(-0.707106781186547,0.0,-0.707106781186547));
#192=DIRECTION('',(-0.707106781186547,0.0,0.707106781186547));
#193=AXIS2_PLACEMENT_3D('',#190,#191,#192);
#194=ELLIPSE('',#193,4.242640687119286,3.000000000000001);
#195=EDGE_CURVE('',#175,#85,#194,.T.);
#196=ORIENTED_EDGE('',*,*,#195,.F.);
#197=EDGE_LOOP('',(#182,#189,#196));
#198=FACE_OUTER_BOUND('',#197,.T.);
#199=ADVANCED_FACE('',(#198),#173,.F.);
#200=CARTESIAN_POINT('',(1.836970E-016,0.0,-4.000000000000000));
#201=DIRECTION('',(1.836970E-016,0.0,1.0));
#202=DIRECTION('',(-1.0,0.0,0.0));
#203=AXIS2_PLACEMENT_3D('',#200,#201,#202);
#204=CYLINDRICAL_SURFACE('',#203,1.500000000000001);
#205=CARTESIAN_POINT('',(-1.500000000000001,0.0,-5.0));
#206=VERTEX_POINT('',#205);
#207=CARTESIAN_POINT('',(3.081488E-032,0.0,-5.0));
#208=DIRECTION('',(0.0,0.0,1.0));
#209=DIRECTION('',(-1.0,0.0,0.0));
#210=AXIS2_PLACEMENT_3D('',#207,#208,#209);
#211=CIRCLE('',#210,1.500000000000001);
#212=EDGE_CURVE('',#206,#206,#211,.T.);
#213=ORIENTED_EDGE('',*,*,#212,.F.);
#214=EDGE_LOOP('',(#213));
#215=FACE_OUTER_BOUND('',#214,.T.);
#216=CARTESIAN_POINT('',(-1.500000000000000,0.0,-4.500000000000001));
#217=VERTEX_POINT('',#216);
#218=CARTESIAN_POINT('',(9.184851E-017,0.0,-4.500000000000001));
#219=DIRECTION('',(0.0,0.0,1.0));
#220=DIRECTION('',(-1.0,0.0,0.0));
#221=AXIS2_PLACEMENT_3D('',#218,#219,#220);
#222=CIRCLE('',#221,1.500000000000000);
#223=EDGE_CURVE('',#217,#217,#222,.T.);
#224=ORIENTED_EDGE('',*,*,#223,.T.);
#225=EDGE_LOOP('',(#224));
#226=FACE_BOUND('',#225,.T.);
#227=ADVANCED_FACE('',(#215,#226),#204,.F.);
#228=CARTESIAN_POINT('',(1.102182E-015,0.0,1.000000000000000));
#229=DIRECTION('',(1.836970E-016,0.0,1.0));
#230=DIRECTION('',(-1.0,0.0,0.0));
#231=AXIS2_PLACEMENT_3D('',#228,#229,#230);
#232=CYLINDRICAL_SURFACE('',#231,3.000000000000002);
#233=CARTESIAN_POINT('',(-2.121320343559643,2.121320343559642,2.121320343559643));
#234=VERTEX_POINT('',#233);
#235=CARTESIAN_POINT('',(-3.000000000000000,0.0,3.000000000000001));
#236=VERTEX_POINT('',#235);
#237=CARTESIAN_POINT('',(9.184851E-016,0.0,0.0));
#238=DIRECTION('',(0.707106781186547,0.0,0.707106781186547));
#239=DIRECTION('',(-0.707106781186547,0.0,0.707106781186547));
#240=AXIS2_PLACEMENT_3D('',#237,#238,#239);
#241=ELLIPSE('',#240,4.242640687119286,3.000000000000001);
#242=EDGE_CURVE('',#234,#236,#241,.T.);
#243=ORIENTED_EDGE('',*,*,#242,.F.);
#244=CARTESIAN_POINT('',(2.121320343559645,2.121320343559644,2.121320343559642));
#245=VERTEX_POINT('',#244);
#246=CARTESIAN_POINT('',(9.184851E-016,0.0,-9.714451E-016));
#247=DIRECTION('',(1.308410E-016,-0.707106781186548,0.707106781186548));
#248=DIRECTION('',(-1.298934E-016,-0.707106781186548,-0.707106781186548));
#249=AXIS2_PLACEMENT_3D('',#246,#247,#248);
#250=ELLIPSE('',#249,4.242640687119287,3.000000000000003);
#251=EDGE_CURVE('',#245,#234,#250,.T.);
#252=ORIENTED_EDGE('',*,*,#251,.F.);
#253=CARTESIAN_POINT('',(2.121320343559644,-2.121320343559645,2.121320343559642));
#254=VERTEX_POINT('',#253);
#255=CARTESIAN_POINT('',(9.184851E-016,0.0,1.387779E-016));
#256=DIRECTION('',(-0.707106781186547,0.0,0.707106781186548));
#257=DIRECTION('',(-0.707106781186548,0.0,-0.707106781186547));
#258=AXIS2_PLACEMENT_3D('',#255,#256,#257);
#259=ELLIPSE('',#258,4.242640687119287,3.000000000000001);
#260=EDGE_CURVE('',#254,#245,#259,.T.);
#261=ORIENTED_EDGE('',*,*,#260,.F.);
#262=CARTESIAN_POINT('',(1.469576E-015,-3.000000000000001,2.999999999999998));
#263=VERTEX_POINT('',#262);
#264=CARTESIAN_POINT('',(9.184851E-016,0.0,-8.326673E-016));
#265=DIRECTION('',(1.308410E-016,0.707106781186547,0.707106781186548));
#266=DIRECTION('',(1.298934E-016,-0.707106781186548,0.707106781186547));
#267=AXIS2_PLACEMENT_3D('',#264,#265,#266);
#268=ELLIPSE('',#267,4.242640687119287,3.000000000000002);
#269=EDGE_CURVE('',#263,#254,#268,.T.);
#270=ORIENTED_EDGE('',*,*,#269,.F.);
#271=CARTESIAN_POINT('',(-2.121320343559642,-2.121320343559643,2.121320343559643));
#272=VERTEX_POINT('',#271);
#273=CARTESIAN_POINT('',(9.184851E-016,0.0,-8.326673E-016));
#274=DIRECTION('',(1.308410E-016,0.707106781186547,0.707106781186548));
#275=DIRECTION('',(1.298934E-016,-0.707106781186548,0.707106781186547));
#276=AXIS2_PLACEMENT_3D('',#273,#274,#275);
#277=ELLIPSE('',#276,4.242640687119287,3.000000000000002);
#278=EDGE_CURVE('',#272,#263,#277,.T.);
#279=ORIENTED_EDGE('',*,*,#278,.F.);
#280=CARTESIAN_POINT('',(9.184851E-016,0.0,0.0));
#281=DIRECTION('',(0.707106781186547,0.0,0.707106781186547));
#282=DIRECTION('',(-0.707106781186547,0.0,0.707106781186547));
#283=AXIS2_PLACEMENT_3D('',#280,#281,#282);
#284=ELLIPSE('',#283,4.242640687119286,3.000000000000001);
#285=EDGE_CURVE('',#236,#272,#284,.T.);
#286=ORIENTED_EDGE('',*,*,#285,.F.);
#287=EDGE_LOOP('',(#243,#252,#261,#270,#279,#286));
#288=FACE_OUTER_BOUND('',#287,.T.);
#289=CARTESIAN_POINT('',(-3.0,0.0,5.0));
#290=VERTEX_POINT('',#289);
#291=CARTESIAN_POINT('',(1.836970E-015,0.0,5.0));
#292=DIRECTION('',(0.0,0.0,-1.0));
#293=DIRECTION('',(-1.0,0.0,0.0));
#294=AXIS2_PLACEMENT_3D('',#291,#292,#293);
#295=CIRCLE('',#294,3.000000000000002);
#296=EDGE_CURVE('',#290,#290,#295,.T.);
#297=ORIENTED_EDGE('',*,*,#296,.F.);
#298=EDGE_LOOP('',(#297));
#299=FACE_BOUND('',#298,.T.);
#300=ADVANCED_FACE('',(#288,#299),#232,.F.);
#301=CARTESIAN_POINT('',(2.296213E-016,0.0,-3.750000000000000));
#302=DIRECTION('',(1.836970E-016,0.0,1.0));
#303=DIRECTION('',(-1.0,0.0,0.0));
#304=AXIS2_PLACEMENT_3D('',#301,#302,#303);
#305=CONICAL_SURFACE('',#304,2.250000000000000,44.999999999999993);
#306=ORIENTED_EDGE('',*,*,#131,.T.);
#307=ORIENTED_EDGE('',*,*,#98,.T.);
#308=ORIENTED_EDGE('',*,*,#188,.T.);
#309=ORIENTED_EDGE('',*,*,#157,.T.);
#310=EDGE_LOOP('',(#306,#307,#308,#309));
#311=FACE_OUTER_BOUND('',#310,.T.);
#312=ORIENTED_EDGE('',*,*,#223,.F.);
#313=EDGE_LOOP('',(#312));
#314=FACE_BOUND('',#313,.T.);
#315=ADVANCED_FACE('',(#311,#314),#305,.F.);
#316=CARTESIAN_POINT('',(1.000000000000000,0.0,0.0));
#317=DIRECTION('',(-1.0,0.0,0.0));
#318=DIRECTION('',(0.0,0.0,-1.0));
#319=AXIS2_PLACEMENT_3D('',#316,#317,#318);
#320=CYLINDRICAL_SURFACE('',#319,3.000000000000001);
#321=ORIENTED_EDGE('',*,*,#148,.T.);
#322=CARTESIAN_POINT('',(-3.000000000000000,3.000000000000001,-3.673940E-016));
#323=VERTEX_POINT('',#322);
#324=CARTESIAN_POINT('',(1.387779E-016,0.0,0.0));
#325=DIRECTION('',(-0.707106781186547,-0.707106781186547,-1.298934E-016));
#326=DIRECTION('',(0.707106781186547,-0.707106781186547,0.0));
#327=AXIS2_PLACEMENT_3D('',#324,#325,#326);
#328=ELLIPSE('',#327,4.242640687119286,3.000000000000001);
#329=EDGE_CURVE('',#323,#142,#328,.T.);
#330=ORIENTED_EDGE('',*,*,#329,.F.);
#331=CARTESIAN_POINT('',(-3.000000000000000,0.0,0.0));
#332=DIRECTION('',(-1.0,0.0,0.0));
#333=DIRECTION('',(0.0,0.0,-1.0));
#334=AXIS2_PLACEMENT_3D('',#331,#332,#333);
#335=CIRCLE('',#334,3.000000000000001);
#336=EDGE_CURVE('',#323,#111,#335,.T.);
#337=ORIENTED_EDGE('',*,*,#336,.T.);
#338=EDGE_LOOP('',(#321,#330,#337));
#339=FACE_OUTER_BOUND('',#338,.T.);
#340=ADVANCED_FACE('',(#339),#320,.F.);
#341=CARTESIAN_POINT('',(1.000000000000000,0.0,0.0));
#342=DIRECTION('',(-1.0,0.0,0.0));
#343=DIRECTION('',(0.0,0.0,-1.0));
#344=AXIS2_PLACEMENT_3D('',#341,#342,#343);
#345=CYLINDRICAL_SURFACE('',#344,3.000000000000001);
#346=ORIENTED_EDGE('',*,*,#117,.T.);
#347=CARTESIAN_POINT('',(-3.000000000000000,-3.000000000000001,-1.469576E-015));
#348=VERTEX_POINT('',#347);
#349=CARTESIAN_POINT('',(-3.000000000000000,0.0,0.0));
#350=DIRECTION('',(-1.0,0.0,0.0));
#351=DIRECTION('',(0.0,0.0,-1.0));
#352=AXIS2_PLACEMENT_3D('',#349,#350,#351);
#353=CIRCLE('',#352,3.000000000000001);
#354=EDGE_CURVE('',#111,#348,#353,.T.);
#355=ORIENTED_EDGE('',*,*,#354,.T.);
#356=CARTESIAN_POINT('',(1.387779E-016,0.0,0.0));
#357=DIRECTION('',(-0.707106781186547,0.707106781186547,1.298934E-016));
#358=DIRECTION('',(-0.707106781186547,-0.707106781186547,0.0));
#359=AXIS2_PLACEMENT_3D('',#356,#357,#358);
#360=ELLIPSE('',#359,4.242640687119286,3.000000000000001);
#361=EDGE_CURVE('',#109,#348,#360,.T.);
#362=ORIENTED_EDGE('',*,*,#361,.F.);
#363=EDGE_LOOP('',(#346,#355,#362));
#364=FACE_OUTER_BOUND('',#363,.T.);
#365=ADVANCED_FACE('',(#364),#345,.F.);
#366=CARTESIAN_POINT('',(0.0,0.999999999999999,-7.347881E-016));
#367=DIRECTION('',(0.0,1.0,1.836970E-016));
#368=DIRECTION('',(0.0,0.0,-1.0));
#369=AXIS2_PLACEMENT_3D('',#366,#367,#368);
#370=CYLINDRICAL_SURFACE('',#369,3.000000000000001);
#371=ORIENTED_EDGE('',*,*,#82,.T.);
#372=CARTESIAN_POINT('',(3.0,-3.000000000000000,-5.554531E-016));
#373=VERTEX_POINT('',#372);
#374=CARTESIAN_POINT('',(0.0,-3.000000000000000,-1.469576E-015));
#375=DIRECTION('',(0.0,1.0,0.0));
#376=DIRECTION('',(0.0,0.0,-1.0));
#377=AXIS2_PLACEMENT_3D('',#374,#375,#376);
#378=CIRCLE('',#377,3.0);
#379=EDGE_CURVE('',#373,#76,#378,.T.);
#380=ORIENTED_EDGE('',*,*,#379,.F.);
#381=CARTESIAN_POINT('',(1.387779E-016,0.0,0.0));
#382=DIRECTION('',(0.707106781186547,0.707106781186547,1.298934E-016));
#383=DIRECTION('',(0.707106781186547,-0.707106781186547,0.0));
#384=AXIS2_PLACEMENT_3D('',#381,#382,#383);
#385=ELLIPSE('',#384,4.242640687119286,3.000000000000001);
#386=EDGE_CURVE('',#373,#74,#385,.T.);
#387=ORIENTED_EDGE('',*,*,#386,.T.);
#388=EDGE_LOOP('',(#371,#380,#387));
#389=FACE_OUTER_BOUND('',#388,.T.);
#390=ADVANCED_FACE('',(#389),#370,.F.);
#391=CARTESIAN_POINT('',(0.0,0.999999999999999,-7.347881E-016));
#392=DIRECTION('',(0.0,1.0,1.836970E-016));
#393=DIRECTION('',(0.0,0.0,-1.0));
#394=AXIS2_PLACEMENT_3D('',#391,#392,#393);
#395=CYLINDRICAL_SURFACE('',#394,3.000000000000001);
#396=ORIENTED_EDGE('',*,*,#269,.T.);
#397=CARTESIAN_POINT('',(1.387779E-016,0.0,0.0));
#398=DIRECTION('',(0.707106781186547,0.707106781186547,1.298934E-016));
#399=DIRECTION('',(0.707106781186547,-0.707106781186547,0.0));
#400=AXIS2_PLACEMENT_3D('',#397,#398,#399);
#401=ELLIPSE('',#400,4.242640687119286,3.000000000000001);
#402=EDGE_CURVE('',#254,#373,#401,.T.);
#403=ORIENTED_EDGE('',*,*,#402,.T.);
#404=CARTESIAN_POINT('',(0.0,-3.000000000000000,-1.469576E-015));
#405=DIRECTION('',(0.0,1.0,0.0));
#406=DIRECTION('',(0.0,0.0,-1.0));
#407=AXIS2_PLACEMENT_3D('',#404,#405,#406);
#408=CIRCLE('',#407,3.0);
#409=EDGE_CURVE('',#263,#373,#408,.T.);
#410=ORIENTED_EDGE('',*,*,#409,.F.);
#411=EDGE_LOOP('',(#396,#403,#410));
#412=FACE_OUTER_BOUND('',#411,.T.);
#413=ADVANCED_FACE('',(#412),#395,.F.);
#414=CARTESIAN_POINT('',(0.0,0.999999999999999,-7.347881E-016));
#415=DIRECTION('',(0.0,1.0,1.836970E-016));
#416=DIRECTION('',(0.0,0.0,-1.0));
#417=AXIS2_PLACEMENT_3D('',#414,#415,#416);
#418=CYLINDRICAL_SURFACE('',#417,3.000000000000001);
#419=CARTESIAN_POINT('',(0.0,5.0,-3.000000000000002));
#420=VERTEX_POINT('',#419);
#421=CARTESIAN_POINT('',(0.0,5.0,0.0));
#422=DIRECTION('',(0.0,-1.0,0.0));
#423=DIRECTION('',(0.0,0.0,-1.0));
#424=AXIS2_PLACEMENT_3D('',#421,#422,#423);
#425=CIRCLE('',#424,3.000000000000001);
#426=EDGE_CURVE('',#420,#420,#425,.T.);
#427=ORIENTED_EDGE('',*,*,#426,.F.);
#428=EDGE_LOOP('',(#427));
#429=FACE_OUTER_BOUND('',#428,.T.);
#430=ORIENTED_EDGE('',*,*,#164,.T.);
#431=ORIENTED_EDGE('',*,*,#181,.T.);
#432=CARTESIAN_POINT('',(1.387779E-016,0.0,0.0));
#433=DIRECTION('',(0.707106781186547,-0.707106781186547,-1.298934E-016));
#434=DIRECTION('',(-0.707106781186547,-0.707106781186547,0.0));
#435=AXIS2_PLACEMENT_3D('',#432,#433,#434);
#436=ELLIPSE('',#435,4.242640687119286,3.000000000000001);
#437=EDGE_CURVE('',#175,#245,#436,.T.);
#438=ORIENTED_EDGE('',*,*,#437,.T.);
#439=ORIENTED_EDGE('',*,*,#251,.T.);
#440=CARTESIAN_POINT('',(1.387779E-016,0.0,0.0));
#441=DIRECTION('',(-0.707106781186547,-0.707106781186547,-1.298934E-016));
#442=DIRECTION('',(0.707106781186547,-0.707106781186547,0.0));
#443=AXIS2_PLACEMENT_3D('',#440,#441,#442);
#444=ELLIPSE('',#443,4.242640687119286,3.000000000000001);
#445=EDGE_CURVE('',#234,#323,#444,.T.);
#446=ORIENTED_EDGE('',*,*,#445,.T.);
#447=ORIENTED_EDGE('',*,*,#329,.T.);
#448=EDGE_LOOP('',(#430,#431,#438,#439,#446,#447));
#449=FACE_BOUND('',#448,.T.);
#450=ADVANCED_FACE('',(#429,#449),#418,.F.);
#451=CARTESIAN_POINT('',(1.000000000000000,0.0,0.0));
#452=DIRECTION('',(-1.0,0.0,0.0));
#453=DIRECTION('',(0.0,0.0,-1.0));
#454=AXIS2_PLACEMENT_3D('',#451,#452,#453);
#455=CYLINDRICAL_SURFACE('',#454,3.000000000000001);
#456=ORIENTED_EDGE('',*,*,#242,.T.);
#457=CARTESIAN_POINT('',(-3.000000000000000,0.0,0.0));
#458=DIRECTION('',(-1.0,0.0,0.0));
#459=DIRECTION('',(0.0,0.0,-1.0));
#460=AXIS2_PLACEMENT_3D('',#457,#458,#459);
#461=CIRCLE('',#460,3.000000000000001);
#462=EDGE_CURVE('',#236,#323,#461,.T.);
#463=ORIENTED_EDGE('',*,*,#462,.T.);
#464=ORIENTED_EDGE('',*,*,#445,.F.);
#465=EDGE_LOOP('',(#456,#463,#464));
#466=FACE_OUTER_BOUND('',#465,.T.);
#467=ADVANCED_FACE('',(#466),#455,.F.);
#468=CARTESIAN_POINT('',(1.000000000000000,0.0,0.0));
#469=DIRECTION('',(-1.0,0.0,0.0));
#470=DIRECTION('',(0.0,0.0,-1.0));
#471=AXIS2_PLACEMENT_3D('',#468,#469,#470);
#472=CYLINDRICAL_SURFACE('',#471,3.000000000000001);
#473=ORIENTED_EDGE('',*,*,#91,.T.);
#474=ORIENTED_EDGE('',*,*,#386,.F.);
#475=ORIENTED_EDGE('',*,*,#402,.F.);
#476=ORIENTED_EDGE('',*,*,#260,.T.);
#477=ORIENTED_EDGE('',*,*,#437,.F.);
#478=ORIENTED_EDGE('',*,*,#195,.T.);
#479=EDGE_LOOP('',(#473,#474,#475,#476,#477,#478));
#480=FACE_OUTER_BOUND('',#479,.T.);
#481=CARTESIAN_POINT('',(5.0,0.0,-3.000000000000001));
#482=VERTEX_POINT('',#481);
#483=CARTESIAN_POINT('',(5.0,0.0,0.0));
#484=DIRECTION('',(-1.0,0.0,0.0));
#485=DIRECTION('',(0.0,0.0,-1.0));
#486=AXIS2_PLACEMENT_3D('',#483,#484,#485);
#487=CIRCLE('',#486,3.000000000000001);
#488=EDGE_CURVE('',#482,#482,#487,.T.);
#489=ORIENTED_EDGE('',*,*,#488,.F.);
#490=EDGE_LOOP('',(#489));
#491=FACE_BOUND('',#490,.T.);
#492=ADVANCED_FACE('',(#480,#491),#472,.F.);
#493=CARTESIAN_POINT('',(1.000000000000000,0.0,0.0));
#494=DIRECTION('',(-1.0,0.0,0.0));
#495=DIRECTION('',(0.0,0.0,-1.0));
#496=AXIS2_PLACEMENT_3D('',#493,#494,#495);
#497=CYLINDRICAL_SURFACE('',#496,3.000000000000001);
#498=ORIENTED_EDGE('',*,*,#285,.T.);
#499=CARTESIAN_POINT('',(1.387779E-016,0.0,0.0));
#500=DIRECTION('',(-0.707106781186547,0.707106781186547,1.298934E-016));
#501=DIRECTION('',(-0.707106781186547,-0.707106781186547,0.0));
#502=AXIS2_PLACEMENT_3D('',#499,#500,#501);
#503=ELLIPSE('',#502,4.242640687119286,3.000000000000001);
#504=EDGE_CURVE('',#348,#272,#503,.T.);
#505=ORIENTED_EDGE('',*,*,#504,.F.);
#506=CARTESIAN_POINT('',(-3.000000000000000,0.0,0.0));
#507=DIRECTION('',(-1.0,0.0,0.0));
#508=DIRECTION('',(0.0,0.0,-1.0));
#509=AXIS2_PLACEMENT_3D('',#506,#507,#508);
#510=CIRCLE('',#509,3.000000000000001);
#511=EDGE_CURVE('',#348,#236,#510,.T.);
#512=ORIENTED_EDGE('',*,*,#511,.T.);
#513=EDGE_LOOP('',(#498,#505,#512));
#514=FACE_OUTER_BOUND('',#513,.T.);
#515=ADVANCED_FACE('',(#514),#497,.F.);
#516=CARTESIAN_POINT('',(-4.0,0.0,0.0));
#517=DIRECTION('',(-1.0,0.0,0.0));
#518=DIRECTION('',(0.0,0.0,-1.0));
#519=AXIS2_PLACEMENT_3D('',#516,#517,#518);
#520=CYLINDRICAL_SURFACE('',#519,1.500000000000001);
#521=CARTESIAN_POINT('',(-5.0,0.0,-1.500000000000001));
#522=VERTEX_POINT('',#521);
#523=CARTESIAN_POINT('',(-5.0,0.0,0.0));
#524=DIRECTION('',(1.0,0.0,0.0));
#525=DIRECTION('',(0.0,0.0,-1.0));
#526=AXIS2_PLACEMENT_3D('',#523,#524,#525);
#527=CIRCLE('',#526,1.500000000000001);
#528=EDGE_CURVE('',#522,#522,#527,.T.);
#529=ORIENTED_EDGE('',*,*,#528,.F.);
#530=EDGE_LOOP('',(#529));
#531=FACE_OUTER_BOUND('',#530,.T.);
#532=CARTESIAN_POINT('',(-4.499999999999999,0.0,-1.500000000000001));
#533=VERTEX_POINT('',#532);
#534=CARTESIAN_POINT('',(-4.499999999999999,0.0,0.0));
#535=DIRECTION('',(-1.0,0.0,0.0));
#536=DIRECTION('',(0.0,0.0,-1.0));
#537=AXIS2_PLACEMENT_3D('',#534,#535,#536);
#538=CIRCLE('',#537,1.500000000000001);
#539=EDGE_CURVE('',#533,#533,#538,.T.);
#540=ORIENTED_EDGE('',*,*,#539,.F.);
#541=EDGE_LOOP('',(#540));
#542=FACE_BOUND('',#541,.T.);
#543=ADVANCED_FACE('',(#531,#542),#520,.F.);
#544=CARTESIAN_POINT('',(-3.750000000000000,0.0,0.0));
#545=DIRECTION('',(1.0,0.0,0.0));
#546=DIRECTION('',(0.0,0.0,-1.0));
#547=AXIS2_PLACEMENT_3D('',#544,#545,#546);
#548=CONICAL_SURFACE('',#547,2.250000000000001,45.000000000000021);
#549=ORIENTED_EDGE('',*,*,#539,.T.);
#550=EDGE_LOOP('',(#549));
#551=FACE_OUTER_BOUND('',#550,.T.);
#552=ORIENTED_EDGE('',*,*,#336,.F.);
#553=ORIENTED_EDGE('',*,*,#462,.F.);
#554=ORIENTED_EDGE('',*,*,#511,.F.);
#555=ORIENTED_EDGE('',*,*,#354,.F.);
#556=EDGE_LOOP('',(#552,#553,#554,#555));
#557=FACE_BOUND('',#556,.T.);
#558=ADVANCED_FACE('',(#551,#557),#548,.F.);
#559=CARTESIAN_POINT('',(0.0,0.999999999999999,-7.347881E-016));
#560=DIRECTION('',(0.0,1.0,1.836970E-016));
#561=DIRECTION('',(0.0,0.0,-1.0));
#562=AXIS2_PLACEMENT_3D('',#559,#560,#561);
#563=CYLINDRICAL_SURFACE('',#562,3.000000000000001);
#564=ORIENTED_EDGE('',*,*,#124,.T.);
#565=ORIENTED_EDGE('',*,*,#361,.T.);
#566=CARTESIAN_POINT('',(0.0,-3.000000000000000,-1.469576E-015));
#567=DIRECTION('',(0.0,1.0,0.0));
#568=DIRECTION('',(0.0,0.0,-1.0));
#569=AXIS2_PLACEMENT_3D('',#566,#567,#568);
#570=CIRCLE('',#569,3.0);
#571=EDGE_CURVE('',#76,#348,#570,.T.);
#572=ORIENTED_EDGE('',*,*,#571,.F.);
#573=EDGE_LOOP('',(#564,#565,#572));
#574=FACE_OUTER_BOUND('',#573,.T.);
#575=ADVANCED_FACE('',(#574),#563,.F.);
#576=CARTESIAN_POINT('',(0.0,0.999999999999999,-7.347881E-016));
#577=DIRECTION('',(0.0,1.0,1.836970E-016));
#578=DIRECTION('',(0.0,0.0,-1.0));
#579=AXIS2_PLACEMENT_3D('',#576,#577,#578);
#580=CYLINDRICAL_SURFACE('',#579,3.000000000000001);
#581=ORIENTED_EDGE('',*,*,#278,.T.);
#582=CARTESIAN_POINT('',(0.0,-3.000000000000000,-1.469576E-015));
#583=DIRECTION('',(0.0,1.0,0.0));
#584=DIRECTION('',(0.0,0.0,-1.0));
#585=AXIS2_PLACEMENT_3D('',#582,#583,#584);
#586=CIRCLE('',#585,3.0);
#587=EDGE_CURVE('',#348,#263,#586,.T.);
#588=ORIENTED_EDGE('',*,*,#587,.F.);
#589=ORIENTED_EDGE('',*,*,#504,.T.);
#590=EDGE_LOOP('',(#581,#588,#589));
#591=FACE_OUTER_BOUND('',#590,.T.);
#592=ADVANCED_FACE('',(#591),#580,.F.);
#593=CARTESIAN_POINT('',(0.0,-4.0,-1.653273E-015));
#594=DIRECTION('',(0.0,1.0,1.836970E-016));
#595=DIRECTION('',(0.0,0.0,-1.0));
#596=AXIS2_PLACEMENT_3D('',#593,#594,#595);
#597=CYLINDRICAL_SURFACE('',#596,1.500000000000000);
#598=CARTESIAN_POINT('',(0.0,-5.0,-1.500000000000002));
#599=VERTEX_POINT('',#598);
#600=CARTESIAN_POINT('',(0.0,-5.0,-1.836970E-015));
#601=DIRECTION('',(0.0,1.0,0.0));
#602=DIRECTION('',(0.0,0.0,-1.0));
#603=AXIS2_PLACEMENT_3D('',#600,#601,#602);
#604=CIRCLE('',#603,1.500000000000000);
#605=EDGE_CURVE('',#599,#599,#604,.T.);
#606=ORIENTED_EDGE('',*,*,#605,.F.);
#607=EDGE_LOOP('',(#606));
#608=FACE_OUTER_BOUND('',#607,.T.);
#609=CARTESIAN_POINT('',(0.0,-4.500000000000001,-1.500000000000002));
#610=VERTEX_POINT('',#609);
#611=CARTESIAN_POINT('',(0.0,-4.500000000000001,-1.745122E-015));
#612=DIRECTION('',(0.0,1.0,0.0));
#613=DIRECTION('',(0.0,0.0,-1.0));
#614=AXIS2_PLACEMENT_3D('',#611,#612,#613);
#615=CIRCLE('',#614,1.500000000000000);
#616=EDGE_CURVE('',#610,#610,#615,.T.);
#617=ORIENTED_EDGE('',*,*,#616,.T.);
#618=EDGE_LOOP('',(#617));
#619=FACE_BOUND('',#618,.T.);
#620=ADVANCED_FACE('',(#608,#619),#597,.F.);
#621=CARTESIAN_POINT('',(0.0,-3.750000000000000,-1.607349E-015));
#622=DIRECTION('',(0.0,1.0,1.836970E-016));
#623=DIRECTION('',(0.0,0.0,-1.0));
#624=AXIS2_PLACEMENT_3D('',#621,#622,#623);
#625=CONICAL_SURFACE('',#624,2.250000000000000,44.999999999999986);
#626=ORIENTED_EDGE('',*,*,#379,.T.);
#627=ORIENTED_EDGE('',*,*,#571,.T.);
#628=ORIENTED_EDGE('',*,*,#587,.T.);
#629=ORIENTED_EDGE('',*,*,#409,.T.);
#630=EDGE_LOOP('',(#626,#627,#628,#629));
#631=FACE_OUTER_BOUND('',#630,.T.);
#632=ORIENTED_EDGE('',*,*,#616,.F.);
#633=EDGE_LOOP('',(#632));
#634=FACE_BOUND('',#633,.T.);
#635=ADVANCED_FACE('',(#631,#634),#625,.F.);
#636=CARTESIAN_POINT('',(-1.387779E-016,-6.308085E-017,-5.0));
#637=DIRECTION('',(0.0,0.0,1.0));
#638=DIRECTION('',(1.0,0.0,0.0));
#639=AXIS2_PLACEMENT_3D('',#636,#637,#638);
#640=PLANE('',#639);
#641=CARTESIAN_POINT('',(-5.0,5.0,-5.0));
#642=VERTEX_POINT('',#641);
#643=CARTESIAN_POINT('',(-5.0,-5.0,-5.0));
#644=VERTEX_POINT('',#643);
#645=CARTESIAN_POINT('',(-5.0,5.0,-5.0));
#646=DIRECTION('',(0.0,-1.0,0.0));
#647=VECTOR('',#646,10.0);
#648=LINE('',#645,#647);
#649=EDGE_CURVE('',#642,#644,#648,.T.);
#650=ORIENTED_EDGE('',*,*,#649,.F.);
#651=CARTESIAN_POINT('',(5.0,5.0,-5.0));
#652=VERTEX_POINT('',#651);
#653=CARTESIAN_POINT('',(5.0,5.0,-5.0));
#654=DIRECTION('',(-1.0,0.0,0.0));
#655=VECTOR('',#654,10.0);
#656=LINE('',#653,#655);
#657=EDGE_CURVE('',#652,#642,#656,.T.);
#658=ORIENTED_EDGE('',*,*,#657,.F.);
#659=CARTESIAN_POINT('',(5.0,-5.0,-5.0));
#660=VERTEX_POINT('',#659);
#661=CARTESIAN_POINT('',(5.0,-5.0,-5.0));
#662=DIRECTION('',(0.0,1.0,0.0));
#663=VECTOR('',#662,10.0);
#664=LINE('',#661,#663);
#665=EDGE_CURVE('',#660,#652,#664,.T.);
#666=ORIENTED_EDGE('',*,*,#665,.F.);
#667=CARTESIAN_POINT('',(-5.0,-5.0,-5.0));
#668=DIRECTION('',(1.0,0.0,0.0));
#669=VECTOR('',#668,10.0);
#670=LINE('',#667,#669);
#671=EDGE_CURVE('',#644,#660,#670,.T.);
#672=ORIENTED_EDGE('',*,*,#671,.F.);
#673=EDGE_LOOP('',(#650,#658,#666,#672));
#674=FACE_OUTER_BOUND('',#673,.T.);
#675=ORIENTED_EDGE('',*,*,#212,.T.);
#676=EDGE_LOOP('',(#675));
#677=FACE_BOUND('',#676,.T.);
#678=ADVANCED_FACE('',(#674,#677),#640,.F.);
#679=CARTESIAN_POINT('',(5.0,5.0,0.0));
#680=DIRECTION('',(1.0,0.0,0.0));
#681=DIRECTION('',(0.0,0.0,-1.0));
#682=AXIS2_PLACEMENT_3D('',#679,#680,#681);
#683=PLANE('',#682);
#684=CARTESIAN_POINT('',(5.0,5.0,5.0));
#685=VERTEX_POINT('',#684);
#686=CARTESIAN_POINT('',(5.0,-5.0,5.0));
#687=VERTEX_POINT('',#686);
#688=CARTESIAN_POINT('',(5.0,5.0,5.0));
#689=DIRECTION('',(0.0,-1.0,0.0));
#690=VECTOR('',#689,10.0);
#691=LINE('',#688,#690);
#692=EDGE_CURVE('',#685,#687,#691,.T.);
#693=ORIENTED_EDGE('',*,*,#692,.T.);
#694=CARTESIAN_POINT('',(5.0,-5.0,5.0));
#695=DIRECTION('',(0.0,0.0,-1.0));
#696=VECTOR('',#695,10.0);
#697=LINE('',#694,#696);
#698=EDGE_CURVE('',#687,#660,#697,.T.);
#699=ORIENTED_EDGE('',*,*,#698,.T.);
#700=ORIENTED_EDGE('',*,*,#665,.T.);
#701=CARTESIAN_POINT('',(5.0,5.0,5.0));
#702=DIRECTION('',(0.0,0.0,-1.0));
#703=VECTOR('',#702,10.0);
#704=LINE('',#701,#703);
#705=EDGE_CURVE('',#685,#652,#704,.T.);
#706=ORIENTED_EDGE('',*,*,#705,.F.);
#707=EDGE_LOOP('',(#693,#699,#700,#706));
#708=FACE_OUTER_BOUND('',#707,.T.);
#709=ORIENTED_EDGE('',*,*,#488,.T.);
#710=EDGE_LOOP('',(#709));
#711=FACE_BOUND('',#710,.T.);
#712=ADVANCED_FACE('',(#708,#711),#683,.T.);
#713=CARTESIAN_POINT('',(5.0,-5.0,0.0));
#714=DIRECTION('',(0.0,-1.0,0.0));
#715=DIRECTION('',(0.0,0.0,-1.0));
#716=AXIS2_PLACEMENT_3D('',#713,#714,#715);
#717=PLANE('',#716);
#718=CARTESIAN_POINT('',(-5.0,-5.0,5.0));
#719=VERTEX_POINT('',#718);
#720=CARTESIAN_POINT('',(5.0,-5.0,5.0));
#721=DIRECTION('',(-1.0,0.0,0.0));
#722=VECTOR('',#721,10.0);
#723=LINE('',#720,#722);
#724=EDGE_CURVE('',#687,#719,#723,.T.);
#725=ORIENTED_EDGE('',*,*,#724,.T.);
#726=CARTESIAN_POINT('',(-5.0,-5.0,5.0));
#727=DIRECTION('',(0.0,0.0,-1.0));
#728=VECTOR('',#727,10.0);
#729=LINE('',#726,#728);
#730=EDGE_CURVE('',#719,#644,#729,.T.);
#731=ORIENTED_EDGE('',*,*,#730,.T.);
#732=ORIENTED_EDGE('',*,*,#671,.T.);
#733=ORIENTED_EDGE('',*,*,#698,.F.);
#734=EDGE_LOOP('',(#725,#731,#732,#733));
#735=FACE_OUTER_BOUND('',#734,.T.);
#736=ORIENTED_EDGE('',*,*,#605,.T.);
#737=EDGE_LOOP('',(#736));
#738=FACE_BOUND('',#737,.T.);
#739=ADVANCED_FACE('',(#735,#738),#717,.T.);
#740=CARTESIAN_POINT('',(-5.0,-5.0,0.0));
#741=DIRECTION('',(-1.0,0.0,0.0));
#742=DIRECTION('',(0.0,0.0,1.0));
#743=AXIS2_PLACEMENT_3D('',#740,#741,#742);
#744=PLANE('',#743);
#745=CARTESIAN_POINT('',(-5.0,5.0,5.0));
#746=VERTEX_POINT('',#745);
#747=CARTESIAN_POINT('',(-5.0,-5.0,5.0));
#748=DIRECTION('',(0.0,1.0,0.0));
#749=VECTOR('',#748,10.0);
#750=LINE('',#747,#749);
#751=EDGE_CURVE('',#719,#746,#750,.T.);
#752=ORIENTED_EDGE('',*,*,#751,.T.);
#753=CARTESIAN_POINT('',(-5.0,5.0,-5.0));
#754=DIRECTION('',(0.0,0.0,1.0));
#755=VECTOR('',#754,10.0);
#756=LINE('',#753,#755);
#757=EDGE_CURVE('',#642,#746,#756,.T.);
#758=ORIENTED_EDGE('',*,*,#757,.F.);
#759=ORIENTED_EDGE('',*,*,#649,.T.);
#760=ORIENTED_EDGE('',*,*,#730,.F.);
#761=EDGE_LOOP('',(#752,#758,#759,#760));
#762=FACE_OUTER_BOUND('',#761,.T.);
#763=ORIENTED_EDGE('',*,*,#528,.T.);
#764=EDGE_LOOP('',(#763));
#765=FACE_BOUND('',#764,.T.);
#766=ADVANCED_FACE('',(#762,#765),#744,.T.);
#767=CARTESIAN_POINT('',(-5.0,5.0,0.0));
#768=DIRECTION('',(0.0,1.0,0.0));
#769=DIRECTION('',(0.0,0.0,1.0));
#770=AXIS2_PLACEMENT_3D('',#767,#768,#769);
#771=PLANE('',#770);
#772=CARTESIAN_POINT('',(-5.0,5.0,5.0));
#773=DIRECTION('',(1.0,0.0,0.0));
#774=VECTOR('',#773,10.0);
#775=LINE('',#772,#774);
#776=EDGE_CURVE('',#746,#685,#775,.T.);
#777=ORIENTED_EDGE('',*,*,#776,.T.);
#778=ORIENTED_EDGE('',*,*,#705,.T.);
#779=ORIENTED_EDGE('',*,*,#657,.T.);
#780=ORIENTED_EDGE('',*,*,#757,.T.);
#781=EDGE_LOOP('',(#777,#778,#779,#780));
#782=FACE_OUTER_BOUND('',#781,.T.);
#783=ORIENTED_EDGE('',*,*,#426,.T.);
#784=EDGE_LOOP('',(#783));
#785=FACE_BOUND('',#784,.T.);
#786=ADVANCED_FACE('',(#782,#785),#771,.T.);
#787=CARTESIAN_POINT('',(0.0,-7.569702E-017,5.0));
#788=DIRECTION('',(0.0,0.0,1.0));
#789=DIRECTION('',(1.0,0.0,0.0));
#790=AXIS2_PLACEMENT_3D('',#787,#788,#789);
#791=PLANE('',#790);
#792=ORIENTED_EDGE('',*,*,#692,.F.);
#793=ORIENTED_EDGE('',*,*,#776,.F.);
#794=ORIENTED_EDGE('',*,*,#751,.F.);
#795=ORIENTED_EDGE('',*,*,#724,.F.);
#796=EDGE_LOOP('',(#792,#793,#794,#795));
#797=FACE_OUTER_BOUND('',#796,.T.);
#798=ORIENTED_EDGE('',*,*,#296,.T.);
#799=EDGE_LOOP('',(#798));
#800=FACE_BOUND('',#799,.T.);
#801=ADVANCED_FACE('',(#797,#800),#791,.T.);
#802=CLOSED_SHELL('',(#102,#135,#168,#199,#227,#300,#315,#340,#365,#390,#413,#450,#467,#492,#515,#543,#558,#575,#592,#620,#635,#678,#712,#739,#766,#786,#801));
#803=MANIFOLD_SOLID_BREP('Solid1',#802);
#804=COLOUR_RGB('Metal-AL-6061 (Flat)',0.847059011459351,0.839215993881226,0.839215993881226);
#805=FILL_AREA_STYLE_COLOUR('Metal-AL-6061 (Flat)',#804);
#806=FILL_AREA_STYLE('Metal-AL-6061 (Flat)',(#805));
#807=SURFACE_STYLE_FILL_AREA(#806);
#808=SURFACE_SIDE_STYLE('Metal-AL-6061 (Flat)',(#807));
#809=SURFACE_STYLE_USAGE(.BOTH.,#808);
#810=PRESENTATION_STYLE_ASSIGNMENT((#809));
#811=STYLED_ITEM('',(#810),#803);
#812=MECHANICAL_DESIGN_GEOMETRIC_PRESENTATION_REPRESENTATION('',(#811),#36);
#813=ADVANCED_BREP_SHAPE_REPRESENTATION('ABSR',(#803),#36);
#814=SHAPE_REPRESENTATION_RELATIONSHIP('SRR','None',#813,#41);
ENDSEC;
END-ISO-10303-21;
