ISO-10303-21;
HEADER;
/****************************************************************
 * Generated by software with PDE/Lib inside                    *
 * PDElib Version v51a, created Fri 12/12/2008                  *
 * International Technegroup Inc. (www.iti-oh.com)              *
 ****************************************************************/
FILE_DESCRIPTION((''),'2;1');
FILE_NAME('G:\\Makerbeam\\Mail 26-02-2022\\100359.stp','2006-04-19T00:45:29',('Jeff'),(''),'Autodesk Inventor 2010','Autodesk Inventor 2010','');
FILE_SCHEMA(('CONFIG_CONTROL_DESIGN'));
ENDSEC;
DATA;
#5=APPLICATION_CONTEXT('configuration controlled 3D designs of mechanical parts and assemblies');
#6=APPLICATION_PROTOCOL_DEFINITION('International Standard','configuration_control_3d_design_ed2_mim_lf',2004,#5);
#7=PRODUCT_CONTEXT('',#5,'mechanical');
#8=PRODUCT('100359','100359',$,(#7));
#9=PRODUCT_RELATED_PRODUCT_CATEGORY('part',$,(#8));
#10=PRODUCT_DEFINITION_FORMATION('',$,#8);
#11=PRODUCT_DEFINITION_CONTEXT('part definition',#5,'design');
#12=PRODUCT_DEFINITION('',$,#10,#11);
#18=(NAMED_UNIT(*)PLANE_ANGLE_UNIT()SI_UNIT($,.RADIAN.));
#19=DIMENSIONAL_EXPONENTS(0.0,0.0,0.0,0.0,0.0,0.0,0.0);
#20=PLANE_ANGLE_MEASURE_WITH_UNIT(PLANE_ANGLE_MEASURE(0.017453292500000),#18);
#24=(CONVERSION_BASED_UNIT('DEGREE',#20)NAMED_UNIT(#19)PLANE_ANGLE_UNIT());
#28=(NAMED_UNIT(*)SI_UNIT($,.STERADIAN.)SOLID_ANGLE_UNIT());
#32=(LENGTH_UNIT()NAMED_UNIT(*)SI_UNIT(.MILLI.,.METRE.));
#34=UNCERTAINTY_MEASURE_WITH_UNIT(LENGTH_MEASURE(0.010000000000000),#32,'DISTANCE_ACCURACY_VALUE','');
#36=(GEOMETRIC_REPRESENTATION_CONTEXT(3)GLOBAL_UNCERTAINTY_ASSIGNED_CONTEXT((#34))GLOBAL_UNIT_ASSIGNED_CONTEXT((#24,#28,#32))REPRESENTATION_CONTEXT('None','None'));
#37=AXIS2_PLACEMENT_3D('',#38,#39,#40);
#38=CARTESIAN_POINT('',(0.0,0.0,0.0));
#39=DIRECTION('',(0.0,0.0,1.0));
#40=DIRECTION('',(1.0,0.0,0.0));
#41=SHAPE_REPRESENTATION('',(#37),#36);
#42=PRODUCT_DEFINITION_SHAPE('','',#12);
#43=SHAPE_DEFINITION_REPRESENTATION(#42,#41);
#49=(NAMED_UNIT(*)PLANE_ANGLE_UNIT()SI_UNIT($,.RADIAN.));
#50=DIMENSIONAL_EXPONENTS(0.0,0.0,0.0,0.0,0.0,0.0,0.0);
#51=PLANE_ANGLE_MEASURE_WITH_UNIT(PLANE_ANGLE_MEASURE(0.017453292500000),#49);
#55=(CONVERSION_BASED_UNIT('DEGREE',#51)NAMED_UNIT(#50)PLANE_ANGLE_UNIT());
#59=(NAMED_UNIT(*)SI_UNIT($,.STERADIAN.)SOLID_ANGLE_UNIT());
#63=(LENGTH_UNIT()NAMED_UNIT(*)SI_UNIT(.MILLI.,.METRE.));
#65=UNCERTAINTY_MEASURE_WITH_UNIT(LENGTH_MEASURE(0.000001000000000),#63,'DISTANCE_ACCURACY_VALUE','');
#67=(GEOMETRIC_REPRESENTATION_CONTEXT(3)GLOBAL_UNCERTAINTY_ASSIGNED_CONTEXT((#65))GLOBAL_UNIT_ASSIGNED_CONTEXT((#55,#59,#63))REPRESENTATION_CONTEXT('','3D'));
#68=CARTESIAN_POINT('',(1.100904E-015,-5.950000000000001,0.0));
#69=DIRECTION('',(-1.836970E-016,1.0,0.0));
#70=DIRECTION('',(-1.0,0.0,0.0));
#71=AXIS2_PLACEMENT_3D('',#68,#69,#70);
#72=CONICAL_SURFACE('',#71,1.450000000000000,44.999999999999993);
#73=CARTESIAN_POINT('',(1.400000000000001,-6.000000000000001,-1.714449E-016));
#74=VERTEX_POINT('',#73);
#75=CARTESIAN_POINT('',(1.110089E-015,-6.000000000000001,0.0));
#76=DIRECTION('',(0.0,1.0,0.0));
#77=DIRECTION('',(-1.0,0.0,0.0));
#78=AXIS2_PLACEMENT_3D('',#75,#76,#77);
#79=CIRCLE('',#78,1.400000000000000);
#80=EDGE_CURVE('',#74,#74,#79,.T.);
#81=ORIENTED_EDGE('',*,*,#80,.T.);
#82=EDGE_LOOP('',(#81));
#83=FACE_OUTER_BOUND('',#82,.T.);
#84=CARTESIAN_POINT('',(1.500000000000001,-5.900000000000000,1.836910E-016));
#85=VERTEX_POINT('',#84);
#86=CARTESIAN_POINT('',(1.091719E-015,-5.900000000000000,0.0));
#87=DIRECTION('',(0.0,-1.0,0.0));
#88=DIRECTION('',(-1.0,0.0,0.0));
#89=AXIS2_PLACEMENT_3D('',#86,#87,#88);
#90=CIRCLE('',#89,1.500000000000000);
#91=EDGE_CURVE('',#85,#85,#90,.T.);
#92=ORIENTED_EDGE('',*,*,#91,.T.);
#93=EDGE_LOOP('',(#92));
#94=FACE_BOUND('',#93,.T.);
#95=ADVANCED_FACE('',(#83,#94),#72,.T.);
#96=CARTESIAN_POINT('',(0.0,4.959820E-016,0.0));
#97=DIRECTION('',(1.850372E-016,-1.0,0.0));
#98=DIRECTION('',(-1.0,0.0,0.0));
#99=AXIS2_PLACEMENT_3D('',#96,#97,#98);
#100=CYLINDRICAL_SURFACE('',#99,1.500000000000000);
#101=CARTESIAN_POINT('',(1.500000000000000,7.715275E-016,1.836970E-016));
#102=VERTEX_POINT('',#101);
#103=CARTESIAN_POINT('',(6.695399E-034,4.923635E-016,0.0));
#104=DIRECTION('',(0.0,1.0,0.0));
#105=DIRECTION('',(-1.0,0.0,0.0));
#106=AXIS2_PLACEMENT_3D('',#103,#104,#105);
#107=CIRCLE('',#106,1.500000000000000);
#108=EDGE_CURVE('',#102,#102,#107,.T.);
#109=ORIENTED_EDGE('',*,*,#108,.F.);
#110=EDGE_LOOP('',(#109));
#111=FACE_OUTER_BOUND('',#110,.T.);
#112=ORIENTED_EDGE('',*,*,#91,.F.);
#113=EDGE_LOOP('',(#112));
#114=FACE_BOUND('',#113,.T.);
#115=ADVANCED_FACE('',(#111,#114),#100,.T.);
#116=CARTESIAN_POINT('',(1.110223E-015,-6.000000000000001,0.0));
#117=DIRECTION('',(0.0,1.0,0.0));
#118=DIRECTION('',(0.0,0.0,1.0));
#119=AXIS2_PLACEMENT_3D('',#116,#117,#118);
#120=PLANE('',#119);
#121=ORIENTED_EDGE('',*,*,#80,.F.);
#122=EDGE_LOOP('',(#121));
#123=FACE_OUTER_BOUND('',#122,.T.);
#124=ADVANCED_FACE('',(#123),#120,.F.);
#125=CARTESIAN_POINT('',(0.485742582609745,1.414301706915195,0.874256927552650));
#126=CARTESIAN_POINT('',(1.031854235758208,1.110906344054938,1.420368580701114));
#127=CARTESIAN_POINT('',(1.577965888906672,0.807510981194680,1.966480233849577));
#128=CARTESIAN_POINT('',(2.124077542055135,0.504115618334423,2.512591886998040));
#129=CARTESIAN_POINT('',(0.525958282810575,1.431374409830642,0.843526062304845));
#130=CARTESIAN_POINT('',(1.072069935959040,1.127979046970383,1.389637715453309));
#131=CARTESIAN_POINT('',(1.618181589107500,0.824583684110128,1.935749368601772));
#132=CARTESIAN_POINT('',(2.164293242255965,0.521188321249870,2.481861021750236));
#133=CARTESIAN_POINT('',(0.606259038311131,1.464449668042006,0.781600450255048));
#134=CARTESIAN_POINT('',(1.152370691459593,1.161054305181750,1.327712103403511));
#135=CARTESIAN_POINT('',(1.698482344608060,0.857658942321491,1.873823756551974));
#136=CARTESIAN_POINT('',(2.244593997756522,0.554263579461235,2.419935409700438));
#137=CARTESIAN_POINT('',(0.747440560286887,1.478906294915202,0.648450387653289));
#138=CARTESIAN_POINT('',(1.293552213435353,1.175510932054944,1.194562040801753));
#139=CARTESIAN_POINT('',(1.839663866583813,0.872115569194689,1.740673693950215));
#140=CARTESIAN_POINT('',(2.385775519732278,0.568720206334431,2.286785347098679));
#141=CARTESIAN_POINT('',(0.828160629680943,1.439910761288366,0.546066132910991));
#142=CARTESIAN_POINT('',(1.374272282829405,1.136515398428109,1.092177786059455));
#143=CARTESIAN_POINT('',(1.920383935977871,0.833120035567851,1.638289439207917));
#144=CARTESIAN_POINT('',(2.466495589126334,0.529724672707595,2.184401092356381));
#145=CARTESIAN_POINT('',(0.874256927552649,1.414301706915195,0.485742582609746));
#146=CARTESIAN_POINT('',(1.420368580701113,1.110906344054938,1.031854235758209));
#147=CARTESIAN_POINT('',(1.966480233849577,0.807510981194682,1.577965888906671));
#148=CARTESIAN_POINT('',(2.512591886998041,0.504115618334425,2.124077542055135));
#149=B_SPLINE_SURFACE_WITH_KNOTS('',3,3,((#125,#129,#133,#137,#141,#145),(#126,#130,#134,#138,#142,#146),(#127,#131,#135,#139,#143,#147),(#128,#132,#136,#140,#144,#148)),.UNSPECIFIED.,.F.,.F.,.U.,(4,4),(4,1,1,4),(-0.125278029988766,0.123654121300051),(0.0,0.285714285714286,0.571428571428571,1.0),.UNSPECIFIED.);
#150=CARTESIAN_POINT('',(2.118015493767827,0.507483422938483,2.506529838710732));
#151=VERTEX_POINT('',#150);
#152=CARTESIAN_POINT('',(2.506529838710732,0.507483422938483,2.118015493767827));
#153=VERTEX_POINT('',#152);
#154=CARTESIAN_POINT('',(2.118015493767827,0.507483422938483,2.506529838710732));
#155=CARTESIAN_POINT('',(2.177974479026716,0.528544789055281,2.468619379700497));
#156=CARTESIAN_POINT('',(2.252709305358809,0.560090602940019,2.415057082685852));
#157=CARTESIAN_POINT('',(2.415054551868062,0.560092178236993,2.252712966019875));
#158=CARTESIAN_POINT('',(2.468618591934316,0.528545226703157,2.177975724953615));
#159=CARTESIAN_POINT('',(2.506529838710729,0.507483422938483,2.118015493767829));
#160=B_SPLINE_CURVE_WITH_KNOTS('',3,(#154,#155,#156,#157,#158,#159),.UNSPECIFIED.,.F.,.U.,(4,2,4),(0.0,0.022199724238182,0.044400284185564),.UNSPECIFIED.);
#161=EDGE_CURVE('',#151,#153,#160,.T.);
#162=ORIENTED_EDGE('',*,*,#161,.T.);
#163=CARTESIAN_POINT('',(0.978359032528009,1.356467204151106,0.589844687585104));
#164=VERTEX_POINT('',#163);
#165=CARTESIAN_POINT('',(2.506529838710733,0.507483422938483,2.118015493767827));
#166=DIRECTION('',(-0.658145181714418,0.365636212063565,-0.658145181714418));
#167=VECTOR('',#166,2.321935719717580);
#168=LINE('',#165,#167);
#169=EDGE_CURVE('',#153,#164,#168,.T.);
#170=ORIENTED_EDGE('',*,*,#169,.T.);
#171=CARTESIAN_POINT('',(0.485742582609745,1.414301706915194,0.874256927552651));
#172=VERTEX_POINT('',#171);
#173=CARTESIAN_POINT('',(0.978359032528014,1.356467204151104,0.589844687585100));
#174=CARTESIAN_POINT('',(0.909622118947308,1.394654378362608,0.629529963144184));
#175=CARTESIAN_POINT('',(0.830959939375682,1.438355589235733,0.674945593694906));
#176=CARTESIAN_POINT('',(0.633281530848972,1.461624846627345,0.789075276070779));
#177=CARTESIAN_POINT('',(0.554533882673801,1.436366526698465,0.834540251942764));
#178=CARTESIAN_POINT('',(0.485742582609745,1.414301706915194,0.874256927552651));
#179=B_SPLINE_CURVE_WITH_KNOTS('',3,(#173,#174,#175,#176,#177,#178),.UNSPECIFIED.,.F.,.U.,(4,2,4),(0.0,0.026423758614466,0.052880579663714),.UNSPECIFIED.);
#180=EDGE_CURVE('',#164,#172,#179,.T.);
#181=ORIENTED_EDGE('',*,*,#180,.T.);
#182=CARTESIAN_POINT('',(0.485742582609745,1.414301706915194,0.874256927552651));
#183=DIRECTION('',(0.658145181714418,-0.365636212063565,0.658145181714418));
#184=VECTOR('',#183,2.480110705826542);
#185=LINE('',#182,#184);
#186=EDGE_CURVE('',#172,#151,#185,.T.);
#187=ORIENTED_EDGE('',*,*,#186,.T.);
#188=EDGE_LOOP('',(#162,#170,#181,#187));
#189=FACE_OUTER_BOUND('',#188,.T.);
#190=ADVANCED_FACE('',(#189),#149,.T.);
#191=CARTESIAN_POINT('',(1.000000000000000,0.500000000000001,0.577350269189626));
#192=DIRECTION('',(0.500000000000000,9.912706E-017,0.866025403784439));
#193=DIRECTION('',(0.866025403784439,-5.502657E-033,-0.500000000000000));
#194=AXIS2_PLACEMENT_3D('',#191,#192,#193);
#195=PLANE('',#194);
#196=ORIENTED_EDGE('',*,*,#180,.F.);
#197=CARTESIAN_POINT('',(1.000000000000000,1.344444444444445,0.577350269189626));
#198=VERTEX_POINT('',#197);
#199=CARTESIAN_POINT('',(1.000000000000000,1.344444444444444,0.577350269189626));
#200=DIRECTION('',(-0.780398972571708,0.433554984762062,0.450563556889581));
#201=VECTOR('',#200,0.027730645775552);
#202=LINE('',#199,#201);
#203=EDGE_CURVE('',#198,#164,#202,.T.);
#204=ORIENTED_EDGE('',*,*,#203,.F.);
#205=CARTESIAN_POINT('',(1.000000000000000,0.500000000000001,0.577350269189626));
#206=VERTEX_POINT('',#205);
#207=CARTESIAN_POINT('',(1.000000000000000,0.500000000000001,0.577350269189626));
#208=DIRECTION('',(0.0,1.0,0.0));
#209=VECTOR('',#208,0.844444444444444);
#210=LINE('',#207,#209);
#211=EDGE_CURVE('',#206,#198,#210,.T.);
#212=ORIENTED_EDGE('',*,*,#211,.F.);
#213=CARTESIAN_POINT('',(-3.642919E-016,0.500000000000001,1.154700538379252));
#214=VERTEX_POINT('',#213);
#215=CARTESIAN_POINT('',(-3.642919E-016,0.500000000000001,1.154700538379252));
#216=DIRECTION('',(0.866025403784439,1.922963E-016,-0.499999999999999));
#217=VECTOR('',#216,1.154700538379252);
#218=LINE('',#215,#217);
#219=EDGE_CURVE('',#214,#206,#218,.T.);
#220=ORIENTED_EDGE('',*,*,#219,.F.);
#221=CARTESIAN_POINT('',(-5.146676E-016,1.258499700900416,1.154700538379252));
#222=VERTEX_POINT('',#221);
#223=CARTESIAN_POINT('',(-3.642919E-016,0.500000000000001,1.154700538379252));
#224=DIRECTION('',(0.0,1.0,0.0));
#225=VECTOR('',#224,0.758499700900416);
#226=LINE('',#223,#225);
#227=EDGE_CURVE('',#214,#222,#226,.T.);
#228=ORIENTED_EDGE('',*,*,#227,.T.);
#229=CARTESIAN_POINT('',(0.485742582609745,1.414301706915194,0.874256927552651));
#230=DIRECTION('',(-0.834430986740808,-0.267643863786094,0.481758954814970));
#231=VECTOR('',#230,0.582124334220858);
#232=LINE('',#229,#231);
#233=EDGE_CURVE('',#172,#222,#232,.T.);
#234=ORIENTED_EDGE('',*,*,#233,.F.);
#235=EDGE_LOOP('',(#196,#204,#212,#220,#228,#234));
#236=FACE_OUTER_BOUND('',#235,.T.);
#237=ADVANCED_FACE('',(#236),#195,.F.);
#238=CARTESIAN_POINT('',(2.700000000000000,0.400000000000001,4.959820E-016));
#239=DIRECTION('',(-0.485642931178632,-0.874157276121538,-8.921116E-017));
#240=DIRECTION('',(0.874157276121538,-0.485642931178632,1.605801E-016));
#241=AXIS2_PLACEMENT_3D('',#238,#239,#240);
#242=PLANE('',#241);
#243=ORIENTED_EDGE('',*,*,#169,.F.);
#244=CARTESIAN_POINT('',(2.700000000000000,0.400000000000001,1.450000000000001));
#245=VERTEX_POINT('',#244);
#246=CARTESIAN_POINT('',(1.450000000000000,1.094444444444445,1.450000000000000));
#247=DIRECTION('',(-0.485642931178632,-0.874157276121538,-8.921116E-017));
#248=DIRECTION('',(-0.874157276121538,0.485642931178632,-1.605801E-016));
#249=AXIS2_PLACEMENT_3D('',#246,#247,#248);
#250=ELLIPSE('',#249,1.429948630692639,1.250000000000000);
#251=EDGE_CURVE('',#245,#153,#250,.T.);
#252=ORIENTED_EDGE('',*,*,#251,.F.);
#253=CARTESIAN_POINT('',(2.649999999999999,0.427777777777779,0.100000000000001));
#254=VERTEX_POINT('',#253);
#255=CARTESIAN_POINT('',(-15.549999999999986,10.538888888888870,1.449999999999998));
#256=DIRECTION('',(-0.485642931178632,-0.874157276121538,-8.921116E-017));
#257=DIRECTION('',(-0.874157276121538,0.485642931178632,-1.605801E-016));
#258=AXIS2_PLACEMENT_3D('',#255,#256,#257);
#259=ELLIPSE('',#258,20.877250008112505,18.249999999999986);
#260=EDGE_CURVE('',#254,#245,#259,.T.);
#261=ORIENTED_EDGE('',*,*,#260,.F.);
#262=CARTESIAN_POINT('',(2.600000000000000,0.455555555555557,0.100000000000001));
#263=VERTEX_POINT('',#262);
#264=CARTESIAN_POINT('',(2.600000000000000,0.455555555555556,0.100000000000000));
#265=DIRECTION('',(0.874157276121538,-0.485642931178631,0.0));
#266=VECTOR('',#265,0.057197945227704);
#267=LINE('',#264,#266);
#268=EDGE_CURVE('',#263,#254,#267,.T.);
#269=ORIENTED_EDGE('',*,*,#268,.F.);
#270=CARTESIAN_POINT('',(2.600000000000000,0.455555555555557,-0.100000000000000));
#271=VERTEX_POINT('',#270);
#272=CARTESIAN_POINT('',(2.600000000000000,0.455555555555557,-0.100000000000000));
#273=DIRECTION('',(0.0,0.0,1.0));
#274=VECTOR('',#273,0.200000000000000);
#275=LINE('',#272,#274);
#276=EDGE_CURVE('',#271,#263,#275,.T.);
#277=ORIENTED_EDGE('',*,*,#276,.F.);
#278=CARTESIAN_POINT('',(2.649999999999999,0.427777777777779,-0.100000000000000));
#279=VERTEX_POINT('',#278);
#280=CARTESIAN_POINT('',(2.649999999999999,0.427777777777779,-0.100000000000000));
#281=DIRECTION('',(-0.874157276121538,0.485642931178631,0.0));
#282=VECTOR('',#281,0.057197945227704);
#283=LINE('',#280,#282);
#284=EDGE_CURVE('',#279,#271,#283,.T.);
#285=ORIENTED_EDGE('',*,*,#284,.F.);
#286=CARTESIAN_POINT('',(2.700000000000000,0.400000000000001,-1.450000000000000));
#287=VERTEX_POINT('',#286);
#288=CARTESIAN_POINT('',(-15.549999999999377,10.538888888888531,-1.449999999999985));
#289=DIRECTION('',(-0.485642931178632,-0.874157276121538,-8.921116E-017));
#290=DIRECTION('',(-0.874157276121538,0.485642931178632,-1.329465E-016));
#291=AXIS2_PLACEMENT_3D('',#288,#289,#290);
#292=ELLIPSE('',#291,20.877250008111812,18.249999999999378);
#293=EDGE_CURVE('',#287,#279,#292,.T.);
#294=ORIENTED_EDGE('',*,*,#293,.F.);
#295=CARTESIAN_POINT('',(2.506529838710733,0.507483422938483,-2.118015493767827));
#296=VERTEX_POINT('',#295);
#297=CARTESIAN_POINT('',(1.450000000000000,1.094444444444445,-1.450000000000000));
#298=DIRECTION('',(-0.485642931178632,-0.874157276121538,-8.921116E-017));
#299=DIRECTION('',(-0.874157276121538,0.485642931178632,0.0));
#300=AXIS2_PLACEMENT_3D('',#297,#298,#299);
#301=ELLIPSE('',#300,1.429948630692639,1.250000000000000);
#302=EDGE_CURVE('',#296,#287,#301,.T.);
#303=ORIENTED_EDGE('',*,*,#302,.F.);
#304=CARTESIAN_POINT('',(0.978359032528009,1.356467204151106,-0.589844687585104));
#305=VERTEX_POINT('',#304);
#306=CARTESIAN_POINT('',(0.978359032528009,1.356467204151106,-0.589844687585104));
#307=DIRECTION('',(0.658145181714418,-0.365636212063565,-0.658145181714418));
#308=VECTOR('',#307,2.321935719717580);
#309=LINE('',#306,#308);
#310=EDGE_CURVE('',#305,#296,#309,.T.);
#311=ORIENTED_EDGE('',*,*,#310,.F.);
#312=CARTESIAN_POINT('',(1.000000000000000,1.344444444444445,-0.577350269189626));
#313=VERTEX_POINT('',#312);
#314=CARTESIAN_POINT('',(0.978359032528009,1.356467204151106,-0.589844687585104));
#315=DIRECTION('',(0.780398972571707,-0.433554984762063,0.450563556889582));
#316=VECTOR('',#315,0.027730645775552);
#317=LINE('',#314,#316);
#318=EDGE_CURVE('',#305,#313,#317,.T.);
#319=ORIENTED_EDGE('',*,*,#318,.T.);
#320=CARTESIAN_POINT('',(1.000000000000000,1.344444444444445,-0.577350269189626));
#321=DIRECTION('',(0.0,0.0,1.0));
#322=VECTOR('',#321,1.154700538379252);
#323=LINE('',#320,#322);
#324=EDGE_CURVE('',#313,#198,#323,.T.);
#325=ORIENTED_EDGE('',*,*,#324,.T.);
#326=ORIENTED_EDGE('',*,*,#203,.T.);
#327=EDGE_LOOP('',(#243,#252,#261,#269,#277,#285,#294,#303,#311,#319,#325,#326));
#328=FACE_OUTER_BOUND('',#327,.T.);
#329=ADVANCED_FACE('',(#328),#242,.F.);
#330=CARTESIAN_POINT('',(0.874256927552651,1.414301706915194,-0.485742582609745));
#331=CARTESIAN_POINT('',(1.420368580701114,1.110906344054937,-1.031854235758208));
#332=CARTESIAN_POINT('',(1.966480233849577,0.807510981194680,-1.577965888906672));
#333=CARTESIAN_POINT('',(2.512591886998041,0.504115618334423,-2.124077542055135));
#334=CARTESIAN_POINT('',(0.843526062304846,1.431374409830641,-0.525958282810576));
#335=CARTESIAN_POINT('',(1.389637715453310,1.127979046970383,-1.072069935959041));
#336=CARTESIAN_POINT('',(1.935749368601772,0.824583684110128,-1.618181589107500));
#337=CARTESIAN_POINT('',(2.481861021750236,0.521188321249870,-2.164293242255965));
#338=CARTESIAN_POINT('',(0.781600450255049,1.464449668042005,-0.606259038311131));
#339=CARTESIAN_POINT('',(1.327712103403512,1.161054305181750,-1.152370691459592));
#340=CARTESIAN_POINT('',(1.873823756551976,0.857658942321491,-1.698482344608061));
#341=CARTESIAN_POINT('',(2.419935409700439,0.554263579461235,-2.244593997756522));
#342=CARTESIAN_POINT('',(0.648450387653290,1.478906294915203,-0.747440560286888));
#343=CARTESIAN_POINT('',(1.194562040801754,1.175510932054944,-1.293552213435354));
#344=CARTESIAN_POINT('',(1.740673693950216,0.872115569194690,-1.839663866583813));
#345=CARTESIAN_POINT('',(2.286785347098680,0.568720206334432,-2.385775519732279));
#346=CARTESIAN_POINT('',(0.546066132910992,1.439910761288364,-0.828160629680943));
#347=CARTESIAN_POINT('',(1.092177786059455,1.136515398428108,-1.374272282829404));
#348=CARTESIAN_POINT('',(1.638289439207920,0.833120035567853,-1.920383935977872));
#349=CARTESIAN_POINT('',(2.184401092356382,0.529724672707597,-2.466495589126334));
#350=CARTESIAN_POINT('',(0.485742582609747,1.414301706915194,-0.874256927552649));
#351=CARTESIAN_POINT('',(1.031854235758210,1.110906344054937,-1.420368580701112));
#352=CARTESIAN_POINT('',(1.577965888906674,0.807510981194684,-1.966480233849577));
#353=CARTESIAN_POINT('',(2.124077542055137,0.504115618334427,-2.512591886998041));
#354=B_SPLINE_SURFACE_WITH_KNOTS('',3,3,((#330,#334,#338,#342,#346,#350),(#331,#335,#339,#343,#347,#351),(#332,#336,#340,#344,#348,#352),(#333,#337,#341,#345,#349,#353)),.UNSPECIFIED.,.F.,.F.,.U.,(4,4),(4,1,1,4),(-0.125278029988766,0.123654121300051),(0.0,0.285714285714286,0.571428571428571,1.0),.UNSPECIFIED.);
#355=CARTESIAN_POINT('',(2.118015493767827,0.507483422938483,-2.506529838710732));
#356=VERTEX_POINT('',#355);
#357=CARTESIAN_POINT('',(2.506529838710732,0.507483422938483,-2.118015493767827));
#358=CARTESIAN_POINT('',(2.468619379700495,0.528544789055282,-2.177974479026720));
#359=CARTESIAN_POINT('',(2.415057082685851,0.560090602940019,-2.252709305358811));
#360=CARTESIAN_POINT('',(2.252712966019880,0.560092178236993,-2.415054551868057));
#361=CARTESIAN_POINT('',(2.177975724953620,0.528545226703158,-2.468618591934316));
#362=CARTESIAN_POINT('',(2.118015493767828,0.507483422938483,-2.506529838710732));
#363=B_SPLINE_CURVE_WITH_KNOTS('',3,(#357,#358,#359,#360,#361,#362),.UNSPECIFIED.,.F.,.U.,(4,2,4),(0.0,0.022199724238184,0.044400284185565),.UNSPECIFIED.);
#364=EDGE_CURVE('',#296,#356,#363,.T.);
#365=ORIENTED_EDGE('',*,*,#364,.T.);
#366=CARTESIAN_POINT('',(0.485742582609746,1.414301706915194,-0.874256927552651));
#367=VERTEX_POINT('',#366);
#368=CARTESIAN_POINT('',(2.118015493767828,0.507483422938483,-2.506529838710732));
#369=DIRECTION('',(-0.658145181714418,0.365636212063565,0.658145181714418));
#370=VECTOR('',#369,2.480110705826542);
#371=LINE('',#368,#370);
#372=EDGE_CURVE('',#356,#367,#371,.T.);
#373=ORIENTED_EDGE('',*,*,#372,.T.);
#374=CARTESIAN_POINT('',(0.485742582609747,1.414301706915194,-0.874256927552649));
#375=CARTESIAN_POINT('',(0.554500158940303,1.436355709805902,-0.834559722349376));
#376=CARTESIAN_POINT('',(0.633194794714120,1.461597025999120,-0.789125353201582));
#377=CARTESIAN_POINT('',(0.830873197821076,1.438403778988291,-0.674995673954806));
#378=CARTESIAN_POINT('',(0.909588381129290,1.394673121594839,-0.629549441682500));
#379=CARTESIAN_POINT('',(0.978359032528009,1.356467204151106,-0.589844687585104));
#380=B_SPLINE_CURVE_WITH_KNOTS('',3,(#374,#375,#376,#377,#378,#379),.UNSPECIFIED.,.F.,.U.,(4,2,4),(0.0,0.024720166469051,0.049447765497548),.UNSPECIFIED.);
#381=EDGE_CURVE('',#367,#305,#380,.T.);
#382=ORIENTED_EDGE('',*,*,#381,.T.);
#383=ORIENTED_EDGE('',*,*,#310,.T.);
#384=EDGE_LOOP('',(#365,#373,#382,#383));
#385=FACE_OUTER_BOUND('',#384,.T.);
#386=ADVANCED_FACE('',(#385),#354,.T.);
#387=CARTESIAN_POINT('',(-8.673617E-017,0.500000000000001,-1.154700538379252));
#388=DIRECTION('',(0.500000000000000,9.912706E-017,-0.866025403784439));
#389=DIRECTION('',(-0.866025403784439,0.0,-0.500000000000000));
#390=AXIS2_PLACEMENT_3D('',#387,#388,#389);
#391=PLANE('',#390);
#392=ORIENTED_EDGE('',*,*,#381,.F.);
#393=CARTESIAN_POINT('',(-2.371119E-016,1.258499700900416,-1.154700538379252));
#394=VERTEX_POINT('',#393);
#395=CARTESIAN_POINT('',(-2.220446E-016,1.258499700900416,-1.154700538379252));
#396=DIRECTION('',(0.834430986740808,0.267643863786094,0.481758954814970));
#397=VECTOR('',#396,0.582124334220857);
#398=LINE('',#395,#397);
#399=EDGE_CURVE('',#394,#367,#398,.T.);
#400=ORIENTED_EDGE('',*,*,#399,.F.);
#401=CARTESIAN_POINT('',(-8.673617E-017,0.500000000000001,-1.154700538379252));
#402=VERTEX_POINT('',#401);
#403=CARTESIAN_POINT('',(-8.673617E-017,0.500000000000001,-1.154700538379252));
#404=DIRECTION('',(0.0,1.0,0.0));
#405=VECTOR('',#404,0.758499700900415);
#406=LINE('',#403,#405);
#407=EDGE_CURVE('',#402,#394,#406,.T.);
#408=ORIENTED_EDGE('',*,*,#407,.F.);
#409=CARTESIAN_POINT('',(1.000000000000000,0.500000000000001,-0.577350269189626));
#410=VERTEX_POINT('',#409);
#411=CARTESIAN_POINT('',(1.000000000000000,0.500000000000001,-0.577350269189626));
#412=DIRECTION('',(-0.866025403784438,-1.922963E-016,-0.500000000000000));
#413=VECTOR('',#412,1.154700538379252);
#414=LINE('',#411,#413);
#415=EDGE_CURVE('',#410,#402,#414,.T.);
#416=ORIENTED_EDGE('',*,*,#415,.F.);
#417=CARTESIAN_POINT('',(1.000000000000000,0.500000000000001,-0.577350269189626));
#418=DIRECTION('',(0.0,1.0,0.0));
#419=VECTOR('',#418,0.844444444444444);
#420=LINE('',#417,#419);
#421=EDGE_CURVE('',#410,#313,#420,.T.);
#422=ORIENTED_EDGE('',*,*,#421,.T.);
#423=ORIENTED_EDGE('',*,*,#318,.F.);
#424=EDGE_LOOP('',(#392,#400,#408,#416,#422,#423));
#425=FACE_OUTER_BOUND('',#424,.T.);
#426=ADVANCED_FACE('',(#425),#391,.F.);
#427=CARTESIAN_POINT('',(-2.512591886998041,0.504115618334423,-2.124077542055135));
#428=CARTESIAN_POINT('',(-1.966480233849577,0.807510981194680,-1.577965888906672));
#429=CARTESIAN_POINT('',(-1.420368580701114,1.110906344054937,-1.031854235758209));
#430=CARTESIAN_POINT('',(-0.874256927552651,1.414301706915194,-0.485742582609746));
#431=CARTESIAN_POINT('',(-2.481861021750236,0.521188321249870,-2.164293242255966));
#432=CARTESIAN_POINT('',(-1.935749368601772,0.824583684110127,-1.618181589107502));
#433=CARTESIAN_POINT('',(-1.389637715453310,1.127979046970384,-1.072069935959040));
#434=CARTESIAN_POINT('',(-0.843526062304846,1.431374409830641,-0.525958282810576));
#435=CARTESIAN_POINT('',(-2.419935409700439,0.554263579461234,-2.244593997756522));
#436=CARTESIAN_POINT('',(-1.873823756551976,0.857658942321491,-1.698482344608059));
#437=CARTESIAN_POINT('',(-1.327712103403511,1.161054305181750,-1.152370691459595));
#438=CARTESIAN_POINT('',(-0.781600450255048,1.464449668042007,-0.606259038311132));
#439=CARTESIAN_POINT('',(-2.286785347098681,0.568720206334431,-2.385775519732279));
#440=CARTESIAN_POINT('',(-1.740673693950217,0.872115569194688,-1.839663866583815));
#441=CARTESIAN_POINT('',(-1.194562040801754,1.175510932054945,-1.293552213435352));
#442=CARTESIAN_POINT('',(-0.648450387653290,1.478906294915202,-0.747440560286889));
#443=CARTESIAN_POINT('',(-2.184401092356382,0.529724672707593,-2.466495589126333));
#444=CARTESIAN_POINT('',(-1.638289439207919,0.833120035567851,-1.920383935977870));
#445=CARTESIAN_POINT('',(-1.092177786059456,1.136515398428110,-1.374272282829407));
#446=CARTESIAN_POINT('',(-0.546066132910992,1.439910761288368,-0.828160629680945));
#447=CARTESIAN_POINT('',(-2.124077542055137,0.504115618334422,-2.512591886998039));
#448=CARTESIAN_POINT('',(-1.577965888906673,0.807510981194679,-1.966480233849576));
#449=CARTESIAN_POINT('',(-1.031854235758210,1.110906344054941,-1.420368580701115));
#450=CARTESIAN_POINT('',(-0.485742582609747,1.414301706915198,-0.874256927552651));
#451=B_SPLINE_SURFACE_WITH_KNOTS('',3,3,((#427,#431,#435,#439,#443,#447),(#428,#432,#436,#440,#444,#448),(#429,#433,#437,#441,#445,#449),(#430,#434,#438,#442,#446,#450)),.UNSPECIFIED.,.F.,.F.,.U.,(4,4),(4,1,1,4),(-0.123654121300051,0.125278029988766),(0.0,0.285714285714286,0.571428571428571,1.0),.UNSPECIFIED.);
#452=CARTESIAN_POINT('',(-0.978359032528009,1.356467204151106,-0.589844687585104));
#453=VERTEX_POINT('',#452);
#454=CARTESIAN_POINT('',(-0.485742582609745,1.414301706915194,-0.874256927552651));
#455=VERTEX_POINT('',#454);
#456=CARTESIAN_POINT('',(-0.978359032528009,1.356467204151106,-0.589844687585104));
#457=CARTESIAN_POINT('',(-0.909622118947302,1.394654378362610,-0.629529963144189));
#458=CARTESIAN_POINT('',(-0.830959939375681,1.438355589235733,-0.674945593694907));
#459=CARTESIAN_POINT('',(-0.633281530848968,1.461624846627345,-0.789075276070781));
#460=CARTESIAN_POINT('',(-0.554533882673788,1.436366526698464,-0.834540251942772));
#461=CARTESIAN_POINT('',(-0.485742582609747,1.414301706915199,-0.874256927552651));
#462=B_SPLINE_CURVE_WITH_KNOTS('',3,(#456,#457,#458,#459,#460,#461),.UNSPECIFIED.,.F.,.U.,(4,2,4),(0.0,0.026423758614466,0.052880579663715),.UNSPECIFIED.);
#463=EDGE_CURVE('',#453,#455,#462,.T.);
#464=ORIENTED_EDGE('',*,*,#463,.T.);
#465=CARTESIAN_POINT('',(-2.118015493767827,0.507483422938483,-2.506529838710732));
#466=VERTEX_POINT('',#465);
#467=CARTESIAN_POINT('',(-0.485742582609745,1.414301706915194,-0.874256927552651));
#468=DIRECTION('',(-0.658145181714418,-0.365636212063565,-0.658145181714418));
#469=VECTOR('',#468,2.480110705826542);
#470=LINE('',#467,#469);
#471=EDGE_CURVE('',#455,#466,#470,.T.);
#472=ORIENTED_EDGE('',*,*,#471,.T.);
#473=CARTESIAN_POINT('',(-2.506529838710732,0.507483422938483,-2.118015493767827));
#474=VERTEX_POINT('',#473);
#475=CARTESIAN_POINT('',(-2.118015493767827,0.507483422938483,-2.506529838710732));
#476=CARTESIAN_POINT('',(-2.177974479026720,0.528544789055282,-2.468619379700494));
#477=CARTESIAN_POINT('',(-2.252709305358812,0.560090602940019,-2.415057082685850));
#478=CARTESIAN_POINT('',(-2.415054551868062,0.560092178236994,-2.252712966019875));
#479=CARTESIAN_POINT('',(-2.468618591934318,0.528545226703158,-2.177975724953616));
#480=CARTESIAN_POINT('',(-2.506529838710732,0.507483422938483,-2.118015493767827));
#481=B_SPLINE_CURVE_WITH_KNOTS('',3,(#475,#476,#477,#478,#479,#480),.UNSPECIFIED.,.F.,.U.,(4,2,4),(0.0,0.022199724238184,0.044400284185567),.UNSPECIFIED.);
#482=EDGE_CURVE('',#466,#474,#481,.T.);
#483=ORIENTED_EDGE('',*,*,#482,.T.);
#484=CARTESIAN_POINT('',(-2.506529838710733,0.507483422938483,-2.118015493767827));
#485=DIRECTION('',(0.658145181714418,0.365636212063565,0.658145181714418));
#486=VECTOR('',#485,2.321935719717579);
#487=LINE('',#484,#486);
#488=EDGE_CURVE('',#474,#453,#487,.T.);
#489=ORIENTED_EDGE('',*,*,#488,.T.);
#490=EDGE_LOOP('',(#464,#472,#483,#489));
#491=FACE_OUTER_BOUND('',#490,.T.);
#492=ADVANCED_FACE('',(#491),#451,.T.);
#493=CARTESIAN_POINT('',(-1.0,0.500000000000000,-0.577350269189626));
#494=DIRECTION('',(-0.500000000000000,-9.912706E-017,-0.866025403784439));
#495=DIRECTION('',(-0.866025403784439,0.0,0.500000000000000));
#496=AXIS2_PLACEMENT_3D('',#493,#494,#495);
#497=PLANE('',#496);
#498=ORIENTED_EDGE('',*,*,#463,.F.);
#499=CARTESIAN_POINT('',(-1.000000000000000,1.344444444444445,-0.577350269189626));
#500=VERTEX_POINT('',#499);
#501=CARTESIAN_POINT('',(-1.000000000000000,1.344444444444445,-0.577350269189626));
#502=DIRECTION('',(0.780398972571708,0.433554984762062,-0.450563556889581));
#503=VECTOR('',#502,0.027730645775552);
#504=LINE('',#501,#503);
#505=EDGE_CURVE('',#500,#453,#504,.T.);
#506=ORIENTED_EDGE('',*,*,#505,.F.);
#507=CARTESIAN_POINT('',(-1.0,0.500000000000000,-0.577350269189626));
#508=VERTEX_POINT('',#507);
#509=CARTESIAN_POINT('',(-1.0,0.500000000000000,-0.577350269189626));
#510=DIRECTION('',(0.0,1.0,0.0));
#511=VECTOR('',#510,0.844444444444444);
#512=LINE('',#509,#511);
#513=EDGE_CURVE('',#508,#500,#512,.T.);
#514=ORIENTED_EDGE('',*,*,#513,.F.);
#515=CARTESIAN_POINT('',(-8.673617E-017,0.500000000000001,-1.154700538379252));
#516=DIRECTION('',(-0.866025403784438,-1.922963E-016,0.500000000000000));
#517=VECTOR('',#516,1.154700538379252);
#518=LINE('',#515,#517);
#519=EDGE_CURVE('',#402,#508,#518,.T.);
#520=ORIENTED_EDGE('',*,*,#519,.F.);
#521=ORIENTED_EDGE('',*,*,#407,.T.);
#522=CARTESIAN_POINT('',(-0.485742582609745,1.414301706915194,-0.874256927552651));
#523=DIRECTION('',(0.834430986740808,-0.267643863786095,-0.481758954814971));
#524=VECTOR('',#523,0.582124334220857);
#525=LINE('',#522,#524);
#526=EDGE_CURVE('',#455,#394,#525,.T.);
#527=ORIENTED_EDGE('',*,*,#526,.F.);
#528=EDGE_LOOP('',(#498,#506,#514,#520,#521,#527));
#529=FACE_OUTER_BOUND('',#528,.T.);
#530=ADVANCED_FACE('',(#529),#497,.F.);
#531=CARTESIAN_POINT('',(-2.700000000000000,0.400000000000001,-1.653273E-016));
#532=DIRECTION('',(0.485642931178632,-0.874157276121538,2.973705E-017));
#533=DIRECTION('',(-0.874157276121538,-0.485642931178632,-5.352670E-017));
#534=AXIS2_PLACEMENT_3D('',#531,#532,#533);
#535=PLANE('',#534);
#536=ORIENTED_EDGE('',*,*,#488,.F.);
#537=CARTESIAN_POINT('',(-2.700000000000000,0.400000000000001,-1.450000000000000));
#538=VERTEX_POINT('',#537);
#539=CARTESIAN_POINT('',(-1.450000000000000,1.094444444444445,-1.450000000000000));
#540=DIRECTION('',(0.485642931178632,-0.874157276121538,2.973705E-017));
#541=DIRECTION('',(0.874157276121538,0.485642931178632,5.352670E-017));
#542=AXIS2_PLACEMENT_3D('',#539,#540,#541);
#543=ELLIPSE('',#542,1.429948630692639,1.250000000000000);
#544=EDGE_CURVE('',#538,#474,#543,.T.);
#545=ORIENTED_EDGE('',*,*,#544,.F.);
#546=CARTESIAN_POINT('',(-2.649999999999999,0.427777777777779,-0.100000000000000));
#547=VERTEX_POINT('',#546);
#548=CARTESIAN_POINT('',(15.549999999999986,10.538888888888870,-1.449999999999999));
#549=DIRECTION('',(0.485642931178632,-0.874157276121538,2.973705E-017));
#550=DIRECTION('',(0.874157276121538,0.485642931178632,5.352670E-017));
#551=AXIS2_PLACEMENT_3D('',#548,#549,#550);
#552=ELLIPSE('',#551,20.877250008112505,18.249999999999986);
#553=EDGE_CURVE('',#547,#538,#552,.T.);
#554=ORIENTED_EDGE('',*,*,#553,.F.);
#555=CARTESIAN_POINT('',(-2.600000000000000,0.455555555555557,-0.100000000000000));
#556=VERTEX_POINT('',#555);
#557=CARTESIAN_POINT('',(-2.600000000000000,0.455555555555556,-0.100000000000000));
#558=DIRECTION('',(-0.874157276121538,-0.485642931178631,0.0));
#559=VECTOR('',#558,0.057197945227704);
#560=LINE('',#557,#559);
#561=EDGE_CURVE('',#556,#547,#560,.T.);
#562=ORIENTED_EDGE('',*,*,#561,.F.);
#563=CARTESIAN_POINT('',(-2.600000000000000,0.455555555555557,0.100000000000000));
#564=VERTEX_POINT('',#563);
#565=CARTESIAN_POINT('',(-2.600000000000000,0.455555555555557,0.100000000000000));
#566=DIRECTION('',(0.0,0.0,-1.0));
#567=VECTOR('',#566,0.200000000000000);
#568=LINE('',#565,#567);
#569=EDGE_CURVE('',#564,#556,#568,.T.);
#570=ORIENTED_EDGE('',*,*,#569,.F.);
#571=CARTESIAN_POINT('',(-2.649999999999999,0.427777777777779,0.100000000000000));
#572=VERTEX_POINT('',#571);
#573=CARTESIAN_POINT('',(-2.649999999999999,0.427777777777779,0.100000000000000));
#574=DIRECTION('',(0.874157276121538,0.485642931178631,0.0));
#575=VECTOR('',#574,0.057197945227704);
#576=LINE('',#573,#575);
#577=EDGE_CURVE('',#572,#564,#576,.T.);
#578=ORIENTED_EDGE('',*,*,#577,.F.);
#579=CARTESIAN_POINT('',(-2.700000000000000,0.400000000000001,1.450000000000000));
#580=VERTEX_POINT('',#579);
#581=CARTESIAN_POINT('',(15.549999999999377,10.538888888888531,1.449999999999987));
#582=DIRECTION('',(0.485642931178632,-0.874157276121538,2.973705E-017));
#583=DIRECTION('',(0.874157276121538,0.485642931178632,2.658930E-017));
#584=AXIS2_PLACEMENT_3D('',#581,#582,#583);
#585=ELLIPSE('',#584,20.877250008111812,18.249999999999382);
#586=EDGE_CURVE('',#580,#572,#585,.T.);
#587=ORIENTED_EDGE('',*,*,#586,.F.);
#588=CARTESIAN_POINT('',(-2.506529838710733,0.507483422938483,2.118015493767827));
#589=VERTEX_POINT('',#588);
#590=CARTESIAN_POINT('',(-1.450000000000000,1.094444444444445,1.450000000000000));
#591=DIRECTION('',(0.485642931178632,-0.874157276121538,2.973705E-017));
#592=DIRECTION('',(0.874157276121538,0.485642931178632,1.070534E-016));
#593=AXIS2_PLACEMENT_3D('',#590,#591,#592);
#594=ELLIPSE('',#593,1.429948630692639,1.250000000000000);
#595=EDGE_CURVE('',#589,#580,#594,.T.);
#596=ORIENTED_EDGE('',*,*,#595,.F.);
#597=CARTESIAN_POINT('',(-0.978359032528009,1.356467204151106,0.589844687585104));
#598=VERTEX_POINT('',#597);
#599=CARTESIAN_POINT('',(-0.978359032528009,1.356467204151106,0.589844687585103));
#600=DIRECTION('',(-0.658145181714418,-0.365636212063565,0.658145181714418));
#601=VECTOR('',#600,2.321935719717580);
#602=LINE('',#599,#601);
#603=EDGE_CURVE('',#598,#589,#602,.T.);
#604=ORIENTED_EDGE('',*,*,#603,.F.);
#605=CARTESIAN_POINT('',(-1.0,1.344444444444445,0.577350269189626));
#606=VERTEX_POINT('',#605);
#607=CARTESIAN_POINT('',(-0.978359032528009,1.356467204151106,0.589844687585104));
#608=DIRECTION('',(-0.780398972571707,-0.433554984762061,-0.450563556889584));
#609=VECTOR('',#608,0.027730645775552);
#610=LINE('',#607,#609);
#611=EDGE_CURVE('',#598,#606,#610,.T.);
#612=ORIENTED_EDGE('',*,*,#611,.T.);
#613=CARTESIAN_POINT('',(-1.000000000000000,1.344444444444445,0.577350269189626));
#614=DIRECTION('',(0.0,0.0,-1.0));
#615=VECTOR('',#614,1.154700538379252);
#616=LINE('',#613,#615);
#617=EDGE_CURVE('',#606,#500,#616,.T.);
#618=ORIENTED_EDGE('',*,*,#617,.T.);
#619=ORIENTED_EDGE('',*,*,#505,.T.);
#620=EDGE_LOOP('',(#536,#545,#554,#562,#570,#578,#587,#596,#604,#612,#618,#619));
#621=FACE_OUTER_BOUND('',#620,.T.);
#622=ADVANCED_FACE('',(#621),#535,.F.);
#623=CARTESIAN_POINT('',(-0.874256927552650,1.414301706915194,0.485742582609745));
#624=CARTESIAN_POINT('',(-1.420368579514788,1.110906344714007,1.031854234571882));
#625=CARTESIAN_POINT('',(-1.966480231476925,0.807510982512820,1.577965886534020));
#626=CARTESIAN_POINT('',(-2.512591883439063,0.504115620311633,2.124077538496157));
#627=CARTESIAN_POINT('',(-0.843526062304846,1.431374409830641,0.525958282810575));
#628=CARTESIAN_POINT('',(-1.389637714266984,1.127979047629454,1.072069934772714));
#629=CARTESIAN_POINT('',(-1.935749366229120,0.824583685428267,1.618181586734849));
#630=CARTESIAN_POINT('',(-2.481861018191258,0.521188323227080,2.164293238696988));
#631=CARTESIAN_POINT('',(-0.781600450255058,1.464449668042043,0.606259038311141));
#632=CARTESIAN_POINT('',(-1.327712102217195,1.161054305840856,1.152370690273278));
#633=CARTESIAN_POINT('',(-1.873823754179332,0.857658943639668,1.698482342235418));
#634=CARTESIAN_POINT('',(-2.419935406141470,0.554263581438480,2.244593994197554));
#635=CARTESIAN_POINT('',(-0.648450387653211,1.478906294915314,0.747440560287028));
#636=CARTESIAN_POINT('',(-1.194562039615349,1.175510932714128,1.293552212249165));
#637=CARTESIAN_POINT('',(-1.740673691577486,0.872115570512939,1.839663864211302));
#638=CARTESIAN_POINT('',(-2.286785343539624,0.568720208311752,2.385775516173440));
#639=CARTESIAN_POINT('',(-0.546066132910992,1.439910761288368,0.828160629680944));
#640=CARTESIAN_POINT('',(-1.092177784873129,1.136515399087181,1.374272281643081));
#641=CARTESIAN_POINT('',(-1.638289436835263,0.833120036885988,1.920383933605219));
#642=CARTESIAN_POINT('',(-2.184401088797401,0.529724674684801,2.466495585567356));
#643=CARTESIAN_POINT('',(-0.485742582609747,1.414301706915199,0.874256927552650));
#644=CARTESIAN_POINT('',(-1.031854234571884,1.110906344714012,1.420368579514788));
#645=CARTESIAN_POINT('',(-1.577965886534017,0.807510982512816,1.966480231476926));
#646=CARTESIAN_POINT('',(-2.124077538496154,0.504115620311629,2.512591883439063));
#647=B_SPLINE_SURFACE_WITH_KNOTS('',3,3,((#623,#627,#631,#635,#639,#643),(#624,#628,#632,#636,#640,#644),(#625,#629,#633,#637,#641,#645),(#626,#630,#634,#638,#642,#646)),.UNSPECIFIED.,.F.,.F.,.U.,(4,4),(4,1,1,4),(-0.125278029988766,0.123654120759292),(0.0,0.285714285714286,0.571428571428571,1.0),.UNSPECIFIED.);
#648=CARTESIAN_POINT('',(-2.118015493767827,0.507483422938483,2.506529838710732));
#649=VERTEX_POINT('',#648);
#650=CARTESIAN_POINT('',(-2.506529838710732,0.507483422938483,2.118015493767827));
#651=CARTESIAN_POINT('',(-2.468619354285405,0.528544803174777,2.177974519223094));
#652=CARTESIAN_POINT('',(-2.415057001036789,0.560090653762115,2.252709423458779));
#653=CARTESIAN_POINT('',(-2.252712847920030,0.560092127414921,2.415054633517017));
#654=CARTESIAN_POINT('',(-2.177975684758035,0.528545212583941,2.468618617348907));
#655=CARTESIAN_POINT('',(-2.118015493767830,0.507483422938482,2.506529838710732));
#656=B_SPLINE_CURVE_WITH_KNOTS('',3,(#650,#651,#652,#653,#654,#655),.UNSPECIFIED.,.F.,.U.,(4,2,4),(0.0,0.022199739120831,0.044400260027292),.UNSPECIFIED.);
#657=EDGE_CURVE('',#589,#649,#656,.T.);
#658=ORIENTED_EDGE('',*,*,#657,.T.);
#659=CARTESIAN_POINT('',(-0.485742582609746,1.414301706915194,0.874256927552651));
#660=VERTEX_POINT('',#659);
#661=CARTESIAN_POINT('',(-2.118015493767827,0.507483422938483,2.506529838710732));
#662=DIRECTION('',(0.658145181714418,0.365636212063565,-0.658145181714418));
#663=VECTOR('',#662,2.480110705826542);
#664=LINE('',#661,#663);
#665=EDGE_CURVE('',#649,#660,#664,.T.);
#666=ORIENTED_EDGE('',*,*,#665,.T.);
#667=CARTESIAN_POINT('',(-0.485742582609745,1.414301706915193,0.874256927552652));
#668=CARTESIAN_POINT('',(-0.554500580731080,1.436355845095356,0.834559478828359));
#669=CARTESIAN_POINT('',(-0.633195879233106,1.461597373858746,0.789124727054255));
#670=CARTESIAN_POINT('',(-0.830874282298551,1.438403176500805,0.674995047831444));
#671=CARTESIAN_POINT('',(-0.909588802812103,1.394672887326609,0.629549198223815));
#672=CARTESIAN_POINT('',(-0.978359032528009,1.356467204151106,0.589844687585104));
#673=B_SPLINE_CURVE_WITH_KNOTS('',3,(#667,#668,#669,#670,#671,#672),.UNSPECIFIED.,.F.,.U.,(4,2,4),(0.0,0.024720318113987,0.049447589287714),.UNSPECIFIED.);
#674=EDGE_CURVE('',#660,#598,#673,.T.);
#675=ORIENTED_EDGE('',*,*,#674,.T.);
#676=ORIENTED_EDGE('',*,*,#603,.T.);
#677=EDGE_LOOP('',(#658,#666,#675,#676));
#678=FACE_OUTER_BOUND('',#677,.T.);
#679=ADVANCED_FACE('',(#678),#647,.T.);
#680=CARTESIAN_POINT('',(-3.642919E-016,0.500000000000001,1.154700538379252));
#681=DIRECTION('',(-0.500000000000000,-9.912706E-017,0.866025403784439));
#682=DIRECTION('',(0.866025403784439,0.0,0.500000000000000));
#683=AXIS2_PLACEMENT_3D('',#680,#681,#682);
#684=PLANE('',#683);
#685=ORIENTED_EDGE('',*,*,#674,.F.);
#686=CARTESIAN_POINT('',(-4.440892E-016,1.258499700900416,1.154700538379251));
#687=DIRECTION('',(-0.834430986740808,0.267643863786095,-0.481758954814971));
#688=VECTOR('',#687,0.582124334220857);
#689=LINE('',#686,#688);
#690=EDGE_CURVE('',#222,#660,#689,.T.);
#691=ORIENTED_EDGE('',*,*,#690,.F.);
#692=ORIENTED_EDGE('',*,*,#227,.F.);
#693=CARTESIAN_POINT('',(-1.000000000000000,0.500000000000000,0.577350269189626));
#694=VERTEX_POINT('',#693);
#695=CARTESIAN_POINT('',(-1.000000000000000,0.500000000000000,0.577350269189626));
#696=DIRECTION('',(0.866025403784439,1.922963E-016,0.500000000000000));
#697=VECTOR('',#696,1.154700538379251);
#698=LINE('',#695,#697);
#699=EDGE_CURVE('',#694,#214,#698,.T.);
#700=ORIENTED_EDGE('',*,*,#699,.F.);
#701=CARTESIAN_POINT('',(-1.000000000000000,0.500000000000000,0.577350269189626));
#702=DIRECTION('',(0.0,1.0,0.0));
#703=VECTOR('',#702,0.844444444444444);
#704=LINE('',#701,#703);
#705=EDGE_CURVE('',#694,#606,#704,.T.);
#706=ORIENTED_EDGE('',*,*,#705,.T.);
#707=ORIENTED_EDGE('',*,*,#611,.F.);
#708=EDGE_LOOP('',(#685,#691,#692,#700,#706,#707));
#709=FACE_OUTER_BOUND('',#708,.T.);
#710=ADVANCED_FACE('',(#709),#684,.F.);
#711=CARTESIAN_POINT('',(1.000000000000000,0.500000000000001,-0.577350269189626));
#712=DIRECTION('',(1.0,0.0,0.0));
#713=DIRECTION('',(0.0,0.0,-1.0));
#714=AXIS2_PLACEMENT_3D('',#711,#712,#713);
#715=PLANE('',#714);
#716=ORIENTED_EDGE('',*,*,#324,.F.);
#717=ORIENTED_EDGE('',*,*,#421,.F.);
#718=CARTESIAN_POINT('',(1.000000000000000,0.500000000000001,0.577350269189626));
#719=DIRECTION('',(0.0,0.0,-1.0));
#720=VECTOR('',#719,1.154700538379252);
#721=LINE('',#718,#720);
#722=EDGE_CURVE('',#206,#410,#721,.T.);
#723=ORIENTED_EDGE('',*,*,#722,.F.);
#724=ORIENTED_EDGE('',*,*,#211,.T.);
#725=EDGE_LOOP('',(#716,#717,#723,#724));
#726=FACE_OUTER_BOUND('',#725,.T.);
#727=ADVANCED_FACE('',(#726),#715,.F.);
#728=CARTESIAN_POINT('',(-1.000000000000000,0.500000000000000,0.577350269189626));
#729=DIRECTION('',(-1.0,0.0,0.0));
#730=DIRECTION('',(0.0,0.0,1.0));
#731=AXIS2_PLACEMENT_3D('',#728,#729,#730);
#732=PLANE('',#731);
#733=ORIENTED_EDGE('',*,*,#617,.F.);
#734=ORIENTED_EDGE('',*,*,#705,.F.);
#735=CARTESIAN_POINT('',(-1.0,0.500000000000000,-0.577350269189626));
#736=DIRECTION('',(0.0,0.0,1.0));
#737=VECTOR('',#736,1.154700538379252);
#738=LINE('',#735,#737);
#739=EDGE_CURVE('',#508,#694,#738,.T.);
#740=ORIENTED_EDGE('',*,*,#739,.F.);
#741=ORIENTED_EDGE('',*,*,#513,.T.);
#742=EDGE_LOOP('',(#733,#734,#740,#741));
#743=FACE_OUTER_BOUND('',#742,.T.);
#744=ADVANCED_FACE('',(#743),#732,.F.);
#745=CARTESIAN_POINT('',(1.908196E-016,0.500000000000001,-1.734723E-016));
#746=DIRECTION('',(0.0,1.0,0.0));
#747=DIRECTION('',(0.0,0.0,1.0));
#748=AXIS2_PLACEMENT_3D('',#745,#746,#747);
#749=PLANE('',#748);
#750=ORIENTED_EDGE('',*,*,#739,.T.);
#751=ORIENTED_EDGE('',*,*,#699,.T.);
#752=ORIENTED_EDGE('',*,*,#219,.T.);
#753=ORIENTED_EDGE('',*,*,#722,.T.);
#754=ORIENTED_EDGE('',*,*,#415,.T.);
#755=ORIENTED_EDGE('',*,*,#519,.T.);
#756=EDGE_LOOP('',(#750,#751,#752,#753,#754,#755));
#757=FACE_OUTER_BOUND('',#756,.T.);
#758=ADVANCED_FACE('',(#757),#749,.T.);
#759=CARTESIAN_POINT('',(-3.306546E-016,0.400000000000001,2.700000000000000));
#760=DIRECTION('',(5.947411E-017,-0.874157276121538,-0.485642931178632));
#761=DIRECTION('',(-1.070534E-016,-0.485642931178632,0.874157276121538));
#762=AXIS2_PLACEMENT_3D('',#759,#760,#761);
#763=PLANE('',#762);
#764=ORIENTED_EDGE('',*,*,#186,.F.);
#765=ORIENTED_EDGE('',*,*,#233,.T.);
#766=ORIENTED_EDGE('',*,*,#690,.T.);
#767=ORIENTED_EDGE('',*,*,#665,.F.);
#768=CARTESIAN_POINT('',(-1.450000000000001,0.400000000000001,2.700000000000000));
#769=VERTEX_POINT('',#768);
#770=CARTESIAN_POINT('',(-1.450000000000000,1.094444444444445,1.450000000000000));
#771=DIRECTION('',(5.947411E-017,-0.874157276121538,-0.485642931178632));
#772=DIRECTION('',(1.070534E-016,0.485642931178632,-0.874157276121538));
#773=AXIS2_PLACEMENT_3D('',#770,#771,#772);
#774=ELLIPSE('',#773,1.429948630692639,1.250000000000000);
#775=EDGE_CURVE('',#769,#649,#774,.T.);
#776=ORIENTED_EDGE('',*,*,#775,.F.);
#777=CARTESIAN_POINT('',(-0.100000000000000,0.427777777777779,2.649999999999999));
#778=VERTEX_POINT('',#777);
#779=CARTESIAN_POINT('',(-1.449999999999998,10.538888888888870,-15.549999999999986));
#780=DIRECTION('',(5.947411E-017,-0.874157276121538,-0.485642931178632));
#781=DIRECTION('',(1.070534E-016,0.485642931178632,-0.874157276121538));
#782=AXIS2_PLACEMENT_3D('',#779,#780,#781);
#783=ELLIPSE('',#782,20.877250008112505,18.249999999999986);
#784=EDGE_CURVE('',#778,#769,#783,.T.);
#785=ORIENTED_EDGE('',*,*,#784,.F.);
#786=CARTESIAN_POINT('',(-0.100000000000000,0.455555555555557,2.600000000000000));
#787=VERTEX_POINT('',#786);
#788=CARTESIAN_POINT('',(-0.100000000000000,0.455555555555556,2.600000000000000));
#789=DIRECTION('',(0.0,-0.485642931178631,0.874157276121538));
#790=VECTOR('',#789,0.057197945227704);
#791=LINE('',#788,#790);
#792=EDGE_CURVE('',#787,#778,#791,.T.);
#793=ORIENTED_EDGE('',*,*,#792,.F.);
#794=CARTESIAN_POINT('',(0.100000000000000,0.455555555555557,2.600000000000000));
#795=VERTEX_POINT('',#794);
#796=CARTESIAN_POINT('',(0.100000000000000,0.455555555555557,2.600000000000000));
#797=DIRECTION('',(-1.0,0.0,0.0));
#798=VECTOR('',#797,0.200000000000000);
#799=LINE('',#796,#798);
#800=EDGE_CURVE('',#795,#787,#799,.T.);
#801=ORIENTED_EDGE('',*,*,#800,.F.);
#802=CARTESIAN_POINT('',(0.100000000000000,0.427777777777779,2.649999999999999));
#803=VERTEX_POINT('',#802);
#804=CARTESIAN_POINT('',(0.100000000000000,0.427777777777779,2.649999999999999));
#805=DIRECTION('',(0.0,0.485642931178631,-0.874157276121538));
#806=VECTOR('',#805,0.057197945227704);
#807=LINE('',#804,#806);
#808=EDGE_CURVE('',#803,#795,#807,.T.);
#809=ORIENTED_EDGE('',*,*,#808,.F.);
#810=CARTESIAN_POINT('',(1.450000000000000,0.400000000000001,2.700000000000000));
#811=VERTEX_POINT('',#810);
#812=CARTESIAN_POINT('',(1.449999999999988,10.538888888888531,-15.549999999999377));
#813=DIRECTION('',(5.947411E-017,-0.874157276121538,-0.485642931178632));
#814=DIRECTION('',(1.063572E-016,0.485642931178632,-0.874157276121538));
#815=AXIS2_PLACEMENT_3D('',#812,#813,#814);
#816=ELLIPSE('',#815,20.877250008111812,18.249999999999382);
#817=EDGE_CURVE('',#811,#803,#816,.T.);
#818=ORIENTED_EDGE('',*,*,#817,.F.);
#819=CARTESIAN_POINT('',(1.450000000000000,1.094444444444445,1.450000000000000));
#820=DIRECTION('',(5.947411E-017,-0.874157276121538,-0.485642931178632));
#821=DIRECTION('',(1.605801E-016,0.485642931178632,-0.874157276121538));
#822=AXIS2_PLACEMENT_3D('',#819,#820,#821);
#823=ELLIPSE('',#822,1.429948630692639,1.250000000000000);
#824=EDGE_CURVE('',#151,#811,#823,.T.);
#825=ORIENTED_EDGE('',*,*,#824,.F.);
#826=EDGE_LOOP('',(#764,#765,#766,#767,#776,#785,#793,#801,#809,#818,#825));
#827=FACE_OUTER_BOUND('',#826,.T.);
#828=ADVANCED_FACE('',(#827),#763,.F.);
#829=CARTESIAN_POINT('',(0.100000000000000,1.899999999999999,2.600000000000000));
#830=DIRECTION('',(1.0,0.0,0.0));
#831=DIRECTION('',(0.0,0.0,-1.0));
#832=AXIS2_PLACEMENT_3D('',#829,#830,#831);
#833=PLANE('',#832);
#834=ORIENTED_EDGE('',*,*,#808,.T.);
#835=CARTESIAN_POINT('',(0.100000000000000,5.551115E-016,2.600000000000000));
#836=VERTEX_POINT('',#835);
#837=CARTESIAN_POINT('',(0.100000000000000,6.661338E-016,2.600000000000000));
#838=DIRECTION('',(0.0,1.0,0.0));
#839=VECTOR('',#838,0.455555555555556);
#840=LINE('',#837,#839);
#841=EDGE_CURVE('',#836,#795,#840,.T.);
#842=ORIENTED_EDGE('',*,*,#841,.F.);
#843=CARTESIAN_POINT('',(0.100000000000000,1.110223E-015,2.650000000000000));
#844=VERTEX_POINT('',#843);
#845=CARTESIAN_POINT('',(0.100000000000000,5.551115E-016,2.650000000000000));
#846=DIRECTION('',(0.0,0.0,-1.0));
#847=VECTOR('',#846,0.050000000000000);
#848=LINE('',#845,#847);
#849=EDGE_CURVE('',#844,#836,#848,.T.);
#850=ORIENTED_EDGE('',*,*,#849,.F.);
#851=CARTESIAN_POINT('',(0.100000000000000,1.110223E-015,2.649999999999999));
#852=DIRECTION('',(0.0,1.0,0.0));
#853=VECTOR('',#852,0.427777777777778);
#854=LINE('',#851,#853);
#855=EDGE_CURVE('',#844,#803,#854,.T.);
#856=ORIENTED_EDGE('',*,*,#855,.T.);
#857=EDGE_LOOP('',(#834,#842,#850,#856));
#858=FACE_OUTER_BOUND('',#857,.T.);
#859=ADVANCED_FACE('',(#858),#833,.F.);
#860=CARTESIAN_POINT('',(-0.100000000000000,1.899999999999999,2.600000000000000));
#861=DIRECTION('',(0.0,0.0,-1.0));
#862=DIRECTION('',(-1.0,0.0,0.0));
#863=AXIS2_PLACEMENT_3D('',#860,#861,#862);
#864=PLANE('',#863);
#865=ORIENTED_EDGE('',*,*,#800,.T.);
#866=CARTESIAN_POINT('',(-0.100000000000000,5.551115E-016,2.600000000000000));
#867=VERTEX_POINT('',#866);
#868=CARTESIAN_POINT('',(-0.100000000000000,6.661338E-016,2.600000000000000));
#869=DIRECTION('',(0.0,1.0,0.0));
#870=VECTOR('',#869,0.455555555555556);
#871=LINE('',#868,#870);
#872=EDGE_CURVE('',#867,#787,#871,.T.);
#873=ORIENTED_EDGE('',*,*,#872,.F.);
#874=CARTESIAN_POINT('',(0.100000000000000,4.734530E-016,2.600000000000000));
#875=DIRECTION('',(-1.0,0.0,0.0));
#876=VECTOR('',#875,0.200000000000000);
#877=LINE('',#874,#876);
#878=EDGE_CURVE('',#836,#867,#877,.T.);
#879=ORIENTED_EDGE('',*,*,#878,.F.);
#880=ORIENTED_EDGE('',*,*,#841,.T.);
#881=EDGE_LOOP('',(#865,#873,#879,#880));
#882=FACE_OUTER_BOUND('',#881,.T.);
#883=ADVANCED_FACE('',(#882),#864,.F.);
#884=CARTESIAN_POINT('',(-0.100000000000000,1.899999999999999,2.700000000000000));
#885=DIRECTION('',(-1.0,0.0,0.0));
#886=DIRECTION('',(0.0,0.0,1.0));
#887=AXIS2_PLACEMENT_3D('',#884,#885,#886);
#888=PLANE('',#887);
#889=ORIENTED_EDGE('',*,*,#792,.T.);
#890=CARTESIAN_POINT('',(-0.100000000000000,5.551115E-016,2.649999999999999));
#891=VERTEX_POINT('',#890);
#892=CARTESIAN_POINT('',(-0.100000000000000,0.427777777777780,2.649999999999999));
#893=DIRECTION('',(0.0,-1.0,0.0));
#894=VECTOR('',#893,0.427777777777779);
#895=LINE('',#892,#894);
#896=EDGE_CURVE('',#778,#891,#895,.T.);
#897=ORIENTED_EDGE('',*,*,#896,.T.);
#898=CARTESIAN_POINT('',(-0.100000000000000,4.163336E-016,2.600000000000000));
#899=DIRECTION('',(0.0,0.0,1.0));
#900=VECTOR('',#899,0.049999999999999);
#901=LINE('',#898,#900);
#902=EDGE_CURVE('',#867,#891,#901,.T.);
#903=ORIENTED_EDGE('',*,*,#902,.F.);
#904=ORIENTED_EDGE('',*,*,#872,.T.);
#905=EDGE_LOOP('',(#889,#897,#903,#904));
#906=FACE_OUTER_BOUND('',#905,.T.);
#907=ADVANCED_FACE('',(#906),#888,.F.);
#908=CARTESIAN_POINT('',(-1.449999999999998,1.899999999999999,-15.549999999999986));
#909=DIRECTION('',(0.0,1.0,0.0));
#910=DIRECTION('',(0.0,0.0,-1.0));
#911=AXIS2_PLACEMENT_3D('',#908,#909,#910);
#912=CYLINDRICAL_SURFACE('',#911,18.249999999999986);
#913=ORIENTED_EDGE('',*,*,#784,.T.);
#914=CARTESIAN_POINT('',(-1.450000000000001,8.326673E-016,2.700000000000000));
#915=VERTEX_POINT('',#914);
#916=CARTESIAN_POINT('',(-1.450000000000000,0.400000000000001,2.700000000000000));
#917=DIRECTION('',(0.0,-1.0,0.0));
#918=VECTOR('',#917,0.400000000000000);
#919=LINE('',#916,#918);
#920=EDGE_CURVE('',#769,#915,#919,.T.);
#921=ORIENTED_EDGE('',*,*,#920,.T.);
#922=CARTESIAN_POINT('',(-1.449999999999998,1.110223E-015,-15.549999999999986));
#923=DIRECTION('',(0.0,-1.0,0.0));
#924=DIRECTION('',(0.0,0.0,-1.0));
#925=AXIS2_PLACEMENT_3D('',#922,#923,#924);
#926=CIRCLE('',#925,18.249999999999986);
#927=EDGE_CURVE('',#891,#915,#926,.T.);
#928=ORIENTED_EDGE('',*,*,#927,.F.);
#929=ORIENTED_EDGE('',*,*,#896,.F.);
#930=EDGE_LOOP('',(#913,#921,#928,#929));
#931=FACE_OUTER_BOUND('',#930,.T.);
#932=ADVANCED_FACE('',(#931),#912,.T.);
#933=CARTESIAN_POINT('',(-1.450000000000000,1.899999999999999,1.450000000000000));
#934=DIRECTION('',(0.0,1.0,0.0));
#935=DIRECTION('',(1.0,0.0,0.0));
#936=AXIS2_PLACEMENT_3D('',#933,#934,#935);
#937=CYLINDRICAL_SURFACE('',#936,1.250000000000000);
#938=ORIENTED_EDGE('',*,*,#657,.F.);
#939=ORIENTED_EDGE('',*,*,#595,.T.);
#940=CARTESIAN_POINT('',(-2.700000000000000,1.110223E-015,1.450000000000000));
#941=VERTEX_POINT('',#940);
#942=CARTESIAN_POINT('',(-2.700000000000000,0.400000000000001,1.450000000000000));
#943=DIRECTION('',(0.0,-1.0,0.0));
#944=VECTOR('',#943,0.400000000000000);
#945=LINE('',#942,#944);
#946=EDGE_CURVE('',#580,#941,#945,.T.);
#947=ORIENTED_EDGE('',*,*,#946,.T.);
#948=CARTESIAN_POINT('',(-1.450000000000000,1.110223E-015,1.450000000000000));
#949=DIRECTION('',(0.0,-1.0,0.0));
#950=DIRECTION('',(1.0,0.0,0.0));
#951=AXIS2_PLACEMENT_3D('',#948,#949,#950);
#952=CIRCLE('',#951,1.250000000000000);
#953=EDGE_CURVE('',#915,#941,#952,.T.);
#954=ORIENTED_EDGE('',*,*,#953,.F.);
#955=ORIENTED_EDGE('',*,*,#920,.F.);
#956=ORIENTED_EDGE('',*,*,#775,.T.);
#957=EDGE_LOOP('',(#938,#939,#947,#954,#955,#956));
#958=FACE_OUTER_BOUND('',#957,.T.);
#959=ADVANCED_FACE('',(#958),#937,.T.);
#960=CARTESIAN_POINT('',(0.0,0.400000000000001,-2.700000000000000));
#961=DIRECTION('',(0.0,-0.874157276121538,0.485642931178632));
#962=DIRECTION('',(0.0,-0.485642931178632,-0.874157276121538));
#963=AXIS2_PLACEMENT_3D('',#960,#961,#962);
#964=PLANE('',#963);
#965=ORIENTED_EDGE('',*,*,#372,.F.);
#966=CARTESIAN_POINT('',(1.450000000000000,0.400000000000001,-2.700000000000000));
#967=VERTEX_POINT('',#966);
#968=CARTESIAN_POINT('',(1.450000000000000,1.094444444444445,-1.450000000000000));
#969=DIRECTION('',(0.0,-0.874157276121538,0.485642931178632));
#970=DIRECTION('',(0.0,0.485642931178632,0.874157276121538));
#971=AXIS2_PLACEMENT_3D('',#968,#969,#970);
#972=ELLIPSE('',#971,1.429948630692639,1.250000000000000);
#973=EDGE_CURVE('',#967,#356,#972,.T.);
#974=ORIENTED_EDGE('',*,*,#973,.F.);
#975=CARTESIAN_POINT('',(0.100000000000000,0.427777777777779,-2.649999999999999));
#976=VERTEX_POINT('',#975);
#977=CARTESIAN_POINT('',(1.450000000000000,10.538888888888870,15.549999999999986));
#978=DIRECTION('',(0.0,-0.874157276121538,0.485642931178632));
#979=DIRECTION('',(0.0,0.485642931178632,0.874157276121538));
#980=AXIS2_PLACEMENT_3D('',#977,#978,#979);
#981=ELLIPSE('',#980,20.877250008112505,18.249999999999986);
#982=EDGE_CURVE('',#976,#967,#981,.T.);
#983=ORIENTED_EDGE('',*,*,#982,.F.);
#984=CARTESIAN_POINT('',(0.100000000000000,0.455555555555557,-2.600000000000000));
#985=VERTEX_POINT('',#984);
#986=CARTESIAN_POINT('',(0.100000000000000,0.455555555555556,-2.600000000000000));
#987=DIRECTION('',(0.0,-0.485642931178631,-0.874157276121538));
#988=VECTOR('',#987,0.057197945227704);
#989=LINE('',#986,#988);
#990=EDGE_CURVE('',#985,#976,#989,.T.);
#991=ORIENTED_EDGE('',*,*,#990,.F.);
#992=CARTESIAN_POINT('',(-0.100000000000000,0.455555555555557,-2.600000000000000));
#993=VERTEX_POINT('',#992);
#994=CARTESIAN_POINT('',(-0.100000000000000,0.455555555555557,-2.600000000000000));
#995=DIRECTION('',(1.0,0.0,0.0));
#996=VECTOR('',#995,0.200000000000000);
#997=LINE('',#994,#996);
#998=EDGE_CURVE('',#993,#985,#997,.T.);
#999=ORIENTED_EDGE('',*,*,#998,.F.);
#1000=CARTESIAN_POINT('',(-0.100000000000000,0.427777777777779,-2.649999999999999));
#1001=VERTEX_POINT('',#1000);
#1002=CARTESIAN_POINT('',(-0.100000000000000,0.427777777777779,-2.649999999999999));
#1003=DIRECTION('',(0.0,0.485642931178631,0.874157276121538));
#1004=VECTOR('',#1003,0.057197945227704);
#1005=LINE('',#1002,#1004);
#1006=EDGE_CURVE('',#1001,#993,#1005,.T.);
#1007=ORIENTED_EDGE('',*,*,#1006,.F.);
#1008=CARTESIAN_POINT('',(-1.450000000000000,0.400000000000001,-2.700000000000000));
#1009=VERTEX_POINT('',#1008);
#1010=CARTESIAN_POINT('',(-1.449999999999986,10.538888888888531,15.549999999999377));
#1011=DIRECTION('',(1.540744E-033,-0.874157276121538,0.485642931178632));
#1012=DIRECTION('',(-2.658930E-017,0.485642931178632,0.874157276121538));
#1013=AXIS2_PLACEMENT_3D('',#1010,#1011,#1012);
#1014=ELLIPSE('',#1013,20.877250008111812,18.249999999999378);
#1015=EDGE_CURVE('',#1009,#1001,#1014,.T.);
#1016=ORIENTED_EDGE('',*,*,#1015,.F.);
#1017=CARTESIAN_POINT('',(-1.450000000000000,1.094444444444445,-1.450000000000000));
#1018=DIRECTION('',(-3.081488E-033,-0.874157276121538,0.485642931178632));
#1019=DIRECTION('',(-5.352670E-017,0.485642931178632,0.874157276121538));
#1020=AXIS2_PLACEMENT_3D('',#1017,#1018,#1019);
#1021=ELLIPSE('',#1020,1.429948630692639,1.250000000000000);
#1022=EDGE_CURVE('',#466,#1009,#1021,.T.);
#1023=ORIENTED_EDGE('',*,*,#1022,.F.);
#1024=ORIENTED_EDGE('',*,*,#471,.F.);
#1025=ORIENTED_EDGE('',*,*,#526,.T.);
#1026=ORIENTED_EDGE('',*,*,#399,.T.);
#1027=EDGE_LOOP('',(#965,#974,#983,#991,#999,#1007,#1016,#1023,#1024,#1025,#1026));
#1028=FACE_OUTER_BOUND('',#1027,.T.);
#1029=ADVANCED_FACE('',(#1028),#964,.F.);
#1030=CARTESIAN_POINT('',(15.549999999999377,1.899999999999999,1.449999999999987));
#1031=DIRECTION('',(0.0,1.0,0.0));
#1032=DIRECTION('',(0.997260273972603,0.0,0.073972602739728));
#1033=AXIS2_PLACEMENT_3D('',#1030,#1031,#1032);
#1034=CYLINDRICAL_SURFACE('',#1033,18.249999999999378);
#1035=ORIENTED_EDGE('',*,*,#586,.T.);
#1036=CARTESIAN_POINT('',(-2.650000000000000,1.110223E-015,0.100000000000000));
#1037=VERTEX_POINT('',#1036);
#1038=CARTESIAN_POINT('',(-2.649999999999999,1.110223E-015,0.100000000000000));
#1039=DIRECTION('',(0.0,1.0,0.0));
#1040=VECTOR('',#1039,0.427777777777778);
#1041=LINE('',#1038,#1040);
#1042=EDGE_CURVE('',#1037,#572,#1041,.T.);
#1043=ORIENTED_EDGE('',*,*,#1042,.F.);
#1044=CARTESIAN_POINT('',(15.549999999999377,1.110223E-015,1.449999999999987));
#1045=DIRECTION('',(0.0,-1.0,0.0));
#1046=DIRECTION('',(0.997260273972603,0.0,0.073972602739728));
#1047=AXIS2_PLACEMENT_3D('',#1044,#1045,#1046);
#1048=CIRCLE('',#1047,18.249999999999378);
#1049=EDGE_CURVE('',#941,#1037,#1048,.T.);
#1050=ORIENTED_EDGE('',*,*,#1049,.F.);
#1051=ORIENTED_EDGE('',*,*,#946,.F.);
#1052=EDGE_LOOP('',(#1035,#1043,#1050,#1051));
#1053=FACE_OUTER_BOUND('',#1052,.T.);
#1054=ADVANCED_FACE('',(#1053),#1034,.T.);
#1055=CARTESIAN_POINT('',(-2.600000000000000,1.899999999999999,0.100000000000000));
#1056=DIRECTION('',(0.0,0.0,1.0));
#1057=DIRECTION('',(1.0,0.0,0.0));
#1058=AXIS2_PLACEMENT_3D('',#1055,#1056,#1057);
#1059=PLANE('',#1058);
#1060=ORIENTED_EDGE('',*,*,#577,.T.);
#1061=CARTESIAN_POINT('',(-2.600000000000000,0.0,0.100000000000000));
#1062=VERTEX_POINT('',#1061);
#1063=CARTESIAN_POINT('',(-2.600000000000000,0.0,0.100000000000000));
#1064=DIRECTION('',(0.0,1.0,0.0));
#1065=VECTOR('',#1064,0.455555555555557);
#1066=LINE('',#1063,#1065);
#1067=EDGE_CURVE('',#1062,#564,#1066,.T.);
#1068=ORIENTED_EDGE('',*,*,#1067,.F.);
#1069=CARTESIAN_POINT('',(-2.650000000000000,-7.964832E-017,0.100000000000000));
#1070=DIRECTION('',(1.0,0.0,0.0));
#1071=VECTOR('',#1070,0.050000000000000);
#1072=LINE('',#1069,#1071);
#1073=EDGE_CURVE('',#1037,#1062,#1072,.T.);
#1074=ORIENTED_EDGE('',*,*,#1073,.F.);
#1075=ORIENTED_EDGE('',*,*,#1042,.T.);
#1076=EDGE_LOOP('',(#1060,#1068,#1074,#1075));
#1077=FACE_OUTER_BOUND('',#1076,.T.);
#1078=ADVANCED_FACE('',(#1077),#1059,.F.);
#1079=CARTESIAN_POINT('',(0.100000000000000,1.899999999999999,-2.600000000000000));
#1080=DIRECTION('',(0.0,0.0,1.0));
#1081=DIRECTION('',(1.0,0.0,0.0));
#1082=AXIS2_PLACEMENT_3D('',#1079,#1080,#1081);
#1083=PLANE('',#1082);
#1084=ORIENTED_EDGE('',*,*,#998,.T.);
#1085=CARTESIAN_POINT('',(0.100000000000000,5.551115E-016,-2.600000000000000));
#1086=VERTEX_POINT('',#1085);
#1087=CARTESIAN_POINT('',(0.100000000000000,6.661338E-016,-2.600000000000000));
#1088=DIRECTION('',(0.0,1.0,0.0));
#1089=VECTOR('',#1088,0.455555555555556);
#1090=LINE('',#1087,#1089);
#1091=EDGE_CURVE('',#1086,#985,#1090,.T.);
#1092=ORIENTED_EDGE('',*,*,#1091,.F.);
#1093=CARTESIAN_POINT('',(-0.100000000000000,5.551115E-016,-2.600000000000000));
#1094=VERTEX_POINT('',#1093);
#1095=CARTESIAN_POINT('',(-0.100000000000000,4.183439E-016,-2.600000000000000));
#1096=DIRECTION('',(1.0,0.0,0.0));
#1097=VECTOR('',#1096,0.200000000000000);
#1098=LINE('',#1095,#1097);
#1099=EDGE_CURVE('',#1094,#1086,#1098,.T.);
#1100=ORIENTED_EDGE('',*,*,#1099,.F.);
#1101=CARTESIAN_POINT('',(-0.100000000000000,6.661338E-016,-2.600000000000000));
#1102=DIRECTION('',(0.0,1.0,0.0));
#1103=VECTOR('',#1102,0.455555555555556);
#1104=LINE('',#1101,#1103);
#1105=EDGE_CURVE('',#1094,#993,#1104,.T.);
#1106=ORIENTED_EDGE('',*,*,#1105,.T.);
#1107=EDGE_LOOP('',(#1084,#1092,#1100,#1106));
#1108=FACE_OUTER_BOUND('',#1107,.T.);
#1109=ADVANCED_FACE('',(#1108),#1083,.F.);
#1110=CARTESIAN_POINT('',(0.100000000000000,1.899999999999999,-2.700000000000000));
#1111=DIRECTION('',(1.0,0.0,0.0));
#1112=DIRECTION('',(0.0,0.0,-1.0));
#1113=AXIS2_PLACEMENT_3D('',#1110,#1111,#1112);
#1114=PLANE('',#1113);
#1115=ORIENTED_EDGE('',*,*,#990,.T.);
#1116=CARTESIAN_POINT('',(0.100000000000000,5.551115E-016,-2.649999999999999));
#1117=VERTEX_POINT('',#1116);
#1118=CARTESIAN_POINT('',(0.100000000000000,0.427777777777780,-2.649999999999999));
#1119=DIRECTION('',(0.0,-1.0,0.0));
#1120=VECTOR('',#1119,0.427777777777779);
#1121=LINE('',#1118,#1120);
#1122=EDGE_CURVE('',#976,#1117,#1121,.T.);
#1123=ORIENTED_EDGE('',*,*,#1122,.T.);
#1124=CARTESIAN_POINT('',(0.100000000000000,5.551115E-016,-2.600000000000000));
#1125=DIRECTION('',(0.0,0.0,-1.0));
#1126=VECTOR('',#1125,0.049999999999999);
#1127=LINE('',#1124,#1126);
#1128=EDGE_CURVE('',#1086,#1117,#1127,.T.);
#1129=ORIENTED_EDGE('',*,*,#1128,.F.);
#1130=ORIENTED_EDGE('',*,*,#1091,.T.);
#1131=EDGE_LOOP('',(#1115,#1123,#1129,#1130));
#1132=FACE_OUTER_BOUND('',#1131,.T.);
#1133=ADVANCED_FACE('',(#1132),#1114,.F.);
#1134=CARTESIAN_POINT('',(1.450000000000000,1.899999999999999,15.549999999999986));
#1135=DIRECTION('',(0.0,1.0,0.0));
#1136=DIRECTION('',(0.0,0.0,1.0));
#1137=AXIS2_PLACEMENT_3D('',#1134,#1135,#1136);
#1138=CYLINDRICAL_SURFACE('',#1137,18.249999999999986);
#1139=ORIENTED_EDGE('',*,*,#982,.T.);
#1140=CARTESIAN_POINT('',(1.450000000000000,8.326673E-016,-2.700000000000000));
#1141=VERTEX_POINT('',#1140);
#1142=CARTESIAN_POINT('',(1.450000000000000,0.400000000000001,-2.700000000000000));
#1143=DIRECTION('',(0.0,-1.0,0.0));
#1144=VECTOR('',#1143,0.400000000000000);
#1145=LINE('',#1142,#1144);
#1146=EDGE_CURVE('',#967,#1141,#1145,.T.);
#1147=ORIENTED_EDGE('',*,*,#1146,.T.);
#1148=CARTESIAN_POINT('',(1.450000000000000,1.110223E-015,15.549999999999986));
#1149=DIRECTION('',(0.0,-1.0,0.0));
#1150=DIRECTION('',(0.0,0.0,1.0));
#1151=AXIS2_PLACEMENT_3D('',#1148,#1149,#1150);
#1152=CIRCLE('',#1151,18.249999999999986);
#1153=EDGE_CURVE('',#1117,#1141,#1152,.T.);
#1154=ORIENTED_EDGE('',*,*,#1153,.F.);
#1155=ORIENTED_EDGE('',*,*,#1122,.F.);
#1156=EDGE_LOOP('',(#1139,#1147,#1154,#1155));
#1157=FACE_OUTER_BOUND('',#1156,.T.);
#1158=ADVANCED_FACE('',(#1157),#1138,.T.);
#1159=CARTESIAN_POINT('',(1.450000000000000,1.899999999999999,-1.450000000000000));
#1160=DIRECTION('',(0.0,1.0,0.0));
#1161=DIRECTION('',(-1.0,0.0,0.0));
#1162=AXIS2_PLACEMENT_3D('',#1159,#1160,#1161);
#1163=CYLINDRICAL_SURFACE('',#1162,1.250000000000000);
#1164=ORIENTED_EDGE('',*,*,#364,.F.);
#1165=ORIENTED_EDGE('',*,*,#302,.T.);
#1166=CARTESIAN_POINT('',(2.700000000000000,1.110223E-015,-1.450000000000000));
#1167=VERTEX_POINT('',#1166);
#1168=CARTESIAN_POINT('',(2.700000000000000,0.400000000000001,-1.450000000000000));
#1169=DIRECTION('',(0.0,-1.0,0.0));
#1170=VECTOR('',#1169,0.400000000000000);
#1171=LINE('',#1168,#1170);
#1172=EDGE_CURVE('',#287,#1167,#1171,.T.);
#1173=ORIENTED_EDGE('',*,*,#1172,.T.);
#1174=CARTESIAN_POINT('',(1.450000000000000,1.110223E-015,-1.450000000000000));
#1175=DIRECTION('',(0.0,-1.0,0.0));
#1176=DIRECTION('',(-1.0,0.0,0.0));
#1177=AXIS2_PLACEMENT_3D('',#1174,#1175,#1176);
#1178=CIRCLE('',#1177,1.250000000000000);
#1179=EDGE_CURVE('',#1141,#1167,#1178,.T.);
#1180=ORIENTED_EDGE('',*,*,#1179,.F.);
#1181=ORIENTED_EDGE('',*,*,#1146,.F.);
#1182=ORIENTED_EDGE('',*,*,#973,.T.);
#1183=EDGE_LOOP('',(#1164,#1165,#1173,#1180,#1181,#1182));
#1184=FACE_OUTER_BOUND('',#1183,.T.);
#1185=ADVANCED_FACE('',(#1184),#1163,.T.);
#1186=CARTESIAN_POINT('',(-15.549999999999377,1.899999999999999,-1.449999999999985));
#1187=DIRECTION('',(0.0,1.0,0.0));
#1188=DIRECTION('',(-0.997260273972603,0.0,-0.073972602739728));
#1189=AXIS2_PLACEMENT_3D('',#1186,#1187,#1188);
#1190=CYLINDRICAL_SURFACE('',#1189,18.249999999999378);
#1191=ORIENTED_EDGE('',*,*,#293,.T.);
#1192=CARTESIAN_POINT('',(2.650000000000000,1.110223E-015,-0.100000000000000));
#1193=VERTEX_POINT('',#1192);
#1194=CARTESIAN_POINT('',(2.649999999999999,1.110223E-015,-0.100000000000000));
#1195=DIRECTION('',(0.0,1.0,0.0));
#1196=VECTOR('',#1195,0.427777777777778);
#1197=LINE('',#1194,#1196);
#1198=EDGE_CURVE('',#1193,#279,#1197,.T.);
#1199=ORIENTED_EDGE('',*,*,#1198,.F.);
#1200=CARTESIAN_POINT('',(-15.549999999999377,1.110223E-015,-1.449999999999985));
#1201=DIRECTION('',(0.0,-1.0,0.0));
#1202=DIRECTION('',(-0.997260273972603,0.0,-0.073972602739728));
#1203=AXIS2_PLACEMENT_3D('',#1200,#1201,#1202);
#1204=CIRCLE('',#1203,18.249999999999378);
#1205=EDGE_CURVE('',#1167,#1193,#1204,.T.);
#1206=ORIENTED_EDGE('',*,*,#1205,.F.);
#1207=ORIENTED_EDGE('',*,*,#1172,.F.);
#1208=EDGE_LOOP('',(#1191,#1199,#1206,#1207));
#1209=FACE_OUTER_BOUND('',#1208,.T.);
#1210=ADVANCED_FACE('',(#1209),#1190,.T.);
#1211=CARTESIAN_POINT('',(2.600000000000000,1.899999999999999,-0.100000000000000));
#1212=DIRECTION('',(0.0,0.0,-1.0));
#1213=DIRECTION('',(-1.0,0.0,0.0));
#1214=AXIS2_PLACEMENT_3D('',#1211,#1212,#1213);
#1215=PLANE('',#1214);
#1216=ORIENTED_EDGE('',*,*,#284,.T.);
#1217=CARTESIAN_POINT('',(2.600000000000000,1.110223E-015,-0.100000000000000));
#1218=VERTEX_POINT('',#1217);
#1219=CARTESIAN_POINT('',(2.600000000000000,1.110223E-015,-0.100000000000000));
#1220=DIRECTION('',(0.0,1.0,0.0));
#1221=VECTOR('',#1220,0.455555555555555);
#1222=LINE('',#1219,#1221);
#1223=EDGE_CURVE('',#1218,#271,#1222,.T.);
#1224=ORIENTED_EDGE('',*,*,#1223,.F.);
#1225=CARTESIAN_POINT('',(2.650000000000000,9.714451E-016,-0.100000000000000));
#1226=DIRECTION('',(-1.0,0.0,0.0));
#1227=VECTOR('',#1226,0.050000000000000);
#1228=LINE('',#1225,#1227);
#1229=EDGE_CURVE('',#1193,#1218,#1228,.T.);
#1230=ORIENTED_EDGE('',*,*,#1229,.F.);
#1231=ORIENTED_EDGE('',*,*,#1198,.T.);
#1232=EDGE_LOOP('',(#1216,#1224,#1230,#1231));
#1233=FACE_OUTER_BOUND('',#1232,.T.);
#1234=ADVANCED_FACE('',(#1233),#1215,.F.);
#1235=CARTESIAN_POINT('',(2.600000000000000,1.899999999999999,0.100000000000000));
#1236=DIRECTION('',(-1.0,0.0,0.0));
#1237=DIRECTION('',(0.0,0.0,1.0));
#1238=AXIS2_PLACEMENT_3D('',#1235,#1236,#1237);
#1239=PLANE('',#1238);
#1240=ORIENTED_EDGE('',*,*,#276,.T.);
#1241=CARTESIAN_POINT('',(2.600000000000000,1.110223E-015,0.100000000000000));
#1242=VERTEX_POINT('',#1241);
#1243=CARTESIAN_POINT('',(2.600000000000000,1.110223E-015,0.100000000000000));
#1244=DIRECTION('',(0.0,1.0,0.0));
#1245=VECTOR('',#1244,0.455555555555555);
#1246=LINE('',#1243,#1245);
#1247=EDGE_CURVE('',#1242,#263,#1246,.T.);
#1248=ORIENTED_EDGE('',*,*,#1247,.F.);
#1249=CARTESIAN_POINT('',(2.600000000000000,9.714451E-016,-0.100000000000000));
#1250=DIRECTION('',(0.0,0.0,1.0));
#1251=VECTOR('',#1250,0.200000000000000);
#1252=LINE('',#1249,#1251);
#1253=EDGE_CURVE('',#1218,#1242,#1252,.T.);
#1254=ORIENTED_EDGE('',*,*,#1253,.F.);
#1255=ORIENTED_EDGE('',*,*,#1223,.T.);
#1256=EDGE_LOOP('',(#1240,#1248,#1254,#1255));
#1257=FACE_OUTER_BOUND('',#1256,.T.);
#1258=ADVANCED_FACE('',(#1257),#1239,.F.);
#1259=CARTESIAN_POINT('',(1.450000000000000,1.899999999999999,1.450000000000000));
#1260=DIRECTION('',(0.0,1.0,0.0));
#1261=DIRECTION('',(0.0,0.0,-1.0));
#1262=AXIS2_PLACEMENT_3D('',#1259,#1260,#1261);
#1263=CYLINDRICAL_SURFACE('',#1262,1.250000000000000);
#1264=ORIENTED_EDGE('',*,*,#161,.F.);
#1265=ORIENTED_EDGE('',*,*,#824,.T.);
#1266=CARTESIAN_POINT('',(1.450000000000000,1.110223E-015,2.700000000000000));
#1267=VERTEX_POINT('',#1266);
#1268=CARTESIAN_POINT('',(1.450000000000000,0.400000000000001,2.700000000000000));
#1269=DIRECTION('',(0.0,-1.0,0.0));
#1270=VECTOR('',#1269,0.400000000000000);
#1271=LINE('',#1268,#1270);
#1272=EDGE_CURVE('',#811,#1267,#1271,.T.);
#1273=ORIENTED_EDGE('',*,*,#1272,.T.);
#1274=CARTESIAN_POINT('',(2.700000000000000,8.326673E-016,1.450000000000001));
#1275=VERTEX_POINT('',#1274);
#1276=CARTESIAN_POINT('',(1.450000000000000,1.110223E-015,1.450000000000000));
#1277=DIRECTION('',(0.0,-1.0,0.0));
#1278=DIRECTION('',(0.0,0.0,-1.0));
#1279=AXIS2_PLACEMENT_3D('',#1276,#1277,#1278);
#1280=CIRCLE('',#1279,1.250000000000000);
#1281=EDGE_CURVE('',#1275,#1267,#1280,.T.);
#1282=ORIENTED_EDGE('',*,*,#1281,.F.);
#1283=CARTESIAN_POINT('',(2.700000000000000,0.400000000000001,1.450000000000000));
#1284=DIRECTION('',(0.0,-1.0,0.0));
#1285=VECTOR('',#1284,0.400000000000000);
#1286=LINE('',#1283,#1285);
#1287=EDGE_CURVE('',#245,#1275,#1286,.T.);
#1288=ORIENTED_EDGE('',*,*,#1287,.F.);
#1289=ORIENTED_EDGE('',*,*,#251,.T.);
#1290=EDGE_LOOP('',(#1264,#1265,#1273,#1282,#1288,#1289));
#1291=FACE_OUTER_BOUND('',#1290,.T.);
#1292=ADVANCED_FACE('',(#1291),#1263,.T.);
#1293=CARTESIAN_POINT('',(-15.549999999999986,1.899999999999999,1.449999999999998));
#1294=DIRECTION('',(0.0,1.0,0.0));
#1295=DIRECTION('',(-1.0,0.0,0.0));
#1296=AXIS2_PLACEMENT_3D('',#1293,#1294,#1295);
#1297=CYLINDRICAL_SURFACE('',#1296,18.249999999999986);
#1298=ORIENTED_EDGE('',*,*,#260,.T.);
#1299=ORIENTED_EDGE('',*,*,#1287,.T.);
#1300=CARTESIAN_POINT('',(2.649999999999999,5.551115E-016,0.100000000000001));
#1301=VERTEX_POINT('',#1300);
#1302=CARTESIAN_POINT('',(-15.549999999999986,1.110223E-015,1.449999999999998));
#1303=DIRECTION('',(0.0,-1.0,0.0));
#1304=DIRECTION('',(-1.0,0.0,0.0));
#1305=AXIS2_PLACEMENT_3D('',#1302,#1303,#1304);
#1306=CIRCLE('',#1305,18.249999999999986);
#1307=EDGE_CURVE('',#1301,#1275,#1306,.T.);
#1308=ORIENTED_EDGE('',*,*,#1307,.F.);
#1309=CARTESIAN_POINT('',(2.650000000000001,0.427777777777780,0.100000000000000));
#1310=DIRECTION('',(0.0,-1.0,0.0));
#1311=VECTOR('',#1310,0.427777777777779);
#1312=LINE('',#1309,#1311);
#1313=EDGE_CURVE('',#254,#1301,#1312,.T.);
#1314=ORIENTED_EDGE('',*,*,#1313,.F.);
#1315=EDGE_LOOP('',(#1298,#1299,#1308,#1314));
#1316=FACE_OUTER_BOUND('',#1315,.T.);
#1317=ADVANCED_FACE('',(#1316),#1297,.T.);
#1318=CARTESIAN_POINT('',(1.449999999999988,1.899999999999999,-15.549999999999377));
#1319=DIRECTION('',(0.0,1.0,0.0));
#1320=DIRECTION('',(0.073972602739728,0.0,-0.997260273972603));
#1321=AXIS2_PLACEMENT_3D('',#1318,#1319,#1320);
#1322=CYLINDRICAL_SURFACE('',#1321,18.249999999999378);
#1323=ORIENTED_EDGE('',*,*,#817,.T.);
#1324=ORIENTED_EDGE('',*,*,#855,.F.);
#1325=CARTESIAN_POINT('',(1.449999999999988,1.110223E-015,-15.549999999999377));
#1326=DIRECTION('',(0.0,-1.0,0.0));
#1327=DIRECTION('',(0.073972602739728,0.0,-0.997260273972603));
#1328=AXIS2_PLACEMENT_3D('',#1325,#1326,#1327);
#1329=CIRCLE('',#1328,18.249999999999378);
#1330=EDGE_CURVE('',#1267,#844,#1329,.T.);
#1331=ORIENTED_EDGE('',*,*,#1330,.F.);
#1332=ORIENTED_EDGE('',*,*,#1272,.F.);
#1333=EDGE_LOOP('',(#1323,#1324,#1331,#1332));
#1334=FACE_OUTER_BOUND('',#1333,.T.);
#1335=ADVANCED_FACE('',(#1334),#1322,.T.);
#1336=CARTESIAN_POINT('',(-1.450000000000000,1.899999999999999,-1.450000000000000));
#1337=DIRECTION('',(0.0,1.0,0.0));
#1338=DIRECTION('',(0.0,0.0,1.0));
#1339=AXIS2_PLACEMENT_3D('',#1336,#1337,#1338);
#1340=CYLINDRICAL_SURFACE('',#1339,1.250000000000000);
#1341=ORIENTED_EDGE('',*,*,#482,.F.);
#1342=ORIENTED_EDGE('',*,*,#1022,.T.);
#1343=CARTESIAN_POINT('',(-1.450000000000000,1.110223E-015,-2.700000000000000));
#1344=VERTEX_POINT('',#1343);
#1345=CARTESIAN_POINT('',(-1.450000000000000,0.400000000000001,-2.700000000000000));
#1346=DIRECTION('',(0.0,-1.0,0.0));
#1347=VECTOR('',#1346,0.400000000000000);
#1348=LINE('',#1345,#1347);
#1349=EDGE_CURVE('',#1009,#1344,#1348,.T.);
#1350=ORIENTED_EDGE('',*,*,#1349,.T.);
#1351=CARTESIAN_POINT('',(-2.700000000000000,8.326673E-016,-1.450000000000000));
#1352=VERTEX_POINT('',#1351);
#1353=CARTESIAN_POINT('',(-1.450000000000000,1.110223E-015,-1.450000000000000));
#1354=DIRECTION('',(0.0,-1.0,0.0));
#1355=DIRECTION('',(0.0,0.0,1.0));
#1356=AXIS2_PLACEMENT_3D('',#1353,#1354,#1355);
#1357=CIRCLE('',#1356,1.250000000000000);
#1358=EDGE_CURVE('',#1352,#1344,#1357,.T.);
#1359=ORIENTED_EDGE('',*,*,#1358,.F.);
#1360=CARTESIAN_POINT('',(-2.700000000000000,0.400000000000001,-1.450000000000000));
#1361=DIRECTION('',(0.0,-1.0,0.0));
#1362=VECTOR('',#1361,0.400000000000000);
#1363=LINE('',#1360,#1362);
#1364=EDGE_CURVE('',#538,#1352,#1363,.T.);
#1365=ORIENTED_EDGE('',*,*,#1364,.F.);
#1366=ORIENTED_EDGE('',*,*,#544,.T.);
#1367=EDGE_LOOP('',(#1341,#1342,#1350,#1359,#1365,#1366));
#1368=FACE_OUTER_BOUND('',#1367,.T.);
#1369=ADVANCED_FACE('',(#1368),#1340,.T.);
#1370=CARTESIAN_POINT('',(15.549999999999986,1.899999999999999,-1.449999999999999));
#1371=DIRECTION('',(0.0,1.0,0.0));
#1372=DIRECTION('',(1.0,0.0,0.0));
#1373=AXIS2_PLACEMENT_3D('',#1370,#1371,#1372);
#1374=CYLINDRICAL_SURFACE('',#1373,18.249999999999986);
#1375=ORIENTED_EDGE('',*,*,#553,.T.);
#1376=ORIENTED_EDGE('',*,*,#1364,.T.);
#1377=CARTESIAN_POINT('',(-2.649999999999999,5.551115E-016,-0.100000000000000));
#1378=VERTEX_POINT('',#1377);
#1379=CARTESIAN_POINT('',(15.549999999999986,1.110223E-015,-1.449999999999999));
#1380=DIRECTION('',(0.0,-1.0,0.0));
#1381=DIRECTION('',(1.0,0.0,0.0));
#1382=AXIS2_PLACEMENT_3D('',#1379,#1380,#1381);
#1383=CIRCLE('',#1382,18.249999999999986);
#1384=EDGE_CURVE('',#1378,#1352,#1383,.T.);
#1385=ORIENTED_EDGE('',*,*,#1384,.F.);
#1386=CARTESIAN_POINT('',(-2.649999999999999,0.427777777777780,-0.100000000000000));
#1387=DIRECTION('',(0.0,-1.0,0.0));
#1388=VECTOR('',#1387,0.427777777777779);
#1389=LINE('',#1386,#1388);
#1390=EDGE_CURVE('',#547,#1378,#1389,.T.);
#1391=ORIENTED_EDGE('',*,*,#1390,.F.);
#1392=EDGE_LOOP('',(#1375,#1376,#1385,#1391));
#1393=FACE_OUTER_BOUND('',#1392,.T.);
#1394=ADVANCED_FACE('',(#1393),#1374,.T.);
#1395=CARTESIAN_POINT('',(-1.449999999999986,1.899999999999999,15.549999999999377));
#1396=DIRECTION('',(0.0,1.0,0.0));
#1397=DIRECTION('',(-0.073972602739728,0.0,0.997260273972603));
#1398=AXIS2_PLACEMENT_3D('',#1395,#1396,#1397);
#1399=CYLINDRICAL_SURFACE('',#1398,18.249999999999378);
#1400=ORIENTED_EDGE('',*,*,#1015,.T.);
#1401=CARTESIAN_POINT('',(-0.100000000000000,1.110223E-015,-2.650000000000000));
#1402=VERTEX_POINT('',#1401);
#1403=CARTESIAN_POINT('',(-0.100000000000000,1.110223E-015,-2.649999999999999));
#1404=DIRECTION('',(0.0,1.0,0.0));
#1405=VECTOR('',#1404,0.427777777777778);
#1406=LINE('',#1403,#1405);
#1407=EDGE_CURVE('',#1402,#1001,#1406,.T.);
#1408=ORIENTED_EDGE('',*,*,#1407,.F.);
#1409=CARTESIAN_POINT('',(-1.449999999999986,1.110223E-015,15.549999999999377));
#1410=DIRECTION('',(0.0,-1.0,0.0));
#1411=DIRECTION('',(-0.073972602739728,0.0,0.997260273972603));
#1412=AXIS2_PLACEMENT_3D('',#1409,#1410,#1411);
#1413=CIRCLE('',#1412,18.249999999999378);
#1414=EDGE_CURVE('',#1344,#1402,#1413,.T.);
#1415=ORIENTED_EDGE('',*,*,#1414,.F.);
#1416=ORIENTED_EDGE('',*,*,#1349,.F.);
#1417=EDGE_LOOP('',(#1400,#1408,#1415,#1416));
#1418=FACE_OUTER_BOUND('',#1417,.T.);
#1419=ADVANCED_FACE('',(#1418),#1399,.T.);
#1420=CARTESIAN_POINT('',(2.700000000000000,1.899999999999999,0.100000000000000));
#1421=DIRECTION('',(0.0,0.0,1.0));
#1422=DIRECTION('',(1.0,0.0,0.0));
#1423=AXIS2_PLACEMENT_3D('',#1420,#1421,#1422);
#1424=PLANE('',#1423);
#1425=ORIENTED_EDGE('',*,*,#268,.T.);
#1426=ORIENTED_EDGE('',*,*,#1313,.T.);
#1427=CARTESIAN_POINT('',(2.600000000000000,9.530754E-016,0.100000000000000));
#1428=DIRECTION('',(1.0,0.0,0.0));
#1429=VECTOR('',#1428,0.049999999999999);
#1430=LINE('',#1427,#1429);
#1431=EDGE_CURVE('',#1242,#1301,#1430,.T.);
#1432=ORIENTED_EDGE('',*,*,#1431,.F.);
#1433=ORIENTED_EDGE('',*,*,#1247,.T.);
#1434=EDGE_LOOP('',(#1425,#1426,#1432,#1433));
#1435=FACE_OUTER_BOUND('',#1434,.T.);
#1436=ADVANCED_FACE('',(#1435),#1424,.F.);
#1437=CARTESIAN_POINT('',(2.700000000000000,9.919639E-016,0.0));
#1438=DIRECTION('',(0.0,-1.0,0.0));
#1439=DIRECTION('',(0.0,0.0,-1.0));
#1440=AXIS2_PLACEMENT_3D('',#1437,#1438,#1439);
#1441=PLANE('',#1440);
#1442=ORIENTED_EDGE('',*,*,#1330,.T.);
#1443=ORIENTED_EDGE('',*,*,#849,.T.);
#1444=ORIENTED_EDGE('',*,*,#878,.T.);
#1445=ORIENTED_EDGE('',*,*,#902,.T.);
#1446=ORIENTED_EDGE('',*,*,#927,.T.);
#1447=ORIENTED_EDGE('',*,*,#953,.T.);
#1448=ORIENTED_EDGE('',*,*,#1049,.T.);
#1449=ORIENTED_EDGE('',*,*,#1073,.T.);
#1450=CARTESIAN_POINT('',(-2.600000000000000,0.0,-0.100000000000000));
#1451=VERTEX_POINT('',#1450);
#1452=CARTESIAN_POINT('',(-2.600000000000000,0.0,0.100000000000000));
#1453=DIRECTION('',(0.0,0.0,-1.0));
#1454=VECTOR('',#1453,0.200000000000000);
#1455=LINE('',#1452,#1454);
#1456=EDGE_CURVE('',#1062,#1451,#1455,.T.);
#1457=ORIENTED_EDGE('',*,*,#1456,.T.);
#1458=CARTESIAN_POINT('',(-2.600000000000000,-6.127862E-017,-0.100000000000000));
#1459=DIRECTION('',(-1.0,0.0,0.0));
#1460=VECTOR('',#1459,0.049999999999999);
#1461=LINE('',#1458,#1460);
#1462=EDGE_CURVE('',#1451,#1378,#1461,.T.);
#1463=ORIENTED_EDGE('',*,*,#1462,.T.);
#1464=ORIENTED_EDGE('',*,*,#1384,.T.);
#1465=ORIENTED_EDGE('',*,*,#1358,.T.);
#1466=ORIENTED_EDGE('',*,*,#1414,.T.);
#1467=CARTESIAN_POINT('',(-0.100000000000000,4.163336E-016,-2.650000000000000));
#1468=DIRECTION('',(0.0,0.0,1.0));
#1469=VECTOR('',#1468,0.050000000000000);
#1470=LINE('',#1467,#1469);
#1471=EDGE_CURVE('',#1402,#1094,#1470,.T.);
#1472=ORIENTED_EDGE('',*,*,#1471,.T.);
#1473=ORIENTED_EDGE('',*,*,#1099,.T.);
#1474=ORIENTED_EDGE('',*,*,#1128,.T.);
#1475=ORIENTED_EDGE('',*,*,#1153,.T.);
#1476=ORIENTED_EDGE('',*,*,#1179,.T.);
#1477=ORIENTED_EDGE('',*,*,#1205,.T.);
#1478=ORIENTED_EDGE('',*,*,#1229,.T.);
#1479=ORIENTED_EDGE('',*,*,#1253,.T.);
#1480=ORIENTED_EDGE('',*,*,#1431,.T.);
#1481=ORIENTED_EDGE('',*,*,#1307,.T.);
#1482=ORIENTED_EDGE('',*,*,#1281,.T.);
#1483=EDGE_LOOP('',(#1442,#1443,#1444,#1445,#1446,#1447,#1448,#1449,#1457,#1463,#1464,#1465,#1466,#1472,#1473,#1474,#1475,#1476,#1477,#1478,#1479,#1480,#1481,#1482));
#1484=FACE_OUTER_BOUND('',#1483,.T.);
#1485=ORIENTED_EDGE('',*,*,#108,.T.);
#1486=EDGE_LOOP('',(#1485));
#1487=FACE_BOUND('',#1486,.T.);
#1488=ADVANCED_FACE('',(#1484,#1487),#1441,.T.);
#1489=CARTESIAN_POINT('',(-0.100000000000000,1.899999999999999,-2.600000000000000));
#1490=DIRECTION('',(-1.0,0.0,0.0));
#1491=DIRECTION('',(0.0,0.0,1.0));
#1492=AXIS2_PLACEMENT_3D('',#1489,#1490,#1491);
#1493=PLANE('',#1492);
#1494=ORIENTED_EDGE('',*,*,#1006,.T.);
#1495=ORIENTED_EDGE('',*,*,#1105,.F.);
#1496=ORIENTED_EDGE('',*,*,#1471,.F.);
#1497=ORIENTED_EDGE('',*,*,#1407,.T.);
#1498=EDGE_LOOP('',(#1494,#1495,#1496,#1497));
#1499=FACE_OUTER_BOUND('',#1498,.T.);
#1500=ADVANCED_FACE('',(#1499),#1493,.F.);
#1501=CARTESIAN_POINT('',(-2.700000000000000,1.899999999999999,-0.100000000000000));
#1502=DIRECTION('',(0.0,0.0,-1.0));
#1503=DIRECTION('',(-1.0,0.0,0.0));
#1504=AXIS2_PLACEMENT_3D('',#1501,#1502,#1503);
#1505=PLANE('',#1504);
#1506=ORIENTED_EDGE('',*,*,#561,.T.);
#1507=ORIENTED_EDGE('',*,*,#1390,.T.);
#1508=ORIENTED_EDGE('',*,*,#1462,.F.);
#1509=CARTESIAN_POINT('',(-2.600000000000000,0.0,-0.100000000000000));
#1510=DIRECTION('',(0.0,1.0,0.0));
#1511=VECTOR('',#1510,0.455555555555557);
#1512=LINE('',#1509,#1511);
#1513=EDGE_CURVE('',#1451,#556,#1512,.T.);
#1514=ORIENTED_EDGE('',*,*,#1513,.T.);
#1515=EDGE_LOOP('',(#1506,#1507,#1508,#1514));
#1516=FACE_OUTER_BOUND('',#1515,.T.);
#1517=ADVANCED_FACE('',(#1516),#1505,.F.);
#1518=CARTESIAN_POINT('',(-2.600000000000000,1.899999999999999,-0.100000000000000));
#1519=DIRECTION('',(1.0,0.0,0.0));
#1520=DIRECTION('',(0.0,0.0,-1.0));
#1521=AXIS2_PLACEMENT_3D('',#1518,#1519,#1520);
#1522=PLANE('',#1521);
#1523=ORIENTED_EDGE('',*,*,#569,.T.);
#1524=ORIENTED_EDGE('',*,*,#1513,.F.);
#1525=ORIENTED_EDGE('',*,*,#1456,.F.);
#1526=ORIENTED_EDGE('',*,*,#1067,.T.);
#1527=EDGE_LOOP('',(#1523,#1524,#1525,#1526));
#1528=FACE_OUTER_BOUND('',#1527,.T.);
#1529=ADVANCED_FACE('',(#1528),#1522,.F.);
#1530=CLOSED_SHELL('',(#95,#115,#124,#190,#237,#329,#386,#426,#492,#530,#622,#679,#710,#727,#744,#758,#828,#859,#883,#907,#932,#959,#1029,#1054,#1078,#1109,#1133,#1158,#1185,#1210,#1234,#1258,#1292,#1317,#1335,#1369,#1394,#1419,#1436,#1488,#1500,#1517,#1529));
#1531=MANIFOLD_SOLID_BREP('Solid1',#1530);
#1532=COLOUR_RGB('Metal-Steel',0.639216005802155,0.639216005802155,0.686275005340576);
#1533=FILL_AREA_STYLE_COLOUR('Metal-Steel',#1532);
#1534=FILL_AREA_STYLE('Metal-Steel',(#1533));
#1535=SURFACE_STYLE_FILL_AREA(#1534);
#1536=SURFACE_SIDE_STYLE('Metal-Steel',(#1535));
#1537=SURFACE_STYLE_USAGE(.BOTH.,#1536);
#1538=PRESENTATION_STYLE_ASSIGNMENT((#1537));
#1539=STYLED_ITEM('',(#1538),#1531);
#1540=MECHANICAL_DESIGN_GEOMETRIC_PRESENTATION_REPRESENTATION('',(#1539),#36);
#1541=ADVANCED_BREP_SHAPE_REPRESENTATION('ABSR',(#1531),#36);
#1542=SHAPE_REPRESENTATION_RELATIONSHIP('SRR','None',#1541,#41);
ENDSEC;
END-ISO-10303-21;
